<svg xmlns="http://www.w3.org/2000/svg" width="21.417" height="22.956" viewBox="0 0 21.417 22.956">
    <path data-name="Path 11659" d="M12.1 2.565a.765.765 0 0 0-1.217.183l-4.815 9.1-2.629 2.621a3.052 3.052 0 0 0-.769 2.985 3.044 3.044 0 0 0 4.278 4.278 2.9 2.9 0 0 0 2.367-.305l1.971 1.973a1.913 1.913 0 0 0 2.705-2.705L12.1 18.8l.46-.46 9.1-4.816a.765.765 0 0 0 .183-1.217zM3.981 20.422a1.527 1.527 0 0 1-.391-1.473l1.864 1.864a1.526 1.526 0 0 1-1.473-.39zm2.706-.541-2.165-2.165a1.533 1.533 0 0 1 0-2.164l2.165-2.165 4.329 4.329-2.165 2.164a1.531 1.531 0 0 1-2.164 0zm6.223 1.894a.386.386 0 0 1 0 .541.388.388 0 0 1-.541 0l-1.894-1.894.541-.541zm-.67-5-4.613-4.612 4.12-7.783 8.275 8.274zM15.011 3.3V1.766a.765.765 0 1 1 1.53 0V3.3a.765.765 0 0 1-1.53 0zm8.417 5.356a.765.765 0 0 1-.765.765h-1.53a.765.765 0 0 1 0-1.53h1.53a.765.765 0 0 1 .766.761zM18.3 6.133a.765.765 0 0 1 0-1.082l1.53-1.53A.765.765 0 0 1 20.909 4.6l-1.53 1.53a.765.765 0 0 1-1.082 0z" transform="translate(-2.011 -1.001)" style="fill:#c3c3c3"/>
</svg>
