<svg xmlns="http://www.w3.org/2000/svg" xmlns:xlink="http://www.w3.org/1999/xlink" width="147" height="162" viewBox="0 0 147 162">
  <defs>
    <style>
      .cls-1 {
        fill: #fff;
      }

      .cls-2 {
        clip-path: url(#clip-path);
      }

      .cls-3 {
        opacity: 0.015;
      }
    </style>
    <clipPath id="clip-path">
      <rect id="Rectangle_50" data-name="Rectangle 50" class="cls-1" width="147" height="162" transform="translate(-0.221 0.324)"/>
    </clipPath>
  </defs>
  <g id="barista-bg-draw" class="cls-2" transform="translate(0.221 -0.324)">
    <g id="icon" class="cls-3" transform="translate(-72.408 14.348)">
      <g id="outline" transform="translate(0 0)">
        <path id="Path_25" data-name="Path 25" d="M18.828,221.112H215.94a3.4,3.4,0,0,0,3.4-3.4V176.932a3.4,3.4,0,0,0-3.4-3.4H175.9l2.586-12.927a3.4,3.4,0,0,0-.036-1.491l-13.594-54.376a3.4,3.4,0,0,0-1.647-2.147L133.548,86.11l-2.361-4.721a16.9,16.9,0,0,0,2.958-6.893,13.191,13.191,0,0,0,9.291-7.92l3.476-8.69a14.8,14.8,0,0,0-13.739-20.292H129.68l-1.648-3.3A18.629,18.629,0,0,0,93.7,36.738a20.3,20.3,0,0,0,4.932,20.89l1.816,1.816v11.98a16.944,16.944,0,0,0,5.346,12.355L105,85.34l-9.851.807c.025-.279.042-.559.042-.845A9.133,9.133,0,0,0,77.275,82.8l-1.143-.69a3.4,3.4,0,0,0-3.531.01L64.619,87,52.746,77.346a3.4,3.4,0,0,0-4.288,0L33.675,89.365a3.4,3.4,0,0,0-1.023,3.868l4.365,11.226L30.889,111.7a36.669,36.669,0,0,0-7.13,13.064l-.518,1.7a13.189,13.189,0,0,0,22.745,12.307,37.08,37.08,0,0,0,5.757-9.526l11.64,8.487a3.4,3.4,0,0,0,2,.653H73.2v35.155h-54.8a3.4,3.4,0,0,0-3.4,3.451l.421,40.729A3.4,3.4,0,0,0,18.828,221.112Zm193.714-6.8H22.226v-6.8H212.541Zm0-33.985v20.391H154.767V180.33Zm-67.97-6.8v-5.39l4.806-4.806h6.969l4.694,7.041-1.577,3.154Zm27.1-13.509-2.7,13.509h-1.912l.939-1.879a3.4,3.4,0,0,0-.212-3.405l-6.8-10.2a3.4,3.4,0,0,0-2.826-1.513h-6.8V120.565l8.354-8.354ZM136.93,95.766l19.045,10.581-8.257,8.257L134.8,104.272ZM105.2,54.586l-1.764-1.764a13.544,13.544,0,0,1-3.289-13.934,11.832,11.832,0,0,1,21.808-1.55l2.588,5.175a3.4,3.4,0,0,0,3.04,1.877h5.594A8,8,0,0,1,140.6,55.362l-3.476,8.69a6.33,6.33,0,0,1-2.7,3.112v-.839a3.369,3.369,0,0,0-.042-.519l-.009-1.051a3.4,3.4,0,0,0-1-2.377l-6.8-6.8a3.4,3.4,0,0,0-2.4-1ZM127.631,71.43a10.2,10.2,0,0,1-20.391-.006V61.383h15.533L127.59,66.2ZM107.466,91.958a3.4,3.4,0,0,0,2.761-1.869l1.357-2.713a16.962,16.962,0,0,0,14.367-1.259l1.986,3.972a3.394,3.394,0,0,0,1.389,1.451l1.451.807-2.454,9.818H106.443l-2.48-9.919Zm-10.368.85,2.339,9.357H94.657l.886-5.884a3.392,3.392,0,0,0-1.348-3.233Zm-3.465,16.154h36.151l14.787,11.829v37.74l-.218.218a3.4,3.4,0,0,0-3.18-2.209h-10.2v-3.4a3.4,3.4,0,0,0-3.4-3.4h-6.043l.686-3.4h7.056a8.5,8.5,0,1,0,0-16.992h-28.81a3.4,3.4,0,0,0-3.356,3.945l2.681,16.446h-6.2a3.4,3.4,0,0,0-2.4,1l-3.4,3.4a3.4,3.4,0,0,0-.637,3.923l3.04,6.079v9.393H80V134.98a3.4,3.4,0,0,0-.181-1.089c.09,0,.181.009.272.009a14.75,14.75,0,0,0,11.173-5.113l5.915-6.877a7.9,7.9,0,0,1,5.994-2.752h5.552a3.4,3.4,0,0,0,0-6.8h-5.552a14.693,14.693,0,0,0-11.15,5.117l-5.915,6.877a7.888,7.888,0,0,1-2.669,2.014Zm44.142,54.376v10.2h-6.8v-10.2ZM122.544,173.38a22.152,22.152,0,0,1-10.87.142,28.847,28.847,0,0,0-14.681.318v-10.5a3.4,3.4,0,0,0-.359-1.52l-2.3-4.605.671-.671h29.179v16.4Zm1.637,6.6v7.151H96.993v-6.155l.954-.318a22.071,22.071,0,0,1,12.14-.523,28.972,28.972,0,0,0,14.094-.155ZM104.465,136.15h12.882L114.6,149.744h-7.924Zm19.13,3.4.686-3.4h5a1.7,1.7,0,0,1,0,3.4ZM86.056,82.964a2.342,2.342,0,1,1-2.342,2.342A2.342,2.342,0,0,1,86.056,82.964ZM74.385,89l14.1,8.517-.879,5.823L69.469,92ZM40.767,134.408a6.4,6.4,0,0,1-11.026-5.966l.518-1.7a29.911,29.911,0,0,1,5.817-10.656l6.418-7.577h3.555a3.438,3.438,0,0,0-.033.449v14.373a3.4,3.4,0,0,0,.222,1.2,30.3,30.3,0,0,1-5.471,9.868ZM50.84,101.74a3.441,3.441,0,0,0-.388-.024H43.243l-3.359-8.638L50.6,84.366l8.566,6.967Zm21.39,29.842H66.492l-13.509-9.851c-.053-.085-.108-.17-.168-.249V110.154l10.96-13.7,21.756,13.6ZM73.2,180.33H90.2v10.2a3.4,3.4,0,0,0,3.4,3.4h33.985a3.4,3.4,0,0,0,3.4-3.4v-10.2H147.97v20.391H73.2Zm-6.8,0v20.391H22.174l-.316-20.391Z" transform="translate(-15.008 -24)"/>
        <circle id="Ellipse_3" data-name="Ellipse 3" cx="3.634" cy="3.634" r="3.634" transform="translate(95.356 94.922)"/>
        <circle id="Ellipse_4" data-name="Ellipse 4" cx="3.18" cy="3.18" r="3.18" transform="translate(92.63 139.436)"/>
      </g>
    </g>
  </g>
</svg>
