<svg xmlns="http://www.w3.org/2000/svg" width="89.862" height="35.956" viewBox="0 0 89.862 35.956">
    <g data-name="Group 161">
        <path data-name="Path 11458" d="M292.588 123.968c3.182-7.327.761-15.463-5.394-18.135a10.427 10.427 0 0 0-4.182-.862c-5.211 0-10.335 3.739-12.751 9.3-3.182 7.327-.761 15.463 5.393 18.135a10.429 10.429 0 0 0 4.182.862c5.212 0 10.336-3.738 12.753-9.3z" transform="rotate(14.98 545.985 -840.85)" style="fill:#c3c3c3"/>
        <path data-name="Path 11459" d="M333.12 141.041a1.011 1.011 0 0 0-1.087.927l-.365 4.6-6.31 6.393-.2 4.867a1.011 1.011 0 0 0 .97 1.05h.041a1.011 1.011 0 0 0 1.009-.97l.165-4.085 6.279-6.361.424-5.339a1.01 1.01 0 0 0-.927-1.086z" transform="rotate(14.98 687.279 -1008.205)" style="fill:#fff"/>
    </g>
    <g data-name="Group 160">
        <path data-name="Path 11460" d="M169.307 279.715a16.255 16.255 0 0 0-9.278-3.065 11.474 11.474 0 0 0-9.58 4.619 11.216 11.216 0 0 0-1.494 9.567 15.926 15.926 0 0 0 6.277 8.739 16.255 16.255 0 0 0 9.278 3.065 11.473 11.473 0 0 0 9.579-4.619 11.214 11.214 0 0 0 1.494-9.568 15.929 15.929 0 0 0-6.277-8.738z" transform="rotate(90 223.573 79.069)" style="fill:#c3c3c3"/>
        <path data-name="Path 11461" d="m203.3 335.024-3.965-1-4.935-7.451-5.137-1.512A1.011 1.011 0 0 0 188.7 327l4.429 1.3 4.96 7.489 4.723 1.191a1.022 1.022 0 0 0 .248.032 1.011 1.011 0 0 0 .246-1.991z" transform="rotate(90 261.149 82.877)" style="fill:#fff"/>
    </g>
    <g data-name="Group 159">
        <path data-name="Path 11462" d="M391.69 285.773c-1.863-4.035-6.19-6.54-11.292-6.54a16.747 16.747 0 0 0-6.963 1.564c-7.252 3.349-10.864 11.03-8.051 17.123 1.863 4.034 6.19 6.54 11.292 6.54a16.748 16.748 0 0 0 6.963-1.564c7.253-3.348 10.861-11.03 8.051-17.123z" transform="rotate(150 261.63 113.756)" style="fill:#c3c3c3"/>
        <path data-name="Path 11463" d="m416.71 334.926-2.843 2.939-8.919.565-3.871 3.7a1.01 1.01 0 0 0 1.4 1.46l3.337-3.19 8.965-.567 3.386-3.5a1.01 1.01 0 1 0-1.451-1.4z" transform="rotate(150 283.522 133.285)" style="fill:#fff"/>
    </g>
</svg>
