<svg xmlns="http://www.w3.org/2000/svg" width="46.009" height="68.939" viewBox="0 0 46.009 68.939">
    <path data-name="Path 11457" d="M5.716 42.459C2 53.415 13.795 59.7 13.795 64.35v2.45a2.155 2.155 0 0 0 4.311 0v-2.45c0-7.073-11.174-12.042-8.306-20.505l2.848-8.4a2.447 2.447 0 0 1 2.334-1.638H28.6c.063 0 .216 0 .23.437-4.725 4.65-10.309 3.521-11.45 3.684a2.157 2.157 0 0 0-2.066 1.538c-1.06 3.555 7.406 3.394 11.467 15.37a2.156 2.156 0 0 0 4.084-1.385 28.165 28.165 0 0 0-7.538-11.57 16.989 16.989 0 0 0 3.753-1.288 6.248 6.248 0 0 0-.2 3.837 6.331 6.331 0 0 0 3.023 3.9 6.034 6.034 0 0 0 4.475.67 6.31 6.31 0 0 0 2.922 3.642 6.454 6.454 0 0 0 3.2.842 6.527 6.527 0 0 0 4.294-1.644c-1.394 7.265-5.97 7.239-5.97 12.76v2.2a2.155 2.155 0 1 0 4.311 0v-2.2c0-3.638 7.806-6.061 6.044-18.18l-.155-1.1 1.1-1.877a6.351 6.351 0 0 0-4.906-9.524 6.4 6.4 0 0 0-8.86-6.711L40.14 7.539c1.6-8.288-11.1-10.665-12.66-2.354L24.819 19.3 22.908 6.774C21.635-1.6 9.027.546 10.248 8.648L13.424 29.7c-5.636 1.319-5.251 7.257-7.708 12.76zm40.692-1.2-4.038 6.874c-1.408 2.408-5.084.313-3.713-2.035l4.038-6.874c1.417-2.405 5.081-.308 3.713 2.035zm-5.719-7.182-5.719 9.74c-1.411 2.377-5.1.316-3.716-2.035l5.719-9.74c1.411-2.389 5.092-.308 3.716 2.034zm-8.969-28.1c.523-2.765 4.693-1.868 4.19.744l-4.555 23.71c-1.7-1.267-3.282-.851-4.069-.937zM18.652 7.421 22.02 29.5h-4.268L14.51 8c-.388-2.561 3.725-3.311 4.141-.581z" transform="translate(-4.992 -.012)" style="fill:#c3c3c3"/>
</svg>
