<svg xmlns="http://www.w3.org/2000/svg" width="38" height="38" viewBox="0 0 38 38">
    <path data-name="Path 11697" d="M29.057 17.948V2.6a2.6 2.6 0 0 0-2.6-2.6H2.6A2.6 2.6 0 0 0 0 2.6v32.8A2.6 2.6 0 0 0 2.6 38h25.343a10.057 10.057 0 0 0 1.113-20.052zM2.6 35.773a.371.371 0 0 1-.371-.371V2.6a.371.371 0 0 1 .371-.373h23.859a.371.371 0 0 1 .371.371v15.35a9.985 9.985 0 0 0-4.13 1.417 1.111 1.111 0 0 0-1-1.6h-1.285a1.113 1.113 0 0 0 0 2.227H21.7c.034 0 .068 0 .1-.005a10.045 10.045 0 0 0-.164 15.789zm24.112-.1a7.83 7.83 0 1 1 9.064-7.732 7.842 7.842 0 0 1-9.066 7.734z" style="fill:#707070"/>
    <path data-name="Path 11698" d="M337.59 299.076a7.652 7.652 0 0 1-1.912-.881c-.128-.1-.176-1.375 1.539-.656a1.108 1.108 0 1 0 .851-2.046 6 6 0 0 0-.574-.2v-.178a1.113 1.113 0 0 0-2.227 0v.153a2.827 2.827 0 0 0-1.821 2.168 2.549 2.549 0 0 0 .857 2.508 9.214 9.214 0 0 0 2.544 1.228.743.743 0 0 1 .558.888 1.057 1.057 0 0 1-1.057.9 1.976 1.976 0 0 1-1.46-.378 1.113 1.113 0 1 0-1.219 1.863 4.019 4.019 0 0 0 1.6.673 1.113 1.113 0 1 0 2.227.016v-.155a3.127 3.127 0 0 0 .1-5.906z" transform="translate(-308.438 -272.184)" style="fill:#707070"/>
    <path data-name="Path 11699" d="M91.445 71.758A1.858 1.858 0 0 0 93.3 69.9v-5.045A1.858 1.858 0 0 0 91.445 63H77.3a1.858 1.858 0 0 0-1.855 1.855V69.9a1.858 1.858 0 0 0 1.855 1.858zm-13.776-6.531h13.405v4.3H77.669z" transform="translate(-69.843 -58.324)" style="fill:#707070"/>
    <path data-name="Path 11700" d="M86.5 239.333h-1.282a1.113 1.113 0 0 0 0 2.227H86.5a1.113 1.113 0 0 0 0-2.227z" transform="translate(-77.863 -221.57)" style="fill:#707070"/>
    <path data-name="Path 11701" d="M174.486 239.333H173.2a1.113 1.113 0 0 0 0 2.227h1.286a1.113 1.113 0 0 0 0-2.227z" transform="translate(-159.315 -221.57)" style="fill:#707070"/>
    <path data-name="Path 11702" d="M86.5 323h-1.282a1.113 1.113 0 0 0 0 2.227H86.5a1.113 1.113 0 0 0 0-2.227z" transform="translate(-77.863 -299.027)" style="fill:#707070"/>
    <path data-name="Path 11703" d="M174.486 323H173.2a1.113 1.113 0 0 0 0 2.227h1.286a1.113 1.113 0 1 0 0-2.227z" transform="translate(-159.315 -299.027)" style="fill:#707070"/>
    <path data-name="Path 11704" d="M86.5 406.667h-1.282a1.113 1.113 0 0 0 0 2.227H86.5a1.113 1.113 0 0 0 0-2.227z" transform="translate(-77.863 -376.485)" style="fill:#707070"/>
    <path data-name="Path 11705" d="M174.486 406.667H173.2a1.113 1.113 0 0 0 0 2.227h1.286a1.113 1.113 0 1 0 0-2.227z" transform="translate(-159.315 -376.485)" style="fill:#707070"/>
</svg>
