<svg id="coffee-bag" xmlns="http://www.w3.org/2000/svg" width="13.065" height="18.374" viewBox="0 0 13.065 18.374">
  <defs>
    <style>
      .cls-1 {
        fill: #242c43;
      }
    </style>
  </defs>
  <path id="Path_4" data-name="Path 4" class="cls-1" d="M21.04,11.936V24.475l2.056-.568v-12L22.2,9.93Z" transform="translate(-10.031 -6.235)"/>
  <rect id="Rectangle_11" data-name="Rectangle 11" class="cls-1" width="10.608" height="2.366" transform="translate(1.354)"/>
  <rect id="Rectangle_12" data-name="Rectangle 12" class="cls-1" width="10.173" height="2.767" transform="translate(0 15.607)"/>
  <path id="Path_5" data-name="Path 5" class="cls-1" d="M18.01,11.722a.376.376,0,0,1,.059-.209L19.331,9.34H9.074l-1.2,2.508v1.881H18.01Zm-5.367,6.027a1.546,1.546,0,0,0,0-.518,1.329,1.329,0,0,0-.51-.727,1.672,1.672,0,0,0-.176,1.5,1.563,1.563,0,0,0,.786.953l.15.067a1.446,1.446,0,0,1-.209-.343,1.58,1.58,0,0,1-.042-.928Zm.619-1.5A1.354,1.354,0,0,0,13,16.161a2.065,2.065,0,0,1,.476.9,2.324,2.324,0,0,1,0,.836.836.836,0,0,0,0,.485.777.777,0,0,0,.385.359,1.622,1.622,0,0,0,.192-1.513A1.563,1.563,0,0,0,13.262,16.245Z" transform="translate(-7.87 -6.138)"/>
  <path id="Path_6" data-name="Path 6" class="cls-1" d="M7.87,15.56v6.37H18.01V15.56Zm5.851,5.25a1.672,1.672,0,0,1-.577.1,1.847,1.847,0,0,1-.777-.176,2.433,2.433,0,0,1-1.187-1.463,2.232,2.232,0,0,1,1.087-2.859,1.73,1.73,0,0,1,1.363.084,2.449,2.449,0,0,1,1.212,1.446,2.215,2.215,0,0,1-1.087,2.867Z" transform="translate(-7.87 -7.159)"/>
</svg>
