<svg xmlns="http://www.w3.org/2000/svg" width="18.036" height="16.759" viewBox="0 0 18.036 16.759">
    <path data-name="Path 107" d="M195.66 51.341c1.068-2.251 3.1-3.521 4.543-2.838s1.742 3.064.675 5.314c-1.019 2.147-3.431 3.136-4.854 2.654a3.432 3.432 0 0 1 .933-2.109c1.514-1.7 2.3-2.752 2.463-4.7.012-.141.141.012 0 0s.012-.141 0 0c-.165 1.818-1.03 3.091-2.463 4.7-.538.579-1.26 1.753-.933 2.109-1.165-.852-1.351-3.047-.364-5.13z" transform="translate(-186.868 -47.699)" style="fill:none;stroke:#aeadad"/>
    <path data-name="Path 108" d="M72.727 335.511a6.152 6.152 0 0 0 4.592-1.763c.058-.044.189 0 .2-.07s.047.046 0-.01.073-.055 0-.06-.144.091-.2.14a6.407 6.407 0 0 1-4.592 1.763 5.128 5.128 0 0 0-2.675 1.01c-.29-1.5 1.194-3.288 3.479-4.1 2.433-.877 4.858-.317 5.412 1.242s-.967 3.523-3.4 4.39c-2.3.821-4.862-.073-5.489-1.537a6.855 6.855 0 0 1 2.675-1.01z" transform="translate(-61.604 -322.124)" style="fill:none;stroke:#aeadad"/>
    <path data-name="Path 109" d="M419.57 263.355c1.424-.508 3.221.884 4.014 3.108.752 2.112.023 4.211-1.242 4.853a3.689 3.689 0 0 1-1.013-2.051 6.219 6.219 0 0 0-1.686-4.427c-.09-.088.1-.08 0 0s-.07-.1 0 0a6.475 6.475 0 0 1 1.686 4.427 5.557 5.557 0 0 0 1.013 2.051c-1.371.248-3.181-.934-3.923-3.015-.784-2.226-.273-4.44 1.151-4.947z" transform="translate(-417.403 -256.474)" style="fill:none;stroke:#aeadad"/>
</svg>
