<svg xmlns="http://www.w3.org/2000/svg" width="45.17" height="42.982" viewBox="0 0 45.17 42.982">
    <path data-name="Path 7" d="M44.464 47.925h-2.893V22.094H30.49a.706.706 0 0 1 0-1.412h12.563a.707.707 0 0 0 .706-.706v-1.27a.759.759 0 0 0-.706-.706H30.772a7.728 7.728 0 0 1-.706.776c-2.54 2.541-5.716 4.094-8.466 4.094a5.324 5.324 0 0 1-3.882-1.482A5.117 5.117 0 0 1 16.3 18H2.117a.759.759 0 0 0-.706.706v1.27a.759.759 0 0 0 .706.706h12.846a.706.706 0 0 1 0 1.412H3.6v25.831H.706a.706.706 0 0 0 0 1.412h43.758a.706.706 0 1 0 0-1.412zm-38.606-18 .706-2.325a.7.7 0 0 1 .706-.5h14.256a.678.678 0 0 1 .635.494l.776 2.329a2.634 2.634 0 0 1-.353 2.4.85.85 0 0 1-.353.353V37.9a1.822 1.822 0 0 1-1.831 1.838H8.469A1.822 1.822 0 0 1 6.634 37.9v-5.22l-.353-.353a2.974 2.974 0 0 1-.423-2.399zm19.409-1.976a2.08 2.08 0 0 1 2.117-2.117h10.658a2.08 2.08 0 0 1 2.117 2.117v19.9h-1.411v-19.9a.707.707 0 0 0-.706-.706H27.384a.759.759 0 0 0-.706.706v19.9h-1.411zm2.823 10.3v-1.27a.707.707 0 0 1 .706-.706.667.667 0 0 1 .706.706v1.27a.706.706 0 1 1-1.412 0z" transform="translate(0 -6.355)" style="fill:#19181c"/>
    <path data-name="Path 8" d="M24.6 16.6c2.329 0 5.223-1.412 7.481-3.67s3.67-5.082 3.67-7.481a3.947 3.947 0 0 0-1.059-2.894A3.947 3.947 0 0 0 31.8 1.5c-2.329 0-5.223 1.412-7.481 3.67a13.03 13.03 0 0 0-3.458 5.858c-.423 1.906-.141 3.458.847 4.446A3.726 3.726 0 0 0 24.6 16.6zm-.353-2.753a9.254 9.254 0 0 0 2.117-1.906 18.61 18.61 0 0 0 2.047-3.458 19.461 19.461 0 0 1 1.764-3.105 11.776 11.776 0 0 1 1.764-1.976.7.7 0 1 1 .918 1.059A12.094 12.094 0 0 0 31.3 6.229a23.308 23.308 0 0 0-1.62 2.893 18.853 18.853 0 0 1-2.259 3.741 11.807 11.807 0 0 1-2.4 2.188 1 1 0 0 1-.423.141.642.642 0 0 1-.565-.282.762.762 0 0 1 .212-1.059zM19.375 27.12h.071a1.138 1.138 0 0 0 .918-.423 1.265 1.265 0 0 0 .282-.988l-.141-1.27-.141-.776H18.1v2.187a1.265 1.265 0 0 0 1.275 1.27zm-7.975 0a1.284 1.284 0 0 0 1.27-1.059l.071-.635.282-1.764h-2.188l-.564 1.838a1.133 1.133 0 0 0 .212 1.129 1.1 1.1 0 0 0 .917.491zm-.423 1.341v4.588a.407.407 0 0 0 .423.423h11.928a.455.455 0 0 0 .423-.423v-4.588c-.141 0-.282.071-.423.071a2.626 2.626 0 0 1-1.976-.918 2.626 2.626 0 0 1-1.976.918H19.3a2.83 2.83 0 0 1-1.976-.847 2.563 2.563 0 0 1-1.976.847h-.071a2.626 2.626 0 0 1-1.976-.918 2.626 2.626 0 0 1-1.976.918 3.057 3.057 0 0 0-.349-.071zm11.222-2.4a1.213 1.213 0 0 0 1.2 1.059 1.235 1.235 0 0 0 .988-.494A1.569 1.569 0 0 0 24.6 25.5l-.565-1.835h-2.19l.212 1.412zm-6.847 1.059h.071a1.265 1.265 0 0 0 1.27-1.27v-2.188h-2.258l-.353 1.976a1.265 1.265 0 0 0 .282.988 1.483 1.483 0 0 0 .988.494z" transform="translate(-3.001 -1.5)" style="fill:#19181c"/>
</svg>
