<svg xmlns="http://www.w3.org/2000/svg" width="18.474" height="14" viewBox="0 0 18.474 14">
    <path data-name="Path 10275" d="M306.892 65.036c-6.059-1.27-4.2-12.851 2.052-13.1.978 7.089-2.687 6.796-2.052 13.1z" transform="translate(-295.197 -51.085)" style="fill:#e2eded;fill-rule:evenodd"/>
    <path data-name="Path 10276" d="M475.206 66.886c-.684-6.059 2.981-6.01 2.052-13.1 6.206 1.177 4.301 13.051-2.052 13.1z" transform="translate(-462.583 -52.886)" style="fill:#e2eded;fill-rule:evenodd"/>
    <path data-name="Path 10277" d="M9.293 164.5c-3.909.147-8.7-3.127-8.014-7.281 4.544.293 5.766 1.857 7.72 3.078a8.754 8.754 0 0 0 .293 4.2z" transform="translate(-1.213 -153.58)" style="fill:#e2eded;fill-rule:evenodd"/>
    <path data-name="Path 10278" d="M23 21.551a8.882 8.882 0 0 0-2.394 3.86c-1.857-1.222-3.225-2.736-7.671-3.029 1.612-3.958 7.281-3.127 10.066-.831z" transform="translate(-12.62 -19.621)" style="fill:#e2eded;fill-rule:evenodd"/>
</svg>
