<svg xmlns="http://www.w3.org/2000/svg" width="62" height="62" viewBox="0 0 62 62">
    <g data-name="Group 284">
        <path data-name="Path 11739" d="M57 34.53V14.92A7 7 0 1 0 49 8H1v40h30.051A15.99 15.99 0 1 0 57 34.53zM56 3a5 5 0 1 1-5 5 5.006 5.006 0 0 1 5-5zM3 10h46.295a7 7 0 0 0 1.105 2.185L44.286 18.3a2.9 2.9 0 0 0-2.571 0L39.7 16.286A2.972 2.972 0 0 0 40 15a3 3 0 1 0-6 0 2.951 2.951 0 0 0 .3 1.285L29.286 21.3A2.972 2.972 0 0 0 28 21a3 3 0 1 0 3 3 2.951 2.951 0 0 0-.3-1.285l5.014-5.015a2.9 2.9 0 0 0 2.571 0l2.015 2.014A2.972 2.972 0 0 0 40 21a3 3 0 1 0 6 0 2.951 2.951 0 0 0-.3-1.285l6.116-6.115A6.957 6.957 0 0 0 55 14.921v18.245a15.9 15.9 0 0 0-20 3.287V32h-6v12h2.292a16.042 16.042 0 0 0-.241 2H3zm40 10a1 1 0 1 1-1 1 1 1 0 0 1 1-1zm-7-5a1 1 0 1 1 1 1 1 1 0 0 1-1-1zm-7 9a1 1 0 1 1-1-1 1 1 0 0 1 1 1zm18 31a8 8 0 1 1 8-8 8.009 8.009 0 0 1-8 8zM33 39.271A15.879 15.879 0 0 0 31.811 42H31v-8h2zm13-6.22v4A9.979 9.979 0 0 0 37.891 51.1l-3.469 2A13.952 13.952 0 0 1 46 33.051zM47 61a13.993 13.993 0 0 1-11.588-6.155l3.488-2.011a9.967 9.967 0 0 0 16.21 0l3.483 2.011A13.993 13.993 0 0 1 47 61zm12.578-7.893-3.469-2A9.979 9.979 0 0 0 48 37.051v-4a13.952 13.952 0 0 1 11.578 20.056z" style="fill:#161515" transform="translate(-1 -1)"/>
        <path data-name="Path 11740" d="M47 41a6 6 0 1 0 6 6 6.006 6.006 0 0 0-6-6zm0 10a4 4 0 1 1 4-4 4 4 0 0 1-4 4z" style="fill:#161515" transform="translate(-1 -1)"/>
        <path data-name="Path 11741" d="M5 12h2v2H5z" style="fill:#161515" transform="translate(-1 -1)"/>
        <path data-name="Path 11742" d="M9 12h14v2H9z" style="fill:#161515" transform="translate(-1 -1)"/>
        <path data-name="Path 11743" d="M5 16h2v2H5z" style="fill:#161515" transform="translate(-1 -1)"/>
        <path data-name="Path 11744" d="M9 16h14v2H9z" style="fill:#161515" transform="translate(-1 -1)"/>
        <path data-name="Path 11745" d="M5 20h2v2H5z" style="fill:#161515" transform="translate(-1 -1)"/>
        <path data-name="Path 11746" d="M9 20h14v2H9z" style="fill:#161515" transform="translate(-1 -1)"/>
        <path data-name="Path 11747" d="M5 24h2v2H5z" style="fill:#161515" transform="translate(-1 -1)"/>
        <path data-name="Path 11748" d="M9 24h14v2H9z" style="fill:#161515" transform="translate(-1 -1)"/>
        <path data-name="Path 11749" d="M5 44h6V34H5zm2-8h2v6H7z" style="fill:#161515" transform="translate(-1 -1)"/>
        <path data-name="Path 11750" d="M13 44h6v-8h-6zm2-6h2v4h-2z" style="fill:#161515" transform="translate(-1 -1)"/>
        <path data-name="Path 11751" d="M21 44h6V28h-6zm2-14h2v12h-2z" style="fill:#161515" transform="translate(-1 -1)"/>
    </g>
</svg>
