<svg xmlns="http://www.w3.org/2000/svg" width="20.539" height="20.54" viewBox="0 0 20.539 20.54">
    <path data-name="Path 11544" d="M19.07 8.013a3.674 3.674 0 0 1-.927-1 3.8 3.8 0 0 1-.069-1.433 3.206 3.206 0 0 0-.542-2.568 3.214 3.214 0 0 0-2.568-.542 3.807 3.807 0 0 1-1.432-.07 3.676 3.676 0 0 1-1-.928A3.252 3.252 0 0 0 10.27 0a3.252 3.252 0 0 0-2.257 1.47 3.684 3.684 0 0 1-1 .927 3.8 3.8 0 0 1-1.433.069 3.207 3.207 0 0 0-2.568.543 3.21 3.21 0 0 0-.543 2.568A3.8 3.8 0 0 1 2.4 7.009a3.674 3.674 0 0 1-.928 1A3.25 3.25 0 0 0 0 10.27a3.25 3.25 0 0 0 1.47 2.258 3.674 3.674 0 0 1 .927 1 3.8 3.8 0 0 1 .069 1.433 3.207 3.207 0 0 0 .542 2.568 3.209 3.209 0 0 0 2.568.542 3.807 3.807 0 0 1 1.433.069 3.676 3.676 0 0 1 1 .927 3.248 3.248 0 0 0 2.258 1.47 3.248 3.248 0 0 0 2.258-1.47 3.684 3.684 0 0 1 1-.927 3.8 3.8 0 0 1 1.433-.069 3.2 3.2 0 0 0 2.568-.543 3.213 3.213 0 0 0 .543-2.568 3.8 3.8 0 0 1 .069-1.433 3.674 3.674 0 0 1 .927-1 3.246 3.246 0 0 0 1.47-2.258 3.244 3.244 0 0 0-1.465-2.256zm-.845 3.549a4.394 4.394 0 0 0-1.268 1.476 4.572 4.572 0 0 0-.164 2c.038.624.082 1.331-.169 1.582s-.958.206-1.582.169a4.58 4.58 0 0 0-2 .164 4.4 4.4 0 0 0-1.476 1.268c-.445.508-.9 1.032-1.293 1.032s-.848-.524-1.291-1.031A4.4 4.4 0 0 0 7.5 16.957a3.151 3.151 0 0 0-1.212-.2c-.263 0-.53.017-.795.033-.625.039-1.331.082-1.582-.169s-.207-.958-.169-1.581a4.575 4.575 0 0 0-.164-2 4.394 4.394 0 0 0-1.268-1.476c-.506-.445-1.03-.9-1.03-1.293s.524-.847 1.031-1.291A4.394 4.394 0 0 0 3.583 7.5a4.572 4.572 0 0 0 .164-2c-.038-.625-.082-1.333.169-1.584s.958-.207 1.582-.169a4.557 4.557 0 0 0 2-.164 4.4 4.4 0 0 0 1.479-1.269c.445-.506.9-1.03 1.293-1.03s.848.524 1.291 1.031a4.4 4.4 0 0 0 1.476 1.268 4.573 4.573 0 0 0 2 .164c.625-.039 1.331-.082 1.582.169s.207.958.169 1.581a4.575 4.575 0 0 0 .164 2 4.394 4.394 0 0 0 1.268 1.476c.508.445 1.032.9 1.032 1.293s-.519.851-1.026 1.296z" style="fill:#c3c3c3"/>
    <path data-name="Path 11545" d="M12.851 10.926a1.926 1.926 0 1 0-1.926 1.926 1.926 1.926 0 0 0 1.926-1.926zm-2.568 0a.642.642 0 1 1 .642.642.642.642 0 0 1-.641-.642z" transform="translate(-3.223 -3.223)" style="fill:#c3c3c3"/>
    <path data-name="Path 11546" d="M18.926 17a1.926 1.926 0 1 0 1.926 1.926A1.926 1.926 0 0 0 18.926 17zm0 2.568a.642.642 0 1 1 .642-.642.642.642 0 0 1-.642.642z" transform="translate(-6.088 -6.088)" style="fill:#c3c3c3"/>
    <path data-name="Path 11547" d="M17.5 10.2a.605.605 0 0 0-.893-.015l-6.417 6.421c-.574.574.321 1.5.908.908l6.418-6.414a.61.61 0 0 0-.016-.9z" transform="translate(-3.583 -3.58)" style="fill:#c3c3c3"/>
</svg>
