<svg xmlns="http://www.w3.org/2000/svg" width="36.246" height="44.996" viewBox="0 0 36.246 44.996">
  <defs>
    <style>
      .cls-1 {
        fill: #c3c3c3;
        fill-rule: evenodd;
      }
    </style>
  </defs>
  <g id="female" transform="translate(-146.718 -28)">
    <path id="Path_11417" data-name="Path 11417" class="cls-1" d="M179.465,302.5h-29.2a3.683,3.683,0,0,1-3.55-2.85c1-11.049,8.749-19.648,18.148-19.648s17.148,8.6,18.1,19.648a3.585,3.585,0,0,1-3.5,2.85" transform="translate(0 -229.5)"/>
    <path id="Path_11418" data-name="Path 11418" class="cls-1" d="M259.479,46.748h-2.1a9.374,9.374,0,0,1,0-18.748c4.95,0,8.649,4.15,9.249,8.749.6,4.55,5.5,3.65,7.2,3.2-3.35,4.25-8.5,6.6-14.349,6.8" transform="translate(-92.313)"/>
  </g>
</svg>
