<svg xmlns="http://www.w3.org/2000/svg" width="18" height="18" viewBox="0 0 18 18">
  <defs>
    <style>
      .cls-1 {
        fill: none;
        stroke: #8eb0b1;
        stroke-linecap: round;
        stroke-linejoin: round;
        stroke-width: 2px;
      }
    </style>
  </defs>
  <path id="Path_10237" data-name="Path 10237" class="cls-1" d="M4,6A2,2,0,0,1,6,4H8a2,2,0,0,1,2,2V8a2,2,0,0,1-2,2H6A2,2,0,0,1,4,8ZM14,6a2,2,0,0,1,2-2h2a2,2,0,0,1,2,2V8a2,2,0,0,1-2,2H16a2,2,0,0,1-2-2ZM4,16a2,2,0,0,1,2-2H8a2,2,0,0,1,2,2v2a2,2,0,0,1-2,2H6a2,2,0,0,1-2-2Zm10,0a2,2,0,0,1,2-2h2a2,2,0,0,1,2,2v2a2,2,0,0,1-2,2H16a2,2,0,0,1-2-2Z" transform="translate(-3 -3)"/>
</svg>
