<svg xmlns="http://www.w3.org/2000/svg" width="18.621" height="18.621" viewBox="0 0 18.621 18.621">
    <path data-name="Path 11664" d="M7 9.76H1.615A1.616 1.616 0 0 0 0 11.374v5.382a1.616 1.616 0 0 0 1.615 1.615H7a1.616 1.616 0 0 0 1.615-1.615v-5.382A1.616 1.616 0 0 0 7 9.76zm.538 7a.539.539 0 0 1-.538.535H1.615a.539.539 0 0 1-.538-.538v-5.383a.539.539 0 0 1 .538-.538H7a.539.539 0 0 1 .538.538zm-2-13.37-1.77 1.769-.7-.7a.538.538 0 0 0-.761.761l1.08 1.08a.538.538 0 0 0 .761 0L6.3 4.148a.538.538 0 1 0-.761-.761zm11.218 6.37h-5.382a1.616 1.616 0 0 0-1.614 1.614v5.382a1.616 1.616 0 0 0 1.615 1.615h5.382a1.616 1.616 0 0 0 1.615-1.615v-5.382a1.616 1.616 0 0 0-1.616-1.614zm.538 7a.539.539 0 0 1-.538.538h-5.382a.539.539 0 0 1-.538-.538v-5.386a.539.539 0 0 1 .538-.538h5.382a.539.539 0 0 1 .538.538zm-2-3.61-1.772 1.772-.7-.7a.538.538 0 0 0-.761.761l1.076 1.076a.538.538 0 0 0 .761 0l2.153-2.153a.538.538 0 1 0-.761-.761zM16.756 0h-5.382A1.616 1.616 0 0 0 9.76 1.615V7a1.616 1.616 0 0 0 1.615 1.615h5.382A1.616 1.616 0 0 0 18.371 7V1.615A1.616 1.616 0 0 0 16.756 0zm.538 7a.539.539 0 0 1-.538.538h-5.382A.539.539 0 0 1 10.836 7V1.615a.539.539 0 0 1 .538-.538h5.382a.539.539 0 0 1 .538.538zM7 0H1.615A1.616 1.616 0 0 0 0 1.615V7a1.616 1.616 0 0 0 1.615 1.611H7A1.616 1.616 0 0 0 8.611 7V1.615A1.616 1.616 0 0 0 7 0zm.538 7A.539.539 0 0 1 7 7.535H1.615A.539.539 0 0 1 1.076 7V1.615a.539.539 0 0 1 .538-.538H7a.539.539 0 0 1 .538.538z" transform="translate(.125 .125)" style="fill:#c3c3c3;stroke:#c3c3c3;stroke-width:.25px"/>
</svg>
