<svg xmlns="http://www.w3.org/2000/svg" width="15.848" height="16.002" viewBox="0 0 15.848 16.002">
    <path d="M-3866.31 4236.515a.68.68 0 0 1-.689-.672v-9.4a.68.68 0 0 1 .689-.671h3.445a.681.681 0 0 1 .69.671v9.4a.681.681 0 0 1-.69.672zm11.026 0a.681.681 0 0 1-.689-.672v-4.7a.68.68 0 0 1 .689-.671h3.445a.68.68 0 0 1 .689.671v4.7a.681.681 0 0 1-.689.672zm-5.513 0a.681.681 0 0 1-.69-.671v-7.388a.681.681 0 0 1 .69-.672h3.445a.68.68 0 0 1 .689.672v7.388a.681.681 0 0 1-.689.671zm7.723-9.262-8.814-3.874.689 1.175a.658.658 0 0 1 .057.512.675.675 0 0 1-.333.4.7.7 0 0 1-.93-.261l-1.688-2.949a.657.657 0 0 1 0-.6.684.684 0 0 1 .483-.41l3.363-.732h.151a.689.689 0 0 1 .761.6.678.678 0 0 1-.617.741l-1.343.3 8.792 3.895a.661.661 0 0 1 .237.837.691.691 0 0 1-.625.389.694.694 0 0 1-.183-.025z" transform="translate(3866.999 -4220.513)" style="fill:#f6f6f6"/>
</svg>
