<svg xmlns="http://www.w3.org/2000/svg" width="19.74" height="14.208" viewBox="0 0 19.74 14.208">
    <path d="M147.66 133.713a.778.778 0 0 1-.778.778 3.11 3.11 0 0 1-1.976-.692 1.556 1.556 0 0 0-2.116 0 3.111 3.111 0 0 1-3.935 0 1.556 1.556 0 0 0-2.116 0 3.158 3.158 0 0 1-3.943 0 1.594 1.594 0 0 0-2.123 0 3.11 3.11 0 0 1-1.976.692.778.778 0 1 1 0-1.556 1.555 1.555 0 0 0 1.065-.4 3.158 3.158 0 0 1 3.943 0 1.6 1.6 0 0 0 2.123 0 3.111 3.111 0 0 1 3.936 0 1.556 1.556 0 0 0 2.116 0 3.111 3.111 0 0 1 3.936 0 1.555 1.555 0 0 0 1.065.4.778.778 0 0 1 .778.778zm-18.96-2.824a3.057 3.057 0 0 0 1.976-.692 1.619 1.619 0 0 1 2.123 0 3.158 3.158 0 0 0 3.943 0 1.61 1.61 0 0 1 2.116 0 3.111 3.111 0 0 0 3.935 0 1.61 1.61 0 0 1 2.116 0 3.112 3.112 0 0 0 1.976.692.778.778 0 1 0 0-1.556 1.555 1.555 0 0 1-1.065-.389 3.111 3.111 0 0 0-3.936 0 1.61 1.61 0 0 1-2.116 0 3.111 3.111 0 0 0-3.936 0 1.619 1.619 0 0 1-2.123 0 3.154 3.154 0 0 0-3.943 0 1.555 1.555 0 0 1-1.065.4.778.778 0 1 0 0 1.556zm8.2-7.833.117-.109v2.4a.778.778 0 1 0 1.556 0v-2.4l.117.109a.781.781 0 1 0 1.1-1.112l-1.439-1.423a.778.778 0 0 0-1.1 0l-1.439 1.423a.778.778 0 0 0 1.1 1.1z" transform="translate(-127.92 -120.291)" style="fill:#242c43"/>
</svg>
