<svg xmlns="http://www.w3.org/2000/svg" width="15.99" height="15.576" viewBox="0 0 15.99 15.576">
    <path data-name="Path 10184" d="m3 10.288 1.62-1.62m0 0L10.288 3l5.669 5.669m-11.337 0v8.1a.81.81 0 0 0 .81.81h2.429m8.1-8.908 1.62 1.62m-1.62-1.62v8.1a.81.81 0 0 1-.81.81h-2.432m-4.859 0a.81.81 0 0 0 .81-.81v-3.244a.81.81 0 0 1 .81-.81H11.1a.81.81 0 0 1 .81.81v3.239a.81.81 0 0 0 .81.81m-4.859 0h4.859" transform="translate(-2.293 -2.5)" style="fill:none;stroke:#000;stroke-linecap:round;stroke-linejoin:round"/>
</svg>
