<svg xmlns="http://www.w3.org/2000/svg" width="38.798" height="40.298" viewBox="0 0 38.798 40.298">
    <path data-name="Path 111" d="M14.1 16.164c4.1 0 7.611-5.258 7.611-9.567a7.615 7.615 0 0 0-15.229 0c.004 4.309 3.518 9.567 7.618 9.567zm4.317 9.788a9.548 9.548 0 0 1 1.566-5.258 10.749 10.749 0 0 0-4.037-.779h-4.1A10.8 10.8 0 0 0 1 30.385v5.177a.738.738 0 0 0 .735.735h24.334a.733.733 0 0 0 .735-.735v-.044a9.676 9.676 0 0 1-8.383-9.567z" transform="translate(.5 2.5)" style="fill:none;stroke:#19181c;stroke-width:3px"/>
    <path data-name="Path 112" d="M34.9 23.8a8.185 8.185 0 1 0 8.2 8.185 8.21 8.21 0 0 0-8.2-8.185zm3.862 6.354-4.935 4.935a.735.735 0 0 1-1.04 0l-1.752-1.752a.735.735 0 1 1 1.04-1.04l1.225 1.232 4.415-4.415a.735.735 0 1 1 1.04 1.04z" transform="translate(-4.298 -4.534)" style="fill:#19181c"/>
</svg>
