<svg xmlns="http://www.w3.org/2000/svg" width="51.446" height="49.264" viewBox="0 0 51.446 49.264">
    <path data-name="Path 115" d="M128.764 184.187a9.018 9.018 0 0 0-16.186-5.02H78.456a1.127 1.127 0 0 0-1.128 1.128v8.68a1.127 1.127 0 0 0 1.128 1.128h34.122a9.019 9.019 0 0 0 16.186-5.915zm-41.287 1.227a.923.923 0 0 1 .323 1.3.972.972 0 0 1-.594.481.877.877 0 0 1-.7-.109l-1.353-.778v1.567a.966.966 0 0 1-1.931 0v-1.567l-1.36.782a.972.972 0 0 1-1.315-.353.947.947 0 0 1-.1-.737.968.968 0 0 1 .447-.586l1.36-.782-1.36-.782a.927.927 0 0 1-.319-1.307.916.916 0 0 1 1.285-.368l1.36.785v-1.567a.966.966 0 0 1 1.931 0v1.567c.477-.278 1.36-.785 1.36-.785a.955.955 0 0 1 1.273.315.911.911 0 0 1 .139.748.926.926 0 0 1-.451.612l-1.352.782zm10.9 0a.935.935 0 0 1 .331 1.3.988.988 0 0 1-.6.481.864.864 0 0 1-.7-.109l-1.356-.778v1.567a.965.965 0 0 1-1.931 0v-1.567l-1.36.782a.962.962 0 0 1-1.409-1.09.953.953 0 0 1 .447-.586l1.356-.782-1.356-.782a.968.968 0 0 1 .966-1.676l1.36.785v-1.567a.965.965 0 1 1 1.931 0v1.567c.477-.278 1.356-.785 1.36-.785a.966.966 0 0 1 .962 1.676l-1.36.782c.477.274 1.341.778 1.36.782zm10.9 0a.935.935 0 0 1 .331 1.3.99.99 0 0 1-.6.481.864.864 0 0 1-.7-.109l-1.356-.778v1.567a.965.965 0 0 1-1.931 0v-1.567l-1.36.782a.962.962 0 0 1-1.413-1.09.953.953 0 0 1 .447-.586l1.356-.782-1.356-.782a.968.968 0 0 1 .965-1.676l1.36.785v-1.567a.965.965 0 0 1 1.931 0v1.567c.477-.278 1.356-.785 1.36-.785a.966.966 0 0 1 .962 1.676l-1.36.782c.477.274 1.341.777 1.36.782zm15.122-2.243-5.243 5.243a1.639 1.639 0 0 1-2.317 0l-2.573-2.573a1.638 1.638 0 1 1 2.317-2.317l1.417 1.415 4.085-4.085a1.638 1.638 0 0 1 2.317 2.317z" transform="translate(-77.329 -160.824)" style="fill:#19181c"/>
    <path data-name="Path 116" d="M100.372 25.735a1.369 1.369 0 0 1 1.37-1.369H124.6a1.369 1.369 0 0 1 1.369 1.369v8.675h3.287V22.174a3.287 3.287 0 0 0-3.287-3.287h-25.6a3.287 3.287 0 0 0-3.287 3.287V34.41h3.287z" transform="translate(-95.222 -18.887)" style="fill:#19181c"/>
    <path data-name="Path 117" d="M125.97 367.814a1.369 1.369 0 0 1-1.369 1.369H101.74a1.369 1.369 0 0 1-1.37-1.369v-8.675h-3.286v13.879a3.287 3.287 0 0 0 3.287 3.287h25.6a3.287 3.287 0 0 0 3.287-3.287V359.14h-3.287zm-10.228 6.153H110.6a1.223 1.223 0 0 1 0-2.446h5.144a1.223 1.223 0 1 1 0 2.446z" transform="translate(-95.22 -327.042)" style="fill:#19181c"/>
</svg>
