<svg xmlns="http://www.w3.org/2000/svg" width="75" height="73.585" viewBox="0 0 75 73.585">
    <g data-name="Group 79" transform="translate(43.715 -1.749)">
        <circle data-name="Ellipse 15" cx="15" cy="15" r="15" transform="translate(1.285 1.749)" style="fill:#19181c"/>
        <text transform="translate(14.285 21.749)" style="fill:#fff;font-size:14px;font-family:Almarai-Bold,Almarai;font-weight:700"><tspan x="0" y="0">أ</tspan></text>
    </g>
    <g data-name="Group 83" transform="translate(-1.356 -1.663)">
        <circle data-name="Ellipse 16" cx="15" cy="15" r="15" transform="translate(1.356 1.664)" style="fill:#19181c"/>
        <text transform="translate(9.356 20.664)" style="fill:#fff;font-size:14px;font-family:Almarai-Bold,Almarai;font-weight:700"><tspan x="0" y="0">ب</tspan></text>
    </g>
    <g data-name="Group 85">
        <path data-name="Path 130" d="M180.3 191.514h-.009l-19.653-.064a1.7 1.7 0 0 1-1.675-1.458l-1.857-13.06-2.125-2.27-12.381-1.545a1.7 1.7 0 0 1-1.484-1.784l.33-5.63a1.7 1.7 0 0 1 1.5-1.586l13.628-1.6-.274-25.117a1.69 1.69 0 0 1 .045-.409 4.986 4.986 0 0 1 .4-1.092 5.157 5.157 0 0 1 .3-.521 5.364 5.364 0 0 1 4.537-2.412 5.8 5.8 0 0 1 1.037.094l.066.012.143.027a3.71 3.71 0 0 1 2.34 1.168c1.35 1.635 1.581 4.448 1.7 7.19.012.266.022.508.035.715v.063l.233 10.019 13.907 1.195a1.7 1.7 0 0 1 1.552 1.65l.434 18.029a1.678 1.678 0 0 1-.02.306l-1.136 7.179.121 9.074v.131a1.7 1.7 0 0 1-1.694 1.696zm-18.183-3.454 16.459.054-.1-7.6a1.687 1.687 0 0 1 .021-.288l1.135-7.17-.393-16.355-13.911-1.201a1.7 1.7 0 0 1-1.552-1.652l-.268-11.51a47.416 47.416 0 0 1-.036-.738c-.054-1.239-.18-4.084-.855-5.081-.109-.032-.288-.065-.416-.089l-.112-.021a1.676 1.676 0 0 1-.112-.02 2.39 2.39 0 0 0-.406-.035 1.983 1.983 0 0 0-1.689.864 1.85 1.85 0 0 0-.106.188 1.677 1.677 0 0 0-.083.195l.289 26.4a1.7 1.7 0 0 1-1.5 1.7l-13.73 1.613-.154 2.623 11.408 1.423a1.7 1.7 0 0 1 1.029.524l2.911 3.11a1.7 1.7 0 0 1 .441.921z" transform="translate(-122.793 -117.929)" style="fill:#19181c"/>
    </g>
</svg>
