<svg xmlns="http://www.w3.org/2000/svg" width="19.321" height="20.09" viewBox="0 0 19.321 20.09">
    <path data-name="Path 10211" d="M213.772 367.271h-.572s-.418-1.409-1.134-1.409h-12a1.429 1.429 0 0 0-1.471 1.152c-.01.063-.084.058-.084.123v1.3a7.53 7.53 0 0 0 13.956 3.873h1.574c1.444 0 2.291-1.509 2.291-2.953-.004-1.402-2.56-2.086-2.56-2.086zm.077 4.417h-1.1a9.952 9.952 0 0 0 .539-3.252v-.385s.472-.052.691-.069.143 0 .184 0a1.929 1.929 0 0 1 1.793 1.679 2.443 2.443 0 0 1-2.106 2.027z" transform="translate(-197.757 -356.574)" style="fill:none;stroke:#242c43;stroke-width:1.5px"/>
    <path data-name="Path 10216" d="M302.816 295.18a.393.393 0 0 0-.4.376v.734a.4.4 0 0 0 .791 0v-.734a.393.393 0 0 0-.391-.376z" transform="translate(-295.892 -289.824)" style="fill:#242c43"/>
    <path data-name="Path 10219" d="M356.44 295.18a.422.422 0 0 0-.426.376v.734a.429.429 0 0 0 .852 0v-.734a.422.422 0 0 0-.426-.376z" transform="translate(-346.504 -289.824)" style="fill:#242c43"/>
    <path data-name="Path 10220" d="M388.1 268.37a.367.367 0 0 0-.365.376v2.225a.365.365 0 1 0 .73 0v-2.225a.367.367 0 0 0-.365-.376z" transform="translate(-376.464 -264.505)" style="fill:#242c43"/>
    <path data-name="Path 10221" d="M272.89 268.747v2.225a.337.337 0 1 0 .669 0v-2.225a.337.337 0 1 0-.669 0z" transform="translate(-268.003 -264.506)" style="fill:#242c43"/>
    <path data-name="Path 10222" d="M450.507 238.777a1.228 1.228 0 0 1 .829.829.214.214 0 0 0 .4 0 1.228 1.228 0 0 1 .829-.829.214.214 0 0 0 0-.4 1.228 1.228 0 0 1-.829-.829.214.214 0 0 0-.4 0 1.228 1.228 0 0 1-.829.829.214.214 0 0 0 0 .4z" transform="translate(-436.417 -234.38)" style="fill:#242c43"/>
    <path data-name="Path 10223" d="M177.128 143.717a.214.214 0 0 0 0-.4 1.228 1.228 0 0 1-.829-.829.214.214 0 0 0-.4 0 1.228 1.228 0 0 1-.829.829.214.214 0 0 0 0 .4 1.227 1.227 0 0 1 .829.829.214.214 0 0 0 .4 0 1.227 1.227 0 0 1 .829-.829z" transform="translate(-167.76 -142.343)" style="fill:#242c43"/>
    <path data-name="Path 10224" d="M177.128 143.717a.214.214 0 0 0 0-.4 1.228 1.228 0 0 1-.829-.829.214.214 0 0 0-.4 0 1.228 1.228 0 0 1-.829.829.214.214 0 0 0 0 .4 1.227 1.227 0 0 1 .829.829.214.214 0 0 0 .4 0 1.227 1.227 0 0 1 .829-.829z" transform="translate(-174.328 -139.321)" style="fill:#242c43"/>
    <path data-name="Path 10225" d="m2314.469 3520.028 3.681 3.648 4.361.623 4.587-2.152 1.189-2.119z" transform="translate(-2313.291 -3505.076)" style="fill:#242c43"/>
</svg>
