<svg xmlns="http://www.w3.org/2000/svg" width="15.758" height="15.758" viewBox="0 0 15.758 15.758">
    <path data-name="Path 51" d="M10.833 0H4.924A4.925 4.925 0 0 0 0 4.924v5.909a4.925 4.925 0 0 0 4.924 4.924h5.909a4.925 4.925 0 0 0 4.924-4.924V4.924A4.925 4.925 0 0 0 10.833 0zm3.447 10.833a3.451 3.451 0 0 1-3.447 3.447H4.924a3.451 3.451 0 0 1-3.447-3.447V4.924a3.451 3.451 0 0 1 3.447-3.447h5.909a3.451 3.451 0 0 1 3.447 3.447z" style="fill:#e2eded"/>
    <circle data-name="Ellipse 9" cx=".6" cy=".6" r=".6" transform="translate(11.693 3.147)" style="fill:#e2eded"/>
    <path data-name="Path 52" d="M131.439 128a3.439 3.439 0 1 0 3.439 3.439 3.44 3.44 0 0 0-3.439-3.439zm0 5.589a2.15 2.15 0 1 1 2.15-2.15 2.153 2.153 0 0 1-2.15 2.15z" transform="translate(-123.561 -123.561)" style="fill:#e2eded"/>
</svg>
