<svg xmlns="http://www.w3.org/2000/svg" width="15.967" height="20.516" viewBox="0 0 15.967 20.516">
    <path data-name="Path 10231" d="M167.333 33.6a7.772 7.772 0 0 0-7.733 7.8 7.161 7.161 0 0 0 2.819 5.806 14.567 14.567 0 0 1 4.49 6.123.455.455 0 0 0 .85 0 14.565 14.565 0 0 1 4.49-6.123 7.161 7.161 0 0 0 2.819-5.806 7.771 7.771 0 0 0-7.733-7.794zm0 .91a6.847 6.847 0 0 1 6.823 6.885c0 2.7-1.044 3.759-2.528 5.139a16.117 16.117 0 0 0-4.3 5.454 16.11 16.11 0 0 0-4.3-5.454c-1.485-1.38-2.528-2.44-2.528-5.139a6.848 6.848 0 0 1 6.823-6.885z" transform="translate(-159.35 -33.352)" style="fill:#242c43;stroke:#242c43;stroke-width:.5px;fill-rule:evenodd"/>
    <path data-name="Path 10232" d="M285.53 160.95a2.729 2.729 0 1 0 2.729 2.729 2.736 2.736 0 0 0-2.729-2.729zm0 .91a1.82 1.82 0 1 1-1.82 1.82 1.811 1.811 0 0 1 1.82-1.82z" transform="translate(-277.547 -155.528)" style="fill:#242c43;stroke:#242c43;stroke-width:.5px;fill-rule:evenodd"/>
</svg>
