<svg xmlns="http://www.w3.org/2000/svg" width="70.793" height="101.432" viewBox="0 0 70.793 101.432">
    <path data-name="Union 3" d="M15.962 94.207c-20.835-19.372-21.493-51.634-.678-71.122q1.645-1.544 3.4-2.944v.007c-3.091 9.065-6.166 19.109-2.636 28 2.372 5.969 7.38 10.373 12.493 14.143s10.59 7.218 14.608 12.176S49.514 86.4 47.2 92.379c-2.535 6.551-7.779 9.053-13.487 9.053a27.819 27.819 0 0 1-17.751-7.225zm33.087-12.523a47.4 47.4 0 0 0-.129-6.478c-.536-4.29-4.851-8.734-8.125-11.09C34.81 59.809 27.99 56.3 23.676 50.262c-6.36-8.889-5.561-21.81.343-31.016C30.839 8.611 41.971 4.272 53.488 1.171 54.076 1.01 57.545.5 57.77 0l-5.7 12.7 8.92 17.044-1.175 11.231 10.978 30.793-4.472 9.916z" style="fill:#242c43"/>
</svg>
