<svg xmlns="http://www.w3.org/2000/svg" width="61.933" height="56.789" viewBox="0 0 61.933 56.789">
    <path data-name="Path 11439" d="M137.137 96.738a31.726 31.726 0 0 1 .155-32.058 28.815 28.815 0 1 0 27.684 47.944 31.652 31.652 0 0 1-27.839-15.885z" style="fill:#c3c3c3" transform="translate(-115.39 -64.68)"/>
    <path data-name="Path 11440" d="m421.279 94.714-1-2.032-1 2.032a2.955 2.955 0 0 1-2.217 1.618l-2.217.325 1.625 1.574a2.956 2.956 0 0 1 .85 2.615l-.384 2.217 2-1.049a2.958 2.958 0 0 1 2.748 0l2 1.049-.384-2.217a2.955 2.955 0 0 1 .849-2.615l1.625-1.574-2.217-.325a2.955 2.955 0 0 1-2.291-1.618z" transform="translate(-375.342 -88.988)" style="fill:#c3c3c3"/>
    <path data-name="Path 11441" d="M404.441 279.916a2.217 2.217 0 1 1-2.217-2.217 2.217 2.217 0 0 1 2.217 2.217" transform="translate(-362.457 -249.594)" style="fill:#c3c3c3"/>
    <path data-name="Path 11442" d="M515.273 208.594h-2.217v-2.217a1.478 1.478 0 1 0-2.956 0v2.217h-2.216a1.478 1.478 0 1 0 0 2.956h2.216v2.217a1.478 1.478 0 0 0 2.956 0v-2.217h2.217a1.478 1.478 0 0 0 0-2.956z" transform="translate(-454.818 -186.4)" style="fill:#c3c3c3"/>
</svg>
