<svg xmlns="http://www.w3.org/2000/svg" width="77.849" height="77.849" viewBox="0 0 77.849 77.849">
    <path data-name="Path 11421" d="M283.62 84.257a1.456 1.456 0 0 0-1.456-1.456h-.044a1.455 1.455 0 0 0-1.456 1.456v10.008a1.456 1.456 0 0 0 1.456 1.456h.044a1.456 1.456 0 0 0 1.456-1.456z" transform="translate(-243.218 -82.801)" style="fill:#c3c3c3;fill-rule:evenodd"/>
    <path data-name="Path 11422" d="M388.659 140.834a1.457 1.457 0 0 0 0-2.06l-.032-.031a1.456 1.456 0 0 0-2.059 0l-7.077 7.077a1.456 1.456 0 0 0 0 2.06l.032.031a1.456 1.456 0 0 0 2.059 0l7.077-7.077z" transform="translate(-322.196 -127.359)" style="fill:#c3c3c3;fill-rule:evenodd"/>
    <path data-name="Path 11423" d="M283.62 413.2a1.456 1.456 0 0 0-1.456-1.456h-.044a1.456 1.456 0 0 0-1.456 1.456v10.008a1.456 1.456 0 0 0 1.456 1.456h.044a1.456 1.456 0 0 0 1.456-1.456z" transform="translate(-243.218 -346.817)" style="fill:#c3c3c3;fill-rule:evenodd"/>
    <path data-name="Path 11424" d="M156.059 373.435a1.457 1.457 0 0 0 0-2.059l-.032-.031a1.455 1.455 0 0 0-2.059 0l-7.077 7.077a1.456 1.456 0 0 0 0 2.06l.032.031a1.456 1.456 0 0 0 2.06 0l7.077-7.077z" transform="translate(-135.508 -314.048)" style="fill:#c3c3c3;fill-rule:evenodd"/>
    <path data-name="Path 11425" d="M431.363 275.47a1.456 1.456 0 0 0 1.456-1.456v-.044a1.456 1.456 0 0 0-1.456-1.456h-10.008a1.456 1.456 0 0 0-1.456 1.456v.044a1.456 1.456 0 0 0 1.456 1.456z" transform="translate(-354.97 -235.067)" style="fill:#c3c3c3;fill-rule:evenodd"/>
    <path data-name="Path 11426" d="M386.568 380.506a1.455 1.455 0 0 0 2.059 0l.032-.032a1.456 1.456 0 0 0 0-2.059l-7.077-7.077a1.456 1.456 0 0 0-2.059 0l-.032.032a1.457 1.457 0 0 0 0 2.059l7.077 7.077z" transform="translate(-322.196 -314.043)" style="fill:#c3c3c3;fill-rule:evenodd"/>
    <path data-name="Path 11427" d="M92.408 272.51a1.455 1.455 0 0 0-1.455 1.456v.044a1.455 1.455 0 0 0 1.455 1.456h10.009a1.456 1.456 0 0 0 1.456-1.456v-.044a1.456 1.456 0 0 0-1.456-1.456z" transform="translate(-90.953 -235.064)" style="fill:#c3c3c3;fill-rule:evenodd"/>
    <path data-name="Path 11428" d="M148.987 138.747a1.456 1.456 0 0 0-2.059 0l-.032.032a1.456 1.456 0 0 0 0 2.059l7.077 7.077a1.456 1.456 0 0 0 2.06 0l.032-.032a1.456 1.456 0 0 0 0-2.06l-7.077-7.077z" transform="translate(-135.512 -127.362)" style="fill:#c3c3c3;fill-rule:evenodd"/>
    <path data-name="Path 11432" d="M222.712 193.221a21.341 21.341 0 1 1-21.341-21.341 21.341 21.341 0 0 1 21.341 21.341" transform="translate(-162.448 -154.297)" style="fill:#c3c3c3;fill-rule:evenodd"/>
</svg>
