<svg xmlns="http://www.w3.org/2000/svg" width="23.277" height="23.527" viewBox="0 0 23.277 23.527">
    <g transform="translate(0 .473)">
        <path data-name="Path 11553" d="M23.055 5.016A5.015 5.015 0 0 0 13.91 2.17H5.016A5.013 5.013 0 0 0 0 7.187v10.852a5.013 5.013 0 0 0 5.016 5.016h10.852a5.013 5.013 0 0 0 5.016-5.016V9.145a5.014 5.014 0 0 0 2.171-4.129zm-5.016-3.665a3.665 3.665 0 1 1-3.665 3.665 3.669 3.669 0 0 1 3.665-3.665zm1.495 16.688a3.663 3.663 0 0 1-3.666 3.661H5.016a3.663 3.663 0 0 1-3.665-3.665V7.187a3.663 3.663 0 0 1 3.665-3.666h8.234A5.017 5.017 0 0 0 19.533 9.8v8.234z" style="fill:rgba(25,24,28,.9)"/>
        <circle data-name="Ellipse 28" cx="5.25" cy="5.25" r="5.25" transform="translate(12.777 -.473)" style="fill:#df0505"/>
    </g>
</svg>
