<svg xmlns="http://www.w3.org/2000/svg" width="20.629" height="22.527" viewBox="0 0 20.629 22.527">
  <defs>
    <style>
      .cls-1 {
        fill: none;
        stroke: #242c43;
        stroke-width: 2px;
      }
    </style>
  </defs>
  <g id="notification" transform="translate(-119.698 -32.603)">
    <path id="Path_10495" data-name="Path 10495" class="cls-1" d="M163.917,46.014V42.672a6.945,6.945,0,0,0-5.084-6.683,1.746,1.746,0,0,0-.048-1.1,1.9,1.9,0,0,0-3.7.621,1.537,1.537,0,0,0,.072.477,6.945,6.945,0,0,0-5.084,6.683v3.342c0,.931-1.253.537-1.671,1.671s-1.432,2.148,0,2.864,5.729,0,5.729,0v.621a2.931,2.931,0,0,0,2.816,2.96,2.868,2.868,0,0,0,2.912-2.864,2.465,2.465,0,0,0-.1-.716s4.368.716,5.824,0,.418-1.73,0-2.864-1.671-.74-1.671-1.671Z" transform="translate(-27.012 0.001)"/>
  </g>
</svg>
