<svg xmlns="http://www.w3.org/2000/svg" width="23.24" height="15.906" viewBox="0 0 23.24 15.906">
    <path data-name="Path 11671" d="M174.126 85.333a3.6 3.6 0 1 0 3.46 3.595 3.533 3.533 0 0 0-3.46-3.595zm0 6.162a2.569 2.569 0 1 1 2.472-2.568 2.525 2.525 0 0 1-2.472 2.573z" transform="translate(-162.507 -85.083)" style="fill:#707070;stroke:#707070;stroke-width:.5px"/>
    <path data-name="Path 11672" d="M343.806 170.667a2.569 2.569 0 1 0 2.472 2.568 2.525 2.525 0 0 0-2.472-2.568zm0 4.108a1.542 1.542 0 1 1 1.483-1.541 1.514 1.514 0 0 1-1.483 1.541z" transform="translate(-325.265 -166.309)" style="fill:#707070;stroke:#707070;stroke-width:.5px"/>
    <path data-name="Path 11673" d="M46.654 170.667a2.569 2.569 0 1 0 2.472 2.568 2.524 2.524 0 0 0-2.472-2.568zm0 4.108a1.542 1.542 0 1 1 1.483-1.541 1.514 1.514 0 0 1-1.483 1.541z" transform="translate(-41.885 -166.309)" style="fill:#707070;stroke:#707070;stroke-width:.5px"/>
    <path data-name="Path 11674" d="M113.092 256a6.562 6.562 0 0 0-6.426 6.676.495.495 0 1 0 .989 0 5.442 5.442 0 1 1 10.875 0 .495.495 0 1 0 .989 0 6.562 6.562 0 0 0-6.427-6.676z" transform="translate(-101.473 -247.534)" style="fill:#707070;stroke:#707070;stroke-width:.5px"/>
    <path data-name="Path 11675" d="M342.355 298.667a4.325 4.325 0 0 0-2.3.668.527.527 0 0 0-.166.706.485.485 0 0 0 .679.173 3.351 3.351 0 0 1 1.791-.519 3.533 3.533 0 0 1 3.46 3.595.495.495 0 1 0 .989 0 4.543 4.543 0 0 0-4.453-4.623z" transform="translate(-323.814 -288.147)" style="fill:#707070;stroke:#707070;stroke-width:.5px"/>
    <path data-name="Path 11676" d="M6.753 299.333a4.327 4.327 0 0 0-2.3-.667A4.543 4.543 0 0 0 0 303.289a.5.5 0 0 0 .494.514.5.5 0 0 0 .494-.514 3.533 3.533 0 0 1 3.46-3.595 3.354 3.354 0 0 1 1.79.518.485.485 0 0 0 .679-.173.525.525 0 0 0-.164-.706z" transform="translate(.25 -288.147)" style="fill:#707070;stroke:#707070;stroke-width:.5px"/>
</svg>
