<svg xmlns="http://www.w3.org/2000/svg" width="15.367" height="21.58" viewBox="0 0 15.367 21.58">
    <path data-name="Path 11548" d="M48.056 191.959a2.76 2.76 0 0 0-4.731 0 5.493 5.493 0 0 0 0 6.045 2.76 2.76 0 0 0 4.731 0 5.493 5.493 0 0 0 0-6.045zm-3.926 5.465a4.508 4.508 0 0 1 0-4.888 1.978 1.978 0 0 1 1.528-.924 1.777 1.777 0 0 1-.347.521 2.266 2.266 0 0 0 0 3.165 1.287 1.287 0 0 1 0 1.892 2.609 2.609 0 0 0-.535.871 2.507 2.507 0 0 1-.646-.637zm3.122 0a1.975 1.975 0 0 1-1.528.925 1.771 1.771 0 0 1 .347-.522 2.266 2.266 0 0 0 0-3.165 1.289 1.289 0 0 1 0-1.892 2.6 2.6 0 0 0 .535-.87 2.5 2.5 0 0 1 .644.636 4.512 4.512 0 0 1 0 4.888zm0 0" transform="translate(-40.17 -181.598)" style="fill:#c3c3c3"/>
    <path data-name="Path 11549" d="M14.346 4.892 13.2 2.909V1.351A1.385 1.385 0 0 0 11.786 0h-8.04a1.385 1.385 0 0 0-1.414 1.351v1.558L1.186 4.892A7.263 7.263 0 0 0 .208 8.52v11.24a1.61 1.61 0 0 0 1.643 1.57h11.83a1.611 1.611 0 0 0 1.644-1.571V8.52a7.264 7.264 0 0 0-.979-3.628zm-5-3.945h2.444a.414.414 0 0 1 .423.4v1.211H9.342zM7.111 3.268a.452.452 0 0 0 .067-.237V.947h1.17V2.9L7.5 4.309H6.484zM3.323 1.351a.414.414 0 0 1 .423-.4H6.19v1.61H3.323zM1.2 19.759V8.52a6.347 6.347 0 0 1 .855-3.17L3.12 3.505h2.706l-.631 1.042a.456.456 0 0 0 0 .474.5.5 0 0 0 .429.237h2.16a.5.5 0 0 0 .429-.237l.919-1.516h2.733l-.8 1.386a7.263 7.263 0 0 0-.979 3.628v11.865H1.851a.639.639 0 0 1-.653-.624zm13.135 0a.639.639 0 0 1-.652.623h-.976a2.208 2.208 0 0 0-.5 0c-.274 0-.654-.006-.5 0h-.638V8.52a6.348 6.348 0 0 1 .855-3.17l.776-1.339.774 1.338a6.346 6.346 0 0 1 .855 3.17zm0 0" transform="translate(-.083 .125)" style="stroke:#c3c3c3;stroke-width:.25px;fill:#c3c3c3"/>
</svg>
