<svg xmlns="http://www.w3.org/2000/svg" xmlns:xlink="http://www.w3.org/1999/xlink" width="109" height="156" viewBox="0 0 109 156">
  <defs>
    <style>
      .cls-1 {
        fill: #fff;
        stroke: #c3c3c3;
      }

      .cls-2 {
        clip-path: url(#clip-path);
      }

      .cls-3 {
        opacity: 0.02;
      }
    </style>
    <clipPath id="clip-path">
      <rect id="Rectangle_51" data-name="Rectangle 51" class="cls-1" width="109" height="156" transform="translate(-0.325 0.152)"/>
    </clipPath>
  </defs>
  <g id="roasters-bg-draw" class="cls-2" transform="translate(0.325 -0.152)">
    <g id="icon" class="cls-3" transform="translate(-16.017 19.576)">
      <path id="Path_26" data-name="Path 26" d="M118.123,112.127,97.907,91.911v-6a2.322,2.322,0,0,0-2.322-2.322H93.133a41.7,41.7,0,0,0-13.8-59.408l8.6-8.591a2.248,2.248,0,0,0,.685-1.655V2.322A2.322,2.322,0,0,0,86.3,0H30.574a2.322,2.322,0,0,0-2.322,2.322V13.931a2.519,2.519,0,0,0,.683,1.644l8.6,8.6a41.7,41.7,0,0,0-13.8,59.408H21.287a2.322,2.322,0,0,0-2.322,2.322v27.218l-6.633,11.056a2.375,2.375,0,0,0-.332,1.2v20.9a2.322,2.322,0,0,0,2.322,2.322H102.55a2.322,2.322,0,0,0,2.322-2.322V127.7h11.609a2.322,2.322,0,0,0,2.322-2.322V113.768a2.322,2.322,0,0,0-.68-1.641ZM95.585,60.367a36.991,36.991,0,0,1-8.212,23.218H77.01V44.114a2.322,2.322,0,0,0-2.322-2.322H70.045V33.466L75.912,27.6A37.381,37.381,0,0,1,95.585,60.367ZM44.505,83.585V76.619H72.367v6.965ZM50.79,30.864,36.179,16.253H80.693L66.082,30.864a2.322,2.322,0,0,0-.68,1.642v9.287H51.471V32.505a2.322,2.322,0,0,0-.68-1.641ZM72.367,46.436V60.367H67.723a2.322,2.322,0,0,0,0,4.644h4.644v6.965H44.505V65.01H56.114a2.322,2.322,0,0,0,0-4.644H44.505V46.436ZM83.976,4.644v6.965H32.9V4.644ZM21.287,60.367A37.381,37.381,0,0,1,40.96,27.6l5.867,5.867v8.326H42.183a2.322,2.322,0,0,0-2.322,2.322V55.377a8.043,8.043,0,0,0-3.483-.815,8.126,8.126,0,0,0-8.126,8.126,2.322,2.322,0,0,0,4.644,0,3.483,3.483,0,1,1,6.965,0v20.9H29.5a36.991,36.991,0,0,1-8.212-23.218Zm2.322,27.862H93.263v23.218H51.471a2.322,2.322,0,1,0,0,4.644h42.8l4.179,6.965H18.422L22.6,116.09H32.9a2.322,2.322,0,1,0,0-4.644H23.609Zm-6.965,55.723V127.7h83.585v16.253Zm97.516-20.9H103.864l-5.958-9.93V98.477l16.253,16.253Z" transform="translate(-12)"/>
      <circle id="Ellipse_5" data-name="Ellipse 5" cx="3.559" cy="3.559" r="3.559" transform="translate(69.418 51.163)"/>
      <circle id="Ellipse_6" data-name="Ellipse 6" cx="3.559" cy="3.559" r="3.559" transform="translate(69.418 62.73)"/>
      <ellipse id="Ellipse_7" data-name="Ellipse 7" cx="2.669" cy="2.225" rx="2.669" ry="2.225" transform="translate(27.597 111.67)"/>
    </g>
  </g>
</svg>
