<svg xmlns="http://www.w3.org/2000/svg" width="23.676" height="18.577" viewBox="0 0 23.676 18.577">
    <path data-name="Path 11558" d="M104.393 83.8a.958.958 0 0 0-1.355 1.355l1.108 1.108h-3.2a2.309 2.309 0 0 1-1.749-.813l-3.177-3.67 3.153-3.67a2.309 2.309 0 0 1 1.749-.813h3.2l-1.108 1.108a.967.967 0 0 0 0 1.355.93.93 0 0 0 .665.271 1 1 0 0 0 .665-.271l2.734-2.734a.967.967 0 0 0 0-1.355l-2.685-2.734a.958.958 0 0 0-1.355 1.355l1.108 1.108h-3.2a4.236 4.236 0 0 0-3.2 1.478L94.763 80.3l-2.98-3.448a4.236 4.236 0 0 0-3.2-1.478h-3.624a.962.962 0 0 0-.961.961.946.946 0 0 0 .961.961h3.621a2.309 2.309 0 0 1 1.749.813l3.177 3.67-3.177 3.67a2.309 2.309 0 0 1-1.749.813h-3.621a.961.961 0 0 0 0 1.921h3.621a4.236 4.236 0 0 0 3.2-1.478l2.98-3.448 2.98 3.448a4.236 4.236 0 0 0 3.2 1.478h3.2l-1.108 1.108a.967.967 0 0 0 0 1.355.93.93 0 0 0 .665.271.951.951 0 0 0 .665-.271l2.734-2.734a.952.952 0 0 0 0-1.33z" transform="translate(-83.874 -72.468)" style="stroke:#000;stroke-width:.25px"/>
</svg>
