<svg xmlns="http://www.w3.org/2000/svg" width="55.967" height="52.048" viewBox="0 0 55.967 52.048">
    <path data-name="Path 11443" d="M3.068 0h6.705v31.371h-6.7A3.069 3.069 0 0 1 0 28.3V3.068A3.069 3.069 0 0 1 3.068 0z" transform="rotate(90 16.483 16.483)" style="fill:#c3c3c3"/>
    <path data-name="Path 11444" d="M34.326 21.407H15.909l1.147-18.725a2.658 2.658 0 0 0-4.97-1.333L.466 20.586A3.52 3.52 0 0 0 0 22.349v30.093a3.525 3.525 0 0 0 3.525 3.525h21.3a8.188 8.188 0 0 0 7.806-5.7l5.6-15.975a15.554 15.554 0 0 0 .886-5.119v-2.6a4.83 4.83 0 0 0-4.784-5.166z" transform="rotate(90 21.521 34.446)" style="fill:#c3c3c3"/>
</svg>
