<svg xmlns="http://www.w3.org/2000/svg" width="78.571" height="50.072" viewBox="0 0 78.571 50.072">
    <path data-name="Path 11433" d="M346.406 100.863h.006a1.661 1.661 0 0 0 1.655-1.667l-.04-10.107a1.662 1.662 0 0 0-1.661-1.655h-.007a1.66 1.66 0 0 0-1.653 1.668l.04 10.107a1.66 1.66 0 0 0 1.661 1.653z" transform="translate(-306.6 -87.434)" style="fill:#c3c3c3"/>
    <path data-name="Path 11434" d="M197 160.306a1.661 1.661 0 1 0 2.38-2.316l-7.051-7.243a1.661 1.661 0 0 0-2.379 2.318z" transform="translate(-177.864 -139.524)" style="fill:#c3c3c3"/>
    <path data-name="Path 11435" d="M503.146 318.175a1.661 1.661 0 0 0 1.609 1.712l10.1.311h.053a1.661 1.661 0 0 0 .051-3.322l-10.1-.311a1.643 1.643 0 0 0-1.711 1.609z" transform="translate(-437.997 -277.456)" style="fill:#c3c3c3"/>
    <path data-name="Path 11436" d="m123.063 306.565 10.1.311h.053a1.661 1.661 0 0 0 .049-3.322l-10.1-.311a1.639 1.639 0 0 0-1.712 1.609 1.664 1.664 0 0 0 1.61 1.712z" transform="translate(-121.452 -266.408)" style="fill:#c3c3c3"/>
    <path data-name="Path 11437" d="M464.3 175.331a1.65 1.65 0 0 0 1.115-.431l7.483-6.794a1.66 1.66 0 0 0-2.233-2.458l-7.484 6.794a1.661 1.661 0 0 0 1.118 2.89z" transform="translate(-404.4 -151.939)" style="fill:#c3c3c3"/>
    <path data-name="Path 11438" d="M198.368 229.842h-18.253a20.106 20.106 0 1 0-37.725 0h-19.27a1.661 1.661 0 0 0 0 3.322h75.248a1.661 1.661 0 1 0 0-3.322z" transform="translate(-121.459 -183.091)" style="fill:#c3c3c3"/>
</svg>
