<svg xmlns="http://www.w3.org/2000/svg" width="18.764" height="15.405" viewBox="0 0 18.764 15.405">
    <path data-name="Path 11595" d="M.4 15.954a11 11 0 0 0 5.908 1.7A10.8 10.8 0 0 0 17.269 6.671a4.487 4.487 0 0 0 1.62-3.038.593.593 0 0 0-.889-.511 2.451 2.451 0 0 1-2 .334 4.232 4.232 0 0 0-5.012-.675A4.071 4.071 0 0 0 8.781 6.6a9.818 9.818 0 0 1-6.369-3.481.593.593 0 0 0-.969.079 4.129 4.129 0 0 0-.092 4.078.617.617 0 0 0-.515.614 4.179 4.179 0 0 0 1.456 3.156.592.592 0 0 0-.152.614 4.253 4.253 0 0 0 2.407 2.579 6.9 6.9 0 0 1-3.757.627.593.593 0 0 0-.39 1.088zm6.07-1.512a.593.593 0 0 0-.348-1.062 3.091 3.091 0 0 1-2.427-1.262 4.179 4.179 0 0 0 .809-.13.593.593 0 0 0-.038-1.153 3.041 3.041 0 0 1-2.3-2.07 4.089 4.089 0 0 0 .9.12A.593.593 0 0 0 3.4 7.8a2.944 2.944 0 0 1-1.259-3.216 11.016 11.016 0 0 0 7.3 3.257.591.591 0 0 0 .606-.724 2.891 2.891 0 0 1 1.509-3.292 3.029 3.029 0 0 1 3.7.563 2.987 2.987 0 0 0 2.151.245 3.819 3.819 0 0 1-1.08 1.267.592.592 0 0 0-.252.514 9.634 9.634 0 0 1-2.653 7.086 9.7 9.7 0 0 1-7.113 2.97 9.95 9.95 0 0 1-3.193-.523 8 8 0 0 0 3.354-1.505z" transform="translate(-.124 -2.252)" style="fill:#aeadad"/>
</svg>
