<svg xmlns="http://www.w3.org/2000/svg" xmlns:xlink="http://www.w3.org/1999/xlink" width="163" height="145" viewBox="0 0 163 145">
  <defs>
    <style>
      .cls-1 {
        fill: #fff;
        stroke: #c3c3c3;
      }

      .cls-2 {
        clip-path: url(#clip-path);
      }

      .cls-3 {
        opacity: 0.02;
      }

      .cls-4 {
        stroke: #000;
      }
    </style>
    <clipPath id="clip-path">
      <rect id="bag" class="cls-1" width="163" height="145" transform="translate(0 0.134)"/>
    </clipPath>
  </defs>
  <g id="users-bg-draw" class="cls-2" transform="translate(0 -0.135)">
    <g id="Group_24" data-name="Group 24" class="cls-3" transform="translate(-5.598 23.207)">
      <path id="Path_35" data-name="Path 35" d="M73.207,197.928c-3.386-4.714-7.976-7.307-12.92-7.307s-9.534,2.595-12.919,7.307a30,30,0,0,0,0,33.015c3.385,4.714,7.975,7.307,12.919,7.307s9.534-2.595,12.92-7.307a30,30,0,0,0,0-33.015ZM51.762,227.777a24.62,24.62,0,0,1,0-26.693c2.3-3.2,5.255-4.979,8.343-5.047a9.7,9.7,0,0,1-1.894,2.844c-1.573,1.876-3.518,4.205-3.518,8.644s1.956,6.765,3.518,8.644c1.353,1.623,2.262,2.706,2.262,5.166s-.9,3.542-2.26,5.165a14.247,14.247,0,0,0-2.925,4.755,13.7,13.7,0,0,1-3.527-3.477Zm17.049,0c-2.294,3.2-5.252,4.983-8.343,5.05a9.669,9.669,0,0,1,1.895-2.85c1.572-1.872,3.517-4.205,3.517-8.643s-1.956-6.766-3.517-8.644c-1.354-1.624-2.263-2.707-2.263-5.166s.9-3.543,2.255-5.166a14.17,14.17,0,0,0,2.922-4.75,13.637,13.637,0,0,1,3.518,3.475,24.64,24.64,0,0,1,.014,26.693Zm0,0" transform="translate(-30.817 -138.229)"/>
      <path id="Path_36" data-name="Path 36" d="M77.422,27.949,71.166,16.624V7.72A7.729,7.729,0,0,0,63.445,0H19.53a7.728,7.728,0,0,0-7.72,7.72v8.9L5.552,27.949A42.978,42.978,0,0,0,.208,48.679V112.9a8.986,8.986,0,0,0,8.977,8.973H73.791a8.987,8.987,0,0,0,8.977-8.973V48.679A42.979,42.979,0,0,0,77.422,27.949ZM50.09,5.412H63.44A2.311,2.311,0,0,1,65.748,7.72v6.9H50.1ZM37.912,18.672a2.673,2.673,0,0,0,.366-1.353V5.412h6.391V16.594l-4.654,8.027H34.484ZM17.221,7.72A2.311,2.311,0,0,1,19.53,5.412H32.879v9.2H17.221ZM5.62,112.9V48.679a37.554,37.554,0,0,1,4.671-18.113l5.82-10.538H30.89l-3.444,5.953a2.706,2.706,0,0,0,2.34,4.059h11.8a2.707,2.707,0,0,0,2.342-1.353l5.019-8.66H63.873L59.5,27.949a42.978,42.978,0,0,0-5.344,20.729v67.784H9.184A3.566,3.566,0,0,1,5.62,112.9Zm71.735,0a3.565,3.565,0,0,1-3.563,3.561H71.166V79.339a2.706,2.706,0,0,0-5.412,0v37.123H59.565V48.678a37.564,37.564,0,0,1,4.67-18.113l4.225-7.647,4.225,7.647a37.553,37.553,0,0,1,4.67,18.113Zm0,0" transform="translate(-0.208 0)"/>
    </g>
    <g id="cup" class="cls-3" transform="translate(79.615 80.37)">
      <g id="XMLID_1039_" transform="translate(0 0)">
        <g id="XMLID_142_">
          <path id="XMLID_175_" class="cls-4" d="M51.088,201.969a10.027,10.027,0,0,0,0-20.053H33.3a1.194,1.194,0,1,0,0,2.387H47.472v6.049A24.261,24.261,0,0,1,39.4,208.425H16.35c.035-.034.071-.067.106-.1a8.318,8.318,0,0,0,2.447-4.909,5.743,5.743,0,0,0-1.562-4.8c-1.924-1.923-5.048-2.077-7.716-.616a24.155,24.155,0,0,1-1.235-7.641V184.3H22.56a1.194,1.194,0,1,0,0-2.387H7.2A1.194,1.194,0,0,0,6,183.11v7.243A26.532,26.532,0,0,0,7.623,199.5a8.317,8.317,0,0,0-2.443,4.9,5.916,5.916,0,0,0,.916,4.021h-4.9A1.194,1.194,0,0,0,0,209.619a6.931,6.931,0,0,0,6.923,6.923h3.7a5.979,5.979,0,0,0,5.848,4.775H39.391a5.979,5.979,0,0,0,5.848-4.775h3.7a6.931,6.931,0,0,0,6.923-6.923,1.194,1.194,0,0,0-1.194-1.194H42.8a26.639,26.639,0,0,0,4.4-6.456h3.891ZM16.53,203.152a5.926,5.926,0,0,1-1.763,3.483h0a5.927,5.927,0,0,1-3.483,1.763,4.111,4.111,0,0,1-1.272-.049,3.131,3.131,0,0,1,2.329-3.284,5.516,5.516,0,0,0,3.925-3.866A3.79,3.79,0,0,1,16.53,203.152Zm-8.977,1.514a5.927,5.927,0,0,1,1.763-3.483,5.792,5.792,0,0,1,3.971-1.8,3.874,3.874,0,0,1,.783.079,3.131,3.131,0,0,1-2.329,3.289,5.516,5.516,0,0,0-3.925,3.866A3.793,3.793,0,0,1,7.553,204.666Zm41.387,9.488H44.165a1.194,1.194,0,0,0-1.194,1.194,3.585,3.585,0,0,1-3.581,3.581H16.472a3.585,3.585,0,0,1-3.581-3.581,1.194,1.194,0,0,0-1.194-1.194H6.923a4.544,4.544,0,0,1-4.377-3.342h50.77A4.544,4.544,0,0,1,48.94,214.155ZM51.088,184.3a7.639,7.639,0,0,1,0,15.279H48.212a26.646,26.646,0,0,0,.878-2.865h2a4.775,4.775,0,1,0,0-9.549H49.859V184.3Zm-1.229,5.252h1.229a2.387,2.387,0,0,1,0,4.775H49.56a26.713,26.713,0,0,0,.3-3.978Z" transform="translate(0 -160.202)"/>
          <path id="XMLID_180_" class="cls-4" d="M295.915,49.452A1.194,1.194,0,1,0,297.6,51.14a5.412,5.412,0,0,0,0-7.645,3.018,3.018,0,0,1,0-4.269,1.194,1.194,0,0,0-1.688-1.688,5.406,5.406,0,0,0,0,7.645,3.022,3.022,0,0,1,0,4.269Z" transform="translate(-259.198 -32.749)"/>
          <path id="XMLID_319_" class="cls-4" d="M134.6,49.451a1.194,1.194,0,1,0,1.688,1.688,5.412,5.412,0,0,0,0-7.645,3.022,3.022,0,0,1,0-4.269,1.194,1.194,0,0,0-1.688-1.688,5.412,5.412,0,0,0,0,7.645,3.022,3.022,0,0,1,0,4.269Z" transform="translate(-117.138 -32.748)"/>
          <path id="XMLID_320_" class="cls-4" d="M211.856,16.7a1.194,1.194,0,1,0,1.688,1.688,6.983,6.983,0,0,0,0-9.865,4.588,4.588,0,0,1,0-6.488A1.194,1.194,0,0,0,211.856.35a6.976,6.976,0,0,0,0,9.865A4.593,4.593,0,0,1,211.856,16.7Z" transform="translate(-184.769 0)"/>
          <path id="XMLID_321_" class="cls-4" d="M225.194,181.92a1.192,1.192,0,1,0,.844.349A1.2,1.2,0,0,0,225.194,181.92Z" transform="translate(-197.262 -160.205)"/>
        </g>
      </g>
    </g>
  </g>
</svg>
