<svg xmlns="http://www.w3.org/2000/svg" width="56.23" height="51.717" viewBox="0 0 56.23 51.717">
    <path data-name="Path 11614" d="M311.482 97.126a1.821 1.821 0 0 0-2.531.122l-3.266 3.5-1-1.123a1.821 1.821 0 0 0-2.622-.109l-4.966 4.735a1.821 1.821 0 0 0 2.513 2.592l3.6-3.43 1.074 1.214a1.821 1.821 0 0 0 1.341.607 1.73 1.73 0 0 0 1.354-.607l3.424-3.642 1.4 1.214a1.821 1.821 0 0 0 2.489-.079l5.287-5.287v3.035a1.821 1.821 0 0 0 3.642 0v-7.494a1.821 1.821 0 0 0-1.821-1.821h-7.545a1.821 1.821 0 1 0 0 3.642h3.254l-4.182 4.183z" transform="translate(-273.876 -83.772)" style="fill:#19181c"/>
    <path data-name="Path 11615" d="M197.47 28h-32.779a7.891 7.891 0 0 0-7.891 7.891V48.5a1.821 1.821 0 1 0 3.642 0V35.891a4.249 4.249 0 0 1 4.249-4.249h32.779a4.249 4.249 0 0 1 4.249 4.249V62.6a4.249 4.249 0 0 1-4.249 4.249h-14.807a1.821 1.821 0 1 0 0 3.642h14.807a7.892 7.892 0 0 0 7.891-7.891V35.891A7.892 7.892 0 0 0 197.47 28z" transform="translate(-149.132 -28)" style="fill:#19181c"/>
    <path data-name="Path 11622" d="M279.875 148.782a2.3 2.3 0 0 0-2.217-1.6h-19.72a2.3 2.3 0 0 0-2.217 1.6l-1.758 5.249a3.322 3.322 0 0 0-.153 1.376 4.415 4.415 0 0 0 2.09 3.21v11.949a2.43 2.43 0 0 0 2.344 2.522h19.135a2.43 2.43 0 0 0 2.344-2.522v-11.949a4.417 4.417 0 0 0 2.089-3.21 3.43 3.43 0 0 0-.153-1.4zm-21.428 21.809v-11.312a4.416 4.416 0 0 0 2.981-1.325 4.6 4.6 0 0 0 6.369 0 4.6 4.6 0 0 0 6.37 0 4.424 4.424 0 0 0 3.006 1.325l.178 11.287zm18.9-13.834a1.812 1.812 0 0 1-1.427-.663 2.282 2.282 0 0 0-1.758-.79 2.32 2.32 0 0 0-1.758.79 2 2 0 0 1-2.879 0 2.375 2.375 0 0 0-3.491 0 1.958 1.958 0 0 1-2.879 0 2.375 2.375 0 0 0-3.491 0 1.9 1.9 0 0 1-3.287-1.248l1.554-5.121H277.5l1.758 5.35a1.925 1.925 0 0 1-1.911 1.682z" transform="translate(-253.542 -121.621)" style="stroke:#19181c;stroke-width:.5px;fill:#19181c"/>
</svg>
