<svg data-name="v icon" xmlns="http://www.w3.org/2000/svg" width="24" height="24.01" viewBox="0 0 24 24.01">
    <path data-name="Path 24" d="M140.205 61.091a.878.878 0 0 1 .59.237l.774.757a.966.966 0 0 1-.1 1.377l-6.798 6.638a.981.981 0 0 1-1.31 0l-3.143-3.07a.963.963 0 0 1-.1-1.375l.772-.756a1.022 1.022 0 0 1 1.41.1l1.718 1.678 5.367-5.242a1.161 1.161 0 0 1 .823-.338zm-1.611-7.375a2.774 2.774 0 0 0-1.385.35 2.73 2.73 0 0 1-2.735 0 3.061 3.061 0 0 0-1.393-.329 2.255 2.255 0 0 0-1.881 1.2 2.735 2.735 0 0 1-2.371 1.37 2.357 2.357 0 0 0-2.4 2.4 2.73 2.73 0 0 1-1.367 2.37 2.358 2.358 0 0 0-.877 3.277 2.723 2.723 0 0 1 0 2.734 2.356 2.356 0 0 0 .877 3.277 2.735 2.735 0 0 1 1.367 2.37 2.361 2.361 0 0 0 2.4 2.4A2.735 2.735 0 0 1 131.2 76.5a2.335 2.335 0 0 0 3.273.879 2.752 2.752 0 0 1 2.735 0 2.377 2.377 0 0 0 3.275-.879 2.735 2.735 0 0 1 2.371-1.368 2.36 2.36 0 0 0 2.4-2.4 2.735 2.735 0 0 1 1.367-2.37 2.355 2.355 0 0 0 .877-3.277 2.726 2.726 0 0 1 0-2.734 2.355 2.355 0 0 0-.877-3.277 2.73 2.73 0 0 1-1.367-2.37 2.357 2.357 0 0 0-2.4-2.4 2.735 2.735 0 0 1-2.371-1.37 2.3 2.3 0 0 0-1.89-1.225z" transform="translate(-123.843 -53.714)" style="fill:#8eb0b1;fill-rule:evenodd"/>
</svg>
