<svg xmlns="http://www.w3.org/2000/svg" width="46.967" height="46.967" viewBox="0 0 46.967 46.967">
    <path data-name="Path 11651" d="M46.4 22.918h-1.644A20.352 20.352 0 0 0 26.049 4.211V2.566a1.566 1.566 0 1 0-3.131 0v1.645A20.352 20.352 0 0 0 4.211 22.918H2.566a1.566 1.566 0 1 0 0 3.131h1.645a20.352 20.352 0 0 0 18.707 18.707V46.4a1.566 1.566 0 1 0 3.131 0v-1.644a20.352 20.352 0 0 0 18.707-18.707H46.4a1.566 1.566 0 1 0 0-3.131zM26.049 41.625v-1.486a1.566 1.566 0 1 0-3.131 0v1.486A17.237 17.237 0 0 1 7.342 26.049h1.486a1.566 1.566 0 1 0 0-3.131H7.342A17.237 17.237 0 0 1 22.918 7.342v1.486a1.566 1.566 0 1 0 3.131 0V7.342a17.237 17.237 0 0 1 15.576 15.576h-1.486a1.566 1.566 0 1 0 0 3.131h1.486a17.237 17.237 0 0 1-15.576 15.576z" transform="translate(-1 -1)" style="fill:#6c9ea0"/>
    <path data-name="Path 11696" d="M159.033 154.725a4.219 4.219 0 1 0 4.311 4.218 4.27 4.27 0 0 0-4.311-4.218zm0 7.03a2.812 2.812 0 1 1 2.874-2.812 2.847 2.847 0 0 1-2.874 2.812z" transform="translate(-135.931 -135.778)" style="stroke:#6c9ea0;fill:#6c9ea0"/>
    <path data-name="Path 11695" d="M21.656 99.216c-.195-.261-4.834-6.381-10.759-6.381S.333 98.955.138 99.215a.691.691 0 0 0 0 .83c.194.261 4.834 6.381 10.759 6.381s10.564-6.12 10.759-6.38a.691.691 0 0 0 0-.83zM10.9 105.02c-4.364 0-8.144-4.062-9.263-5.39 1.117-1.329 4.89-5.389 9.263-5.389s8.144 4.061 9.263 5.39c-1.12 1.329-4.892 5.389-9.263 5.389z" transform="translate(12.205 -76.465)" style="stroke:#6c9ea0;fill:#6c9ea0"/>
</svg>
