<svg xmlns="http://www.w3.org/2000/svg" width="21.644" height="21.644" viewBox="0 0 21.644 21.644">
    <path data-name="Path 151" d="M10.824 0h-.005A10.815 10.815 0 0 0 2.06 17.165l-1.348 4.02 4.16-1.33A10.82 10.82 0 1 0 10.824 0zm6.3 15.282A3.054 3.054 0 0 1 15 16.809c-.565.12-1.3.216-3.79-.814a13.557 13.557 0 0 1-5.388-4.759 6.181 6.181 0 0 1-1.288-3.264 3.455 3.455 0 0 1 1.107-2.634 1.572 1.572 0 0 1 1.106-.388c.134 0 .254.007.363.012.318.014.478.032.687.534.261.629.9 2.182.973 2.342a.644.644 0 0 1 .046.586 1.87 1.87 0 0 1-.35.5c-.16.184-.311.325-.471.522-.146.172-.311.356-.127.674a9.605 9.605 0 0 0 1.755 2.18 7.956 7.956 0 0 0 2.538 1.565.684.684 0 0 0 .763-.12 13.093 13.093 0 0 0 .845-1.12.6.6 0 0 1 .776-.235c.292.1 1.838.866 2.156 1.024s.528.235.6.369a2.7 2.7 0 0 1-.18 1.499z" style="fill:#6c9ea0"/>
</svg>
