<svg xmlns="http://www.w3.org/2000/svg" width="52.048" height="55.967" viewBox="0 0 52.048 55.967">
    <path data-name="Path 11443" d="M108.77 237.56h6.705v31.371h-6.7a3.069 3.069 0 0 1-3.068-3.068v-25.235a3.069 3.069 0 0 1 3.068-3.068z" transform="translate(-105.701 -214.558)" style="fill:#c3c3c3"/>
    <path data-name="Path 11444" d="M261.306 43.143h-18.417l1.147-18.725a2.658 2.658 0 0 0-4.97-1.333l-11.62 19.238a3.52 3.52 0 0 0-.466 1.763v30.092a3.525 3.525 0 0 0 3.52 3.522h21.3a8.188 8.188 0 0 0 7.805-5.7l5.6-15.975a15.554 15.554 0 0 0 .886-5.119v-2.6a4.83 4.83 0 0 0-4.784-5.166z" transform="translate(-214.054 -21.736)" style="fill:#c3c3c3"/>
</svg>
