<svg data-name="03-Coffee" xmlns="http://www.w3.org/2000/svg" width="14.816" height="20.203" viewBox="0 0 14.816 20.203">
    <path data-name="Path 10279" d="M41.68 58.185a.983.983 0 0 0 .444.108h2.694a.976.976 0 0 0 .431-.1l-1.778-1.783z" transform="translate(-31.013 -38.089)" style="fill:#e2eded"/>
    <path data-name="Path 10280" d="M30 2h1.347v2.02H30z" transform="translate(-23.266 -2)" style="fill:#e2eded"/>
    <path data-name="Path 10281" d="M28.47 12a18.882 18.882 0 0 1 .788-2h-1.273a18.233 18.233 0 0 0-.825 2z" transform="translate(-21.382 -7.306)" style="fill:#e2eded"/>
    <path data-name="Path 10282" d="M41.051 3.347V3.01A1.01 1.01 0 0 0 40.041 2H36v2.02h4.377a.673.673 0 0 0 .674-.673z" transform="translate(-27.245 -2)" style="fill:#e2eded"/>
    <path data-name="Path 10283" d="M48.205 10H48v15.014l1.919 1.919a1.01 1.01 0 0 0 .1-.434v-8.418A19.772 19.772 0 0 0 48.205 10z" transform="translate(-35.205 -7.306)" style="fill:#e2eded"/>
    <path data-name="Path 10284" d="M42.02 10h-.205A19.772 19.772 0 0 0 40 18.081V26.5a.976.976 0 0 0 .094.421l1.926-1.909z" transform="translate(-29.898 -7.306)" style="fill:#e2eded"/>
    <path data-name="Path 10285" d="M13.673 4.02h4.377V2h-4.04A1.01 1.01 0 0 0 13 3.01v.337a.673.673 0 0 0 .673.673z" transform="translate(-11.99 -2)" style="fill:#e2eded"/>
    <path data-name="Path 10286" d="M21.8 36.3a2.451 2.451 0 0 1-1.623 2.333 3.269 3.269 0 0 0 2.542-1.077c1.01-1.01 1.387-2.411.852-3.135A1.968 1.968 0 0 0 21.8 36.3z" transform="translate(-16.752 -23.504)" style="fill:#e2eded"/>
    <path data-name="Path 10287" d="M19.032 35.357a2.448 2.448 0 0 1 1.626-2.333 1.481 1.481 0 0 0-.245-.024 3.472 3.472 0 0 0-2.3 1.1c-1.01 1.01-1.387 2.411-.852 3.135a1.963 1.963 0 0 0 1.771-1.878z" transform="translate(-14.655 -22.562)" style="fill:#e2eded"/>
    <path data-name="Path 10288" d="M19.428 18.081A20.57 20.57 0 0 1 21.176 10h-2.553a17.907 17.907 0 0 0-.97 2.438.337.337 0 0 1-.32.236h-2.02a.337.337 0 0 1-.337-.441 19.712 19.712 0 0 1 .88-2.233h-4.041A19.819 19.819 0 0 0 10 18.081V26.5a1.01 1.01 0 0 0 1.01 1.01h8.755a1.657 1.657 0 0 1-.337-1.01zm-2.983 3.751a4.081 4.081 0 0 1-2.764 1.3 1.983 1.983 0 0 1-1.445-.559c-.973-.97-.643-2.822.748-4.209s3.239-1.721 4.209-.748.642 2.822-.748 4.216z" transform="translate(-10 -7.306)" style="fill:#e2eded"/>
</svg>
