<?xml version="1.0" encoding="iso-8859-1"?>
<!-- Generator: Adobe Illustrator 19.0.0, SVG Export Plug-In . SVG Version: 6.00 Build 0)  -->
<svg version="1.1" id="Layer_1" xmlns="http://www.w3.org/2000/svg" xmlns:xlink="http://www.w3.org/1999/xlink" x="0px" y="0px"
	 viewBox="0 0 512 512" style="enable-background:new 0 0 512 512;" xml:space="preserve">
<g>
	<g>
		<path d="M432.866,212.087c-4.264-15.28-10.488-29.994-18.593-43.729c-7.464-12.65-16.43-24.318-26.615-34.792h35.299
			c9.22,0,16.696-7.475,16.696-16.696c0-9.22-7.475-16.696-16.696-16.696h-51.285C363.546,43.614,314.774,0,256,0
			c-58.773,0-107.546,43.614-115.672,100.174H89.044c-9.22,0-16.696,7.475-16.696,16.696s7.475,16.696,16.696,16.696h35.299
			c-10.185,10.474-19.15,22.143-26.614,34.792c-8.101,13.728-14.323,28.435-18.587,43.706c-17.821,2.077-34.385,9.796-47.661,22.437
			c-16.712,15.913-25.916,37.384-25.916,60.457c0,40.579,29.112,74.474,67.543,81.934C80.729,452.657,144.868,512,222.609,512
			h66.783c77.741,0,141.879-59.343,149.501-135.109c38.432-7.461,67.543-41.355,67.543-81.934
			C506.435,252.281,474.24,217.006,432.866,212.087z M72.348,342.172c-19.433-6.892-33.391-25.45-33.391-47.215
			c0-22.522,14.648-40.884,33.948-47.433C72.158,257.298,72.348,254.399,72.348,342.172z M256,33.391
			c40.314,0,74.042,28.725,81.799,66.783H174.201C181.958,62.117,215.687,33.391,256,33.391z M406.261,361.739
			c0,64.442-52.428,116.87-116.87,116.87h-66.783c-64.442,0-116.87-52.428-116.87-116.87V261.565
			c0-52.084,27.302-100.724,71.531-128h157.461c44.228,27.276,71.53,75.915,71.53,128V361.739z M439.652,342.172
			c0-87.827,0.187-84.9-0.554-94.618c19.72,6.733,33.946,25.432,33.946,47.402C473.043,316.722,459.085,335.28,439.652,342.172z"/>
	</g>
</g>
<g>
	<g>
		<path d="M256,278.261c-27.618,0-50.087,22.469-50.087,50.087s22.469,50.087,50.087,50.087c27.618,0,50.087-22.469,50.087-50.087
			S283.618,278.261,256,278.261z M256,345.043c-9.206,0-16.696-7.49-16.696-16.696s7.49-16.696,16.696-16.696
			c9.206,0,16.696,7.49,16.696,16.696S265.206,345.043,256,345.043z"/>
	</g>
</g>
<g>
	<g>
		<path d="M356.174,311.652c-9.22,0-16.696,7.475-16.696,16.696c0,46.03-37.448,83.478-83.478,83.478s-83.478-37.448-83.478-83.478
			c0-9.22-7.475-16.696-16.696-16.696s-16.696,7.475-16.696,16.696c0,64.442,52.428,116.87,116.87,116.87
			s116.87-52.428,116.87-116.87C372.87,319.127,365.394,311.652,356.174,311.652z"/>
	</g>
</g>
<g>
	<g>
		<path d="M205.913,203.219v-19.567c0-9.22-7.475-16.696-16.696-16.696s-16.696,7.475-16.696,16.696v19.567
			c-19.433,6.892-33.391,25.45-33.391,47.215c0,9.22,7.475,16.696,16.696,16.696s16.696-7.475,16.696-16.696
			c0-9.206,7.49-16.696,16.696-16.696s16.696,7.49,16.696,16.696c0,9.22,7.475,16.696,16.696,16.696s16.696-7.475,16.696-16.696
			C239.304,228.669,225.346,210.111,205.913,203.219z"/>
	</g>
</g>
<g>
	<g>
		<path d="M339.478,203.219v-19.567c0-9.22-7.475-16.696-16.696-16.696s-16.696,7.475-16.696,16.696v19.567
			c-19.433,6.892-33.391,25.45-33.391,47.215c0,9.22,7.475,16.696,16.696,16.696s16.696-7.475,16.696-16.696
			c0-9.206,7.49-16.696,16.696-16.696c9.206,0,16.696,7.49,16.696,16.696c0,9.22,7.475,16.696,16.696,16.696
			c9.22,0,16.696-7.475,16.696-16.696C372.87,228.669,358.911,210.111,339.478,203.219z"/>
	</g>
</g>
<g>
</g>
<g>
</g>
<g>
</g>
<g>
</g>
<g>
</g>
<g>
</g>
<g>
</g>
<g>
</g>
<g>
</g>
<g>
</g>
<g>
</g>
<g>
</g>
<g>
</g>
<g>
</g>
<g>
</g>
</svg>
