<svg xmlns="http://www.w3.org/2000/svg" width="14.616" height="15.032" viewBox="0 0 14.616 15.032">
    <path d="M11.4 15.032c-.707 0-1.277-.4-1.277-.891V6.293c0-.493.571-.891 1.273-.891h1.941c.706 0 1.277.4 1.281.891v7.848c0 .492-.575.891-1.277.891zm-5.061 0c-.706 0-1.277-.4-1.277-.891V6.293c0-.493.571-.891 1.277-.891h1.939c.707 0 1.277.4 1.277.891v7.848c0 .492-.574.891-1.277.891zm1.939-.45zm-7 .448c-.706 0-1.277-.4-1.277-.889V6.293C0 5.8.572 5.4 1.277 5.4h1.941c.706 0 1.277.4 1.277.891v7.845c0 .493-.574.892-1.277.892zm1.938-.448zM9.842 4.188a.6.6 0 0 1 .237-.846l.786-.5-9.528-.066a.624.624 0 0 1-.529-.615.626.626 0 0 1 .549-.6l9.536.042-.8-.5A.61.61 0 0 1 9.845.7a.6.6 0 0 1 .128-.459.665.665 0 0 1 .9-.119l2.345 1.619a.6.6 0 0 1 .234.5.6.6 0 0 1-.253.518l-2.339 1.6-.13.056a.667.667 0 0 1-.33.085.654.654 0 0 1-.558-.312z" style="fill:#f6f6f6"/>
</svg>
