<svg xmlns="http://www.w3.org/2000/svg" width="89.862" height="35.956" viewBox="0 0 89.862 35.956">
    <g data-name="Group 160">
        <path data-name="Path 11460" d="M169.307 279.715a16.255 16.255 0 0 0-9.278-3.065 11.474 11.474 0 0 0-9.58 4.619 11.216 11.216 0 0 0-1.494 9.567 15.926 15.926 0 0 0 6.277 8.739 16.255 16.255 0 0 0 9.278 3.065 11.473 11.473 0 0 0 9.579-4.619 11.214 11.214 0 0 0 1.494-9.568 15.929 15.929 0 0 0-6.277-8.738z" transform="rotate(90 223.573 79.07)" style="fill:#c3c3c3"/>
        <path data-name="Path 11461" d="m203.3 335.024-3.965-1-4.935-7.451-5.137-1.512A1.011 1.011 0 0 0 188.7 327l4.429 1.3 4.96 7.489 4.723 1.191a1.022 1.022 0 0 0 .248.032 1.011 1.011 0 0 0 .246-1.991z" transform="rotate(90 261.149 82.878)" style="fill:#fff"/>
    </g>
    <g data-name="Group 159">
        <path data-name="Path 11462" d="M391.69 285.773c-1.863-4.035-6.19-6.54-11.292-6.54a16.747 16.747 0 0 0-6.963 1.564c-7.252 3.349-10.864 11.03-8.051 17.123 1.863 4.034 6.19 6.54 11.292 6.54a16.748 16.748 0 0 0 6.963-1.564c7.253-3.348 10.861-11.03 8.051-17.123zm-8.9 15.288a14.721 14.721 0 0 1-6.115 1.378c-4.3 0-7.928-2.056-9.456-5.367-2.346-5.081.823-11.559 7.063-14.44a14.721 14.721 0 0 1 6.115-1.378c4.3 0 7.928 2.056 9.456 5.367 2.347 5.079-.82 11.559-7.06 14.441z" transform="rotate(150 261.629 113.756)" style="fill:#c3c3c3"/>
        <path data-name="Path 11463" d="m416.71 334.926-2.843 2.939-8.919.565-3.871 3.7a1.01 1.01 0 0 0 1.4 1.46l3.337-3.19 8.965-.567 3.386-3.5a1.01 1.01 0 1 0-1.451-1.4z" transform="rotate(150 283.522 133.285)" style="fill:#c3c3c3"/>
    </g>
    <g data-name="Group 162">
        <path data-name="Path 11462" d="M391.69 285.773c-1.863-4.035-6.19-6.54-11.292-6.54a16.747 16.747 0 0 0-6.963 1.564c-7.252 3.349-10.864 11.03-8.051 17.123 1.863 4.034 6.19 6.54 11.292 6.54a16.748 16.748 0 0 0 6.963-1.564c7.253-3.348 10.861-11.03 8.051-17.123zm-8.9 15.288a14.721 14.721 0 0 1-6.115 1.378c-4.3 0-7.928-2.056-9.456-5.367-2.346-5.081.823-11.559 7.063-14.44a14.721 14.721 0 0 1 6.115-1.378c4.3 0 7.928 2.056 9.456 5.367 2.347 5.079-.82 11.559-7.06 14.441z" transform="rotate(150 247.128 109.87)" style="fill:#c3c3c3"/>
        <path data-name="Path 11467" d="M650.151 400.6s-11.571-.919-11.112-9.35 6.59-14.256 9.426-14.945 3.829-.822 3.829-.822a12.461 12.461 0 0 1 .434 5.442c-.47 2.809-2.938 3.606-3.143 6-.217 2.549 2.065 4.385 2 7.854a13.041 13.041 0 0 1-1.434 5.821z" transform="translate(-608.57 -370)" style="stroke:#c3c3c3;stroke-width:.25px;fill:#c3c3c3"/>
        <path data-name="Path 11463" d="m416.71 334.926-2.843 2.939-8.919.565-3.871 3.7a1.01 1.01 0 0 0 1.4 1.46l3.337-3.19 8.965-.567 3.386-3.5a1.01 1.01 0 1 0-1.451-1.4z" transform="rotate(150 269.022 129.4)" style="fill:#c3c3c3"/>
        <path data-name="Path 11466" d="m416.71 334.926-2.843 2.939-2.862.178c.021.077-.532 2.072-.515 2.042l4.285-.252 3.386-3.5a1.01 1.01 0 1 0-1.451-1.4z" transform="rotate(150 269.022 129.4)" style="fill:#fff"/>
    </g>
</svg>
