<svg xmlns="http://www.w3.org/2000/svg" width="64.144" height="56.217" viewBox="0 0 64.144 56.217">
    <path data-name="Path 11623" d="M101.623 146.079a15.471 15.471 0 0 1 1.62-30.857 15.676 15.676 0 0 1 7.09 1.688l2.768-2.768A19.265 19.265 0 0 0 84 130.684a19.184 19.184 0 0 0 18.366 19.176 6.248 6.248 0 0 1-.743-2.971z" transform="translate(-84 -104.393)" style="fill:#19181c"/>
    <path data-name="Path 11624" d="m361.536 202.22 1.148-.81c0-.405.067-.81.067-1.215a19.177 19.177 0 0 0-2.7-9.79l-2.768 2.7a15.393 15.393 0 0 1 1.688 7.022 15.147 15.147 0 0 1-.4 3.511 12.015 12.015 0 0 0 2.97-1.418z" transform="translate(-324.333 -173.836)" style="fill:#19181c"/>
    <path data-name="Path 11625" d="M155.443 175.7a8.27 8.27 0 0 1 1.35.135l3.038-3.038a11.911 11.911 0 0 0-4.456-.878 11.969 11.969 0 0 0-1.621 23.835v-1.35a5.688 5.688 0 0 1 .473-2.363 8.22 8.22 0 0 1-7.09-8.1 8.328 8.328 0 0 1 8.305-8.238z" transform="translate(-136.2 -157.581)" style="fill:#19181c"/>
    <path data-name="Path 11626" d="M307.082 243.012a12.548 12.548 0 0 0 .675-3.916 11.162 11.162 0 0 0-.878-4.456l-3.038 3.038a10.1 10.1 0 0 1 .135 1.418 7.7 7.7 0 0 1-1.013 3.916z" transform="translate(-276.563 -212.737)" style="fill:#19181c"/>
    <path data-name="Path 11627" d="M213.361 79.279a5.073 5.073 0 0 0-.338-1.755l12.694-12.694h3.916a1.374 1.374 0 0 0 1.013-.405l3.849-3.849a1.469 1.469 0 0 0 .338-1.553 1.385 1.385 0 0 0-1.283-.878h-3.781v-3.781a1.385 1.385 0 0 0-.878-1.283 1.469 1.469 0 0 0-1.553.338l-3.849 3.849a1.374 1.374 0 0 0-.405 1.013V62.2l-12.762 12.69a5.072 5.072 0 0 0-1.755-.338 4.726 4.726 0 1 0 0 9.453 4.755 4.755 0 0 0 4.794-4.726z" transform="translate(-189.391 -52.988)" style="fill:#19181c"/>
    <path data-name="Path 11628" d="M284.542 281.113c-1-2.9 0-7.427 0-7.427a1.651 1.651 0 0 0-2.566-1.35l-6.212 4.389a13.665 13.665 0 0 1-7.832 2.5h-7.089a3.242 3.242 0 0 0-3.241 3.241v5.672a3.242 3.242 0 0 0 3.241 3.241h1.688l1.418 8.1a1.035 1.035 0 0 0 1.08.878h3.241a1.123 1.123 0 0 0 1.08-1.283l-1.35-7.766a13.512 13.512 0 0 1 7.832 2.5l6.212 4.389a1.631 1.631 0 0 0 2.566-1.35s-.979-4.541 0-7.427 3.916-1.958 3.916-4.119c-.136-2.227-2.988-1.283-3.984-4.186z" transform="translate(-236.67 -245.639)" style="fill:none;stroke:#19181c;stroke-width:3px"/>
    <path data-name="Path 11629" d="M545.655 366.24h-5.6a1.891 1.891 0 0 0 0 3.781h5.6a1.891 1.891 0 0 0 0-3.781z" transform="translate(-483.401 -328.471)" style="fill:#19181c"/>
    <path data-name="Path 11630" d="M518.088 287.575a2.142 2.142 0 0 0 1.35-.54l3.916-3.916a1.91 1.91 0 1 0-2.7-2.7l-3.916 3.916a1.915 1.915 0 0 0 0 2.7 1.733 1.733 0 0 0 1.35.54z" transform="translate(-464.072 -252.507)" style="fill:#19181c"/>
    <path data-name="Path 11631" d="M519.439 420.417a1.91 1.91 0 0 0-2.7 2.7l3.916 3.916a2.008 2.008 0 0 0 1.35.54 2.143 2.143 0 0 0 1.35-.54 1.915 1.915 0 0 0 0-2.7z" transform="translate(-464.073 -375.625)" style="fill:#19181c"/>
</svg>
