<svg xmlns="http://www.w3.org/2000/svg" width="26.934" height="25.361" viewBox="0 0 26.934 25.361">
  <defs>
    <style>
      .cls-1 {
        fill: #fff;
        stroke: #fff;
        stroke-width: 0.25px;
      }
    </style>
  </defs>
  <g id="cart" transform="translate(0.158 -12.99)">
    <path id="Path_11557" data-name="Path 11557" class="cls-1" d="M26.493,17.931a.855.855,0,0,0-.665-.365l-14.5-.048a.855.855,0,0,0-.073,1.708H24.636l-3.03,9.454H8.122L5.686,15.416a.855.855,0,0,0-.528-.641l-3.99-1.567A.855.855,0,0,0,.542,14.8L4.09,16.193l2.479,13.5a.855.855,0,0,0,.841.7h.411L6.882,33a.713.713,0,0,0,.67.954h.659a2.565,2.565,0,1,0,3.813,0h5.592a2.565,2.565,0,1,0,3.813,0h.8a.712.712,0,1,0,0-1.425H8.566l.769-2.137H22.229a.855.855,0,0,0,.814-.594l3.562-11.115A.853.853,0,0,0,26.493,17.931ZM10.117,36.8a1.14,1.14,0,1,1,1.14-1.14A1.141,1.141,0,0,1,10.117,36.8Zm9.4,0a1.14,1.14,0,1,1,1.14-1.14A1.141,1.141,0,0,1,19.522,36.8Z"/>
  </g>
</svg>
