<svg xmlns="http://www.w3.org/2000/svg" width="66" height="56.897" viewBox="0 0 66 56.897">
    <path data-name="Path 11446" d="M7 47h11.379v11.379H7z" transform="translate(-2.448 -6.034)" style="fill:#c3c3c3"/>
    <path data-name="Path 11447" d="M7 15h11.379v11.379H7z" transform="translate(-2.448 -10.448)" style="fill:#c3c3c3"/>
    <path data-name="Path 11448" d="M7 31h11.379v11.379H7z" transform="translate(-2.448 -8.241)" style="fill:#c3c3c3"/>
    <path data-name="Path 11449" d="M23 31v11.379h2.573A21.526 21.526 0 0 1 31.173 31z" transform="translate(-.241 -8.241)" style="fill:#c3c3c3"/>
    <path data-name="Path 11450" d="M24.621 65.621a1.138 1.138 0 0 1-1.138-1.138V50.828a1.138 1.138 0 0 1 1.138-1.138h3.472c-.02-.379-.058-.753-.058-1.138s.038-.759.058-1.138h-3.472a1.138 1.138 0 0 1-1.138-1.138V32.621a1.138 1.138 0 0 1 1.138-1.138h11.813a21.606 21.606 0 0 1 5.256-3.012L41.635 11h-2.276l.055 17.069a1.138 1.138 0 0 1-1.138 1.138H24.621a1.138 1.138 0 0 1-1.138-1.138V14.414a1.138 1.138 0 0 1 1.138-1.138h14.793V11H4.138A1.138 1.138 0 0 0 3 12.138v54.621A1.138 1.138 0 0 0 4.138 67.9h35.92a21.589 21.589 0 0 1-3.624-2.276zm-3.414-1.138a1.138 1.138 0 0 1-1.138 1.138H6.414a1.138 1.138 0 0 1-1.138-1.138V50.828a1.138 1.138 0 0 1 1.138-1.138h13.655a1.138 1.138 0 0 1 1.138 1.138zm0-18.207a1.138 1.138 0 0 1-1.138 1.138H6.414a1.138 1.138 0 0 1-1.138-1.138V32.621a1.138 1.138 0 0 1 1.138-1.138h13.655a1.138 1.138 0 0 1 1.138 1.138zm0-18.207a1.138 1.138 0 0 1-1.138 1.138H6.414a1.138 1.138 0 0 1-1.138-1.138V14.414a1.138 1.138 0 0 1 1.138-1.138h13.655a1.138 1.138 0 0 1 1.138 1.138z" transform="translate(-3 -11)" style="fill:#c3c3c3"/>
    <path data-name="Path 11451" d="M46.345 27A19.345 19.345 0 1 0 65.69 46.345 19.345 19.345 0 0 0 46.345 27zm16.244 26.129-5.4 1.543a20.173 20.173 0 0 1-5.543.776H50.23a4.975 4.975 0 0 1-2.631-.757 10.111 10.111 0 0 0 1.591 4.1l.382.569-1.894 1.263-.382-.569a12.367 12.367 0 0 1-2-5.505 4.969 4.969 0 0 1-2.837.9h-1.414a20.163 20.163 0 0 1-5.544-.777l-5.4-1.542a1.138 1.138 0 0 1 0-2.189L35.5 49.4a20.2 20.2 0 0 1 3.034-.619 41.747 41.747 0 0 1-5.462-7.659l-1.26-2.268a1.138 1.138 0 0 1 1.549-1.554l2.269 1.26a41.794 41.794 0 0 1 7.384 5.223 41.711 41.711 0 0 1 1.528-8.915l.713-2.5a1.138 1.138 0 0 1 2.187 0l.713 2.5a41.711 41.711 0 0 1 1.528 8.915 41.794 41.794 0 0 1 7.384-5.223l2.269-1.26a1.138 1.138 0 0 1 1.546 1.546l-1.26 2.268a41.747 41.747 0 0 1-5.462 7.659 20.157 20.157 0 0 1 3.033.619l5.4 1.543a1.138 1.138 0 0 1 0 2.189z" transform="translate(.31 -8.793)" style="fill:#c3c3c3"/>
    <path data-name="Path 11452" d="M27.552 15H23v11.379h11.379v-4.551h-1.138c-.3 0-1.93-3.605-2.144-3.819l-3.213-1.066a1.138 1.138 0 0 1-.333-.8z" transform="translate(-.241 -10.448)" style="fill:#c3c3c3"/>
    <path data-name="Path 11453" d="M50.728 49.693a1.138 1.138 0 0 1-.8-1.942l.2-.2a39.487 39.487 0 0 0 5.84-7.451 39.53 39.53 0 0 0-7.459 5.85 1.138 1.138 0 0 1-1.942-.8 39.487 39.487 0 0 0-1.138-9.412 39.486 39.486 0 0 0-1.138 9.412 1.138 1.138 0 0 1-1.942.8 39.494 39.494 0 0 0-7.459-5.85 39.53 39.53 0 0 0 5.849 7.459l.2.2a1.138 1.138 0 0 1-.8 1.942 17.9 17.9 0 0 0-4.918.683l-1.571.455 1.573.455a17.883 17.883 0 0 0 4.917.683h1.414a2.724 2.724 0 0 0 1.941-.8 1.138 1.138 0 0 1 .806-.333h2.276a1.138 1.138 0 0 1 .806.333 2.724 2.724 0 0 0 1.941.8h1.414a17.9 17.9 0 0 0 4.918-.683l1.571-.455-1.573-.455a17.884 17.884 0 0 0-4.926-.691z" transform="translate(1.226 -7.589)" style="fill:#c3c3c3"/>
    <path data-name="Path 11454" d="M23 58.379h8.173A21.526 21.526 0 0 1 25.573 47H23z" transform="translate(-.241 -6.034)" style="fill:#c3c3c3"/>
    <path data-name="Path 11469" d="M7 15h11.379v11.379H7z" transform="translate(15.758 -10.448)" style="fill:#c3c3c3"/>
</svg>
