<svg xmlns="http://www.w3.org/2000/svg" width="30" height="45" viewBox="0 0 30 45">
    <path data-name="Union 19" d="M0 30.41V22.5a4.03 4.03 0 0 1 4.09-3.956 4.2 4.2 0 0 1 1.363.227V9.229a4.029 4.029 0 0 1 4.092-3.955 4.03 4.03 0 0 1 4.092 3.955v6.906A4.19 4.19 0 0 1 15 15.908a4.075 4.075 0 0 1 3.947 2.917 4.188 4.188 0 0 1 1.508-.28 4.077 4.077 0 0 1 3.945 2.916 4.2 4.2 0 0 1 1.508-.279A4.03 4.03 0 0 1 30 25.136v5.274A14.816 14.816 0 0 1 15 45 14.815 14.815 0 0 1 0 30.41zm2.728-7.91v7.91A12.129 12.129 0 0 0 15 42.364 12.131 12.131 0 0 0 27.272 30.41v-5.274a1.364 1.364 0 0 0-2.727 0v1.32h-2.727V22.5a1.364 1.364 0 0 0-2.727 0v3.956h-2.728v-6.592a1.364 1.364 0 0 0-2.727 0v6.592h-2.727V9.229a1.365 1.365 0 0 0-2.728 0v22.5H5.453V22.5a1.364 1.364 0 0 0-2.726 0zM16.363 9.229a6.715 6.715 0 0 0-6.818-6.593 6.715 6.715 0 0 0-6.817 6.593H0A9.4 9.4 0 0 1 9.545 0a9.4 9.4 0 0 1 9.547 9.229z" style="fill:#c3c3c3"/>
</svg>
