<svg xmlns="http://www.w3.org/2000/svg" width="59.99" height="62.177" viewBox="0 0 59.99 62.177">
    <path d="M-12458.21-2398.318a8.876 8.876 0 0 1-8.77-7.534 1.756 1.756 0 0 1 .406-1.414 1.759 1.759 0 0 1 1.339-.613h7.331a7.816 7.816 0 0 1-.713-2.484 10.668 10.668 0 0 1 1.451-6.5 1.442 1.442 0 0 1 .147-.247 20.526 20.526 0 0 1-1.464-7.625v-14.824a1.766 1.766 0 0 1 1.765-1.765h37.191a1.762 1.762 0 0 1 1.765 1.765v3.11h8.986a1.764 1.764 0 0 1 1.765 1.765v4.4a13.419 13.419 0 0 1-12.3 13.369 20.425 20.425 0 0 1-7.353 9.036h17.728a1.758 1.758 0 0 1 1.337.613 1.759 1.759 0 0 1 .406 1.414 8.881 8.881 0 0 1-8.773 7.534zm0-3.532h42.242a5.3 5.3 0 0 0 4.534-2.5H-12462.744a5.291 5.291 0 0 0 4.537 2.499zm9.162-10.832a9.166 9.166 0 0 1-2.488 4.7 5.06 5.06 0 0 0 .823-.275 6.492 6.492 0 0 0 2.084-1.5 7.726 7.726 0 0 0 1.126-1.517 7.258 7.258 0 0 0 1.008-4.324 3.934 3.934 0 0 0-.128-.67l.024-.022a6.615 6.615 0 0 0-2.446 3.608zm-1.837-5.454a6.842 6.842 0 0 0-2.632 2.143 1.787 1.787 0 0 1-.175.231c-.147.216-.285.429-.419.66a7.315 7.315 0 0 0-1.008 4.327 4.812 4.812 0 0 0 .229 1.008 6.5 6.5 0 0 0 2.347-3.526 9.385 9.385 0 0 1 3-5.2 4.1 4.1 0 0 0-1.339.357zm33.152-6.608v.375a20.525 20.525 0 0 1-.366 3.514.239.239 0 0 0-.068.2 9.814 9.814 0 0 0 7.631-9.634v-2.635h-7.221zm-7.387-19.589a5.022 5.022 0 0 1-4.6-3.87 5.277 5.277 0 0 1 2.109-5.673 1.813 1.813 0 0 0 .66-1.9 1.443 1.443 0 0 0-1.32-1.2 1.767 1.767 0 0 1-1.689-1.837 1.765 1.765 0 0 1 1.836-1.689 5.028 5.028 0 0 1 4.6 3.87 5.283 5.283 0 0 1-2.105 5.673 1.81 1.81 0 0 0-.66 1.893 1.44 1.44 0 0 0 1.314 1.2 1.759 1.759 0 0 1 1.227.566 1.77 1.77 0 0 1 .47 1.267 1.776 1.776 0 0 1-.57 1.227 1.756 1.756 0 0 1-1.193.468zm-23 0a5.018 5.018 0 0 1-4.6-3.87 5.28 5.28 0 0 1 2.106-5.673 1.8 1.8 0 0 0 .66-1.9 1.443 1.443 0 0 0-1.317-1.2 1.765 1.765 0 0 1-1.689-1.837 1.767 1.767 0 0 1 .566-1.226 1.774 1.774 0 0 1 1.27-.463 5.021 5.021 0 0 1 4.594 3.87 5.273 5.273 0 0 1-2.106 5.673 1.8 1.8 0 0 0-.66 1.893 1.437 1.437 0 0 0 1.314 1.2 1.772 1.772 0 0 1 1.227.566 1.762 1.762 0 0 1 .466 1.267 1.767 1.767 0 0 1-.566 1.227 1.763 1.763 0 0 1-1.2.468zm11.5 0a5.022 5.022 0 0 1-4.6-3.87 5.277 5.277 0 0 1 2.108-5.673 1.806 1.806 0 0 0 .66-1.9 1.436 1.436 0 0 0-1.317-1.2 1.764 1.764 0 0 1-1.689-1.837 1.763 1.763 0 0 1 1.834-1.689 5.024 5.024 0 0 1 4.6 3.87 5.282 5.282 0 0 1-2.105 5.673 1.808 1.808 0 0 0-.66 1.893 1.438 1.438 0 0 0 1.313 1.2 1.762 1.762 0 0 1 1.693 1.833 1.763 1.763 0 0 1-1.762 1.694z" transform="translate(12467 2460.496)" style="fill:#242c43"/>
</svg>
