<svg xmlns="http://www.w3.org/2000/svg" width="14.116" height="20.129" viewBox="0 0 14.116 20.129">
    <path data-name="Path 4" d="M21.04 12.128v13.737l2.222-.623V12.1L22.3 9.93z" transform="translate(-9.146 -5.882)" style="fill:#f6f6f6"/>
    <path data-name="Rectangle 11" transform="translate(1.463)" style="fill:#f6f6f6" d="M0 0h11.461v2.592H0z"/>
    <path data-name="Rectangle 12" transform="translate(0 17.098)" style="fill:#f6f6f6" d="M0 0h10.991v3.031H0z"/>
    <path data-name="Path 5" d="M18.825 11.95a.416.416 0 0 1 .063-.229l1.364-2.381H9.17l-1.3 2.747v2.061h10.955zm-5.8 6.6a1.718 1.718 0 0 0 0-.568 1.456 1.456 0 0 0-.551-.8 1.854 1.854 0 0 0-.19 1.639 1.707 1.707 0 0 0 .849 1.044l.163.073a1.589 1.589 0 0 1-.226-.375 1.754 1.754 0 0 1-.045-1.017zm.675-1.65a1.449 1.449 0 0 0-.28-.092 2.273 2.273 0 0 1 .515.989 2.581 2.581 0 0 1 0 .916.928.928 0 0 0 0 .531.845.845 0 0 0 .415.394 1.8 1.8 0 0 0 .208-1.658 1.708 1.708 0 0 0-.858-1.08z" transform="translate(-7.87 -5.833)" style="fill:#f6f6f6"/>
    <path data-name="Path 6" d="M7.87 15.56v6.978h10.955V15.56zm6.322 5.751a1.784 1.784 0 0 1-.623.11 1.973 1.973 0 0 1-.84-.192 2.658 2.658 0 0 1-1.282-1.6 2.46 2.46 0 0 1 1.174-3.132 1.846 1.846 0 0 1 1.472.092A2.674 2.674 0 0 1 15.4 18.17a2.441 2.441 0 0 1-1.174 3.141z" transform="translate(-7.87 -6.356)" style="fill:#f6f6f6"/>
</svg>
