<svg xmlns="http://www.w3.org/2000/svg" width="65.873" height="62.683" viewBox="0 0 65.873 62.683">
    <path data-name="Path 7" d="M64.844 61.641h-4.22V23.97h-16.16a1.029 1.029 0 1 1 0-2.059h18.321a1.031 1.031 0 0 0 1.029-1.029v-1.853A1.107 1.107 0 0 0 62.785 18H44.876a11.27 11.27 0 0 1-1.029 1.132C40.142 22.838 35.51 25.1 31.5 25.1a7.764 7.764 0 0 1-5.661-2.161A7.463 7.463 0 0 1 23.776 18H3.088a1.107 1.107 0 0 0-1.029 1.029v1.853a1.107 1.107 0 0 0 1.029 1.029h18.733a1.029 1.029 0 0 1 0 2.059H5.249v37.671h-4.22a1.029 1.029 0 0 0 0 2.059h63.815a1.029 1.029 0 1 0 0-2.059zM8.543 35.395 9.572 32a1.023 1.023 0 0 1 1.029-.72h20.792a.989.989 0 0 1 .926.72l1.132 3.4a3.842 3.842 0 0 1-.515 3.5 1.24 1.24 0 0 1-.515.515v7.617a2.657 2.657 0 0 1-2.675 2.668H12.351a2.657 2.657 0 0 1-2.676-2.676v-7.615l-.515-.515a4.337 4.337 0 0 1-.617-3.499zm28.3-2.882a3.033 3.033 0 0 1 3.088-3.088h15.547a3.033 3.033 0 0 1 3.088 3.088v29.025h-2.059V32.513a1.031 1.031 0 0 0-1.029-1.029H39.936a1.107 1.107 0 0 0-1.029 1.029v29.025h-2.059zm4.122 15.027v-1.853a1.031 1.031 0 0 1 1.029-1.029.972.972 0 0 1 1.029 1.029v1.853a1.029 1.029 0 1 1-2.059 0z" transform="translate(0 -1.017)" style="fill:#242c43"/>
    <path data-name="Path 8" d="M31.2 23.526c3.4 0 7.617-2.059 10.91-5.352s5.352-7.411 5.352-10.91a5.756 5.756 0 0 0-1.544-4.22A5.756 5.756 0 0 0 41.7 1.5c-3.4 0-7.617 2.059-10.91 5.352a19 19 0 0 0-5.048 8.548c-.618 2.779-.206 5.043 1.235 6.484a5.433 5.433 0 0 0 4.223 1.642zm-.515-4.014a13.5 13.5 0 0 0 3.088-2.779 27.139 27.139 0 0 0 2.985-5.043 28.38 28.38 0 0 1 2.573-4.529A17.173 17.173 0 0 1 41.9 4.279a1.022 1.022 0 1 1 1.34 1.544A17.638 17.638 0 0 0 40.975 8.4a33.99 33.99 0 0 0-2.367 4.22 27.494 27.494 0 0 1-3.294 5.455 17.219 17.219 0 0 1-3.5 3.191 1.463 1.463 0 0 1-.618.206.936.936 0 0 1-.823-.412 1.112 1.112 0 0 1 .309-1.548zm-7.1 19.35h.1a1.66 1.66 0 0 0 1.338-.618 1.845 1.845 0 0 0 .412-1.441l-.206-1.853-.206-1.132h-3.295v3.192a1.845 1.845 0 0 0 1.853 1.853zm-11.631 0a1.873 1.873 0 0 0 1.846-1.543l.1-.926.412-2.573h-3.186L10.3 36.5a1.652 1.652 0 0 0 .309 1.647 1.606 1.606 0 0 0 1.341.716zm-.618 1.956v6.69a.593.593 0 0 0 .618.618h17.39a.664.664 0 0 0 .618-.618v-6.69c-.206 0-.412.1-.618.1a3.83 3.83 0 0 1-2.882-1.338 3.83 3.83 0 0 1-2.882 1.338h-.1a4.128 4.128 0 0 1-2.88-1.232 3.738 3.738 0 0 1-2.882 1.235h-.1a3.83 3.83 0 0 1-2.882-1.338 3.83 3.83 0 0 1-2.882 1.338 4.458 4.458 0 0 0-.522-.103zm16.365-3.5a1.769 1.769 0 0 0 1.75 1.544 1.8 1.8 0 0 0 1.441-.72A2.288 2.288 0 0 0 31.2 36.5l-.823-2.676h-3.194l.309 2.059zm-9.984 1.544h.1a1.845 1.845 0 0 0 1.853-1.853v-3.19h-3.294l-.515 2.881a1.845 1.845 0 0 0 .412 1.441 2.163 2.163 0 0 0 1.441.722z" transform="translate(.299 -1.5)" style="fill:#242c43"/>
</svg>
