<svg xmlns="http://www.w3.org/2000/svg" width="60" height="60" viewBox="0 0 60 60">
    <path d="M14 4H6a1 1 0 0 0 0 2h8a1 1 0 0 0 0-2z" style="fill:#161515"/>
    <path data-name="Shape" d="M10 8H6a1 1 0 0 0 0 2h4a1 1 0 0 0 0-2z" style="fill:#161515"/>
    <path data-name="Shape" d="M57 0H43a3 3 0 0 0-3 3v3h-3a4 4 0 0 0-4 4v6.211a21.433 21.433 0 0 0-6 0V10a4 4 0 0 0-4-4h-3V3a3 3 0 0 0-3-3H3a3 3 0 0 0-3 3v8a3 3 0 0 0 3 3h14a3 3 0 0 0 3-3V8h3a2 2 0 0 1 2 2v6.561C17.5 18.252 12 23.631 12 30s5.5 11.748 13 13.439V50a2 2 0 0 1-2 2h-3v-3a3 3 0 0 0-3-3H3a3 3 0 0 0-3 3v8a3 3 0 0 0 3 3h14a3 3 0 0 0 3-3v-3h3a4 4 0 0 0 4-4v-6.211a21.433 21.433 0 0 0 6 0V50a4 4 0 0 0 4 4h3v3a3 3 0 0 0 3 3h14a3 3 0 0 0 3-3v-8a3 3 0 0 0-3-3H43a3 3 0 0 0-3 3v3h-3a2 2 0 0 1-2-2v-6.561c7.5-1.691 13-7.07 13-13.439s-5.5-11.748-13-13.439V10a2 2 0 0 1 2-2h3v3a3 3 0 0 0 3 3h14a3 3 0 0 0 3-3V3a3 3 0 0 0-3-3zM18 11a1 1 0 0 1-1 1H3a1 1 0 0 1-1-1V3a1 1 0 0 1 1-1h14a1 1 0 0 1 1 1zm0 46a1 1 0 0 1-1 1H3a1 1 0 0 1-1-1v-8a1 1 0 0 1 1-1h14a1 1 0 0 1 1 1zm24-8a1 1 0 0 1 1-1h14a1 1 0 0 1 1 1v8a1 1 0 0 1-1 1H43a1 1 0 0 1-1-1zm-7-7.608V40a1 1 0 0 0-2 0v1.781a20.657 20.657 0 0 1-6 0V40a1 1 0 0 0-2 0v1.392c-5.436-1.346-9.59-4.817-10.7-9.1A10.639 10.639 0 0 0 20 34a20.848 20.848 0 0 0 10.556-3.169A19.132 19.132 0 0 1 40 28a8.954 8.954 0 0 1 5.972 2.419c-.238 5.123-4.763 9.435-10.972 10.973zm10.7-13.684A10.639 10.639 0 0 0 40 26a20.848 20.848 0 0 0-10.556 3.169A19.132 19.132 0 0 1 20 32a8.954 8.954 0 0 1-5.972-2.419c.238-5.123 4.763-9.435 10.972-10.973V20a1 1 0 0 0 2 0v-1.781a20.657 20.657 0 0 1 6 0V20a1 1 0 0 0 2 0v-1.392c5.436 1.346 9.59 4.817 10.7 9.1zM58 11a1 1 0 0 1-1 1H43a1 1 0 0 1-1-1V3a1 1 0 0 1 1-1h14a1 1 0 0 1 1 1z" style="fill:#161515"/>
    <path data-name="Shape" d="M54 4h-8a1 1 0 0 0 0 2h8a1 1 0 0 0 0-2zM50 8h-4a1 1 0 0 0 0 2h4a1 1 0 0 0 0-2zM14 50H6a1 1 0 0 0 0 2h8a1 1 0 0 0 0-2zM10 54H6a1 1 0 0 0 0 2h4a1 1 0 0 0 0-2zM46 52h8a1 1 0 0 0 0-2h-8a1 1 0 0 0 0 2zM46 56h4a1 1 0 0 0 0-2h-4a1 1 0 0 0 0 2z" style="fill:#161515"/>
</svg>
