<svg xmlns="http://www.w3.org/2000/svg" width="17.71" height="16.571" viewBox="0 0 17.71 16.571">
    <path data-name="Path 107" d="M195.694 51.5c1.125-2.372 3.269-3.711 4.788-2.991s1.836 3.229.711 5.6c-1.073 2.263-3.073 3.581-4.573 3.073a3.087 3.087 0 0 1 .855-2.136 8.254 8.254 0 0 0 2.428-5.265.271.271 0 1 0-.539-.047 7.825 7.825 0 0 1-2.3 4.949 3.734 3.734 0 0 0-.983 2.223c-1.228-.9-1.424-3.211-.383-5.407z" transform="translate(-187.112 -48.318)" style="fill:#242c43"/>
    <path data-name="Path 108" d="M72.906 336.26a7.357 7.357 0 0 0 5.166-1.989.281.281 0 1 0-.36-.43 6.752 6.752 0 0 1-4.839 1.858 5.4 5.4 0 0 0-2.82 1.065c-.306-1.586 1.259-3.465 3.666-4.316 2.564-.924 5.119-.335 5.7 1.309s-1.02 3.713-3.586 4.627c-2.426.865-4.839.383-5.589-1.061a4.915 4.915 0 0 1 2.656-1.063z" transform="translate(-61.834 -322.243)" style="fill:#242c43"/>
    <path data-name="Path 109" d="M419.652 263.361c1.5-.536 3.394.932 4.231 3.276.792 2.225.347 4.438-.986 5.115a3.71 3.71 0 0 1-.87-2.191 7.4 7.4 0 0 0-1.9-4.965.258.258 0 0 0-.395.329 6.823 6.823 0 0 1 1.777 4.666 4.2 4.2 0 0 0 .866 2.339c-1.445.261-3.151-1.162-3.933-3.355-.827-2.345-.288-4.679 1.213-5.213z" transform="translate(-418.051 -256.761)" style="fill:#242c43"/>
</svg>
