<svg xmlns="http://www.w3.org/2000/svg" width="43.205" height="75.61" viewBox="0 0 43.205 75.61">
    <path d="M15 22.482h2.7V9.912a7.753 7.753 0 0 1-2.7 0z" transform="translate(5.252 4.521)" style="fill:#c3c3c3"/>
    <path d="M0 0h5.4v5.4H0z" transform="rotate(-30 104.329 3.662)" style="fill:#c3c3c3"/>
    <path data-name="Shape" d="M13.014 9.225a18.427 18.427 0 0 0-4.888 3.486 17.479 17.479 0 0 0-5.088 11.062h13.45V13.221a8.044 8.044 0 0 1-3.474-4z" transform="translate(1.064 3.23)" style="fill:#c3c3c3"/>
    <path data-name="Shape" d="M17.7 1.35a1.35 1.35 0 1 0-2.7 0v13.32a5.1 5.1 0 0 0 2.7 0z" transform="translate(5.252)" style="fill:#c3c3c3"/>
    <path data-name="Shape" d="M22.494 9.259A8.128 8.128 0 0 1 19 13.215v10.546h13.45a17.575 17.575 0 0 0-9.956-14.502z" transform="translate(6.653 3.242)" style="fill:#c3c3c3"/>
    <path data-name="Shape" d="M37.934 26H3.1l.474 8.827c3.262 1.933 8.65 3.433 16.5.581 6.316-2.3 12.943-2.92 17.533-1.755z" transform="translate(1.086 9.104)" style="fill:#c3c3c3"/>
    <path data-name="Shape" d="m3.66 32.574 2.924 31.188a1.35 1.35 0 0 0 1.35 1.225h24.78a1.35 1.35 0 0 0 1.35-1.225l3.079-32.832c-3.477-1-9.562-.891-16.356 1.572-5.66 2.054-11.656 2.575-17.127.072zm21.44 17.29 4.677 2.7a2.7 2.7 0 0 1 .988 3.687l-2.7 4.678a2.7 2.7 0 0 1-3.689.992l-4.677-2.7a2.7 2.7 0 0 1-.994-3.687l2.7-4.677a2.7 2.7 0 0 1 3.694-.994zm-5.5-3.51-4.677 2.7a2.7 2.7 0 0 1-3.689-.987l-2.7-4.678a2.7 2.7 0 0 1 .988-3.694l4.676-2.7a2.7 2.7 0 0 1 3.7.988l2.7 4.677a2.7 2.7 0 0 1-.994 3.694z" transform="translate(1.282 10.623)" style="fill:#c3c3c3"/>
    <path data-name="Rectangle-path" d="M0 0h5.4v5.4H0z" transform="rotate(-60 69.633 14.426)" style="fill:#c3c3c3"/>
    <path data-name="Shape" d="M0 23.35a1.35 1.35 0 0 0 1.35 1.35h40.5a1.35 1.35 0 0 0 0-2.7H1.35A1.35 1.35 0 0 0 0 23.35z" transform="translate(0 7.704)" style="fill:#c3c3c3"/>
</svg>
