<svg xmlns="http://www.w3.org/2000/svg" width="166" height="31.629" viewBox="0 0 166 31.629">
    <path data-name="Union 2" d="M78.4 30.774c-3.352-1.894-5.812-6.072-6.52-9.8a14.641 14.641 0 0 1 .7-7.978 15.212 15.212 0 0 1 2.32-3.921 16.356 16.356 0 0 1 2.655-2.583c.466-.36.879-.642 1.2-.848a10.783 10.783 0 0 0-1.928 7.509c.921 5.016 5.728 6.9 8.37 10.786 1.447 2.125 1.6 5.409-.768 6.932a5.088 5.088 0 0 1-2.762.758 6.756 6.756 0 0 1-3.267-.855zm57.125-.625v-2.6H147.4v2.6zm-14.108-.032a15.352 15.352 0 0 1-15.3-15.406v-1.28h9.155V14.7a6.161 6.161 0 0 0 6.132 6.175h8.4v-3.569H122.8a4.036 4.036 0 0 1-4.017-4.045V6.539h6.8a6.771 6.771 0 0 1 6.741 6.787V23.44H121.4a8.685 8.685 0 0 1-8.564-7.445H108.7a12.83 12.83 0 0 0 12.717 11.59h10.812v2.533zm-.117-16.845a1.5 1.5 0 0 0 1.494 1.5h7v-1.434a4.238 4.238 0 0 0-4.219-4.249H121.3zM86.909 26.448a6.1 6.1 0 0 0-2.195-5.925c-1.833-1.571-3.855-3-5.092-5.08a8.978 8.978 0 0 1 .9-9.931C83.06 2.272 86.829 1.2 90.687.537l1.435-.251-2.233 3.938L92.316 10l-.708 3.6 2.7 10.284-1.8 3.538zm-76.062-.755-4.672-7.654a5.61 5.61 0 0 1-1.623.188H2.544v7.459H0V6.507h2.544v9.484h1.9a2.934 2.934 0 0 0 2.047-.64 4.68 4.68 0 0 0 1.125-1.6l3.387-7.246h2.644v.214L9.948 14.5a8.228 8.228 0 0 1-1.19 1.891 5.374 5.374 0 0 1-.481.5l5.429 8.588v.213zm46.458-.006V6.507h2.54v19.18zm-17.618 0V6.507H51.43v2.236h-9.2v7.246h7.725v2.236h-7.729v7.461zM20.532 13.113a12.605 12.605 0 0 1 .785-2.824 6.314 6.314 0 0 1 1.389-2.078 5.494 5.494 0 0 1 2.25-1.277 11.438 11.438 0 0 1 3.361-.427 17.828 17.828 0 0 1 1.917.093 18.066 18.066 0 0 1 1.928.3q-.032 1.622-.036 3.282v15.492h-2.541v-5.635h-7.627l-.948 5.635-2.595.013zm9.053 4.687v-7.685c0-.352 0-.686.012-1 0-.095.007-.189.013-.282a2.66 2.66 0 0 0-.329-.051 10.264 10.264 0 0 0-1.073-.052 6.562 6.562 0 0 0-2.764.481 3.244 3.244 0 0 0-1.532 1.437 8.131 8.131 0 0 0-.785 2.45l-.792 4.7zm106.007 5.64V0h2.522v20.909h25.294a4.233 4.233 0 0 0-4.141-3.423h-14.692l-.85.973-1.894-1.677 8.959-10.2 1.9 1.675-5.9 6.692h12.465A6.772 6.772 0 0 1 166 21.7v1.74zm-23.6-14.313V6.511h3.394v2.616z" style="fill:#242c43"/>
</svg>
