<svg xmlns="http://www.w3.org/2000/svg" width="19.981" height="23.032" viewBox="0 0 19.981 23.032">
    <path d="M44.431 31.644a.768.768 0 0 0-.765.772 5.3 5.3 0 0 1-1.027 3.012A11.737 11.737 0 0 0 41.6 37.5a7.39 7.39 0 0 1-.56-1.531.769.769 0 0 0-1.345-.277c-2.883 3.591-3.73 6.284-3.669 9.007A9.989 9.989 0 0 0 56 44.686a14.346 14.346 0 0 0-1-4.98 7.8 7.8 0 0 0-3.261-4.2.768.768 0 0 0-1.108.494 11.732 11.732 0 0 1-.386 1.329 9.021 9.021 0 0 0-1.151-2.885 5.5 5.5 0 0 0-4.663-2.8zM43.445 41.8a1.153 1.153 0 1 1-1.153 1.153 1.153 1.153 0 0 1 1.153-1.153zm5.453.008a.686.686 0 0 1 .57.186.769.769 0 0 1 .074 1.082l-5.9 6.722a.767.767 0 1 1-1.151-1.014l5.9-6.722a.815.815 0 0 1 .513-.254zm-.32 5.948a1.153 1.153 0 1 1-1.153 1.153 1.153 1.153 0 0 1 1.153-1.15z" transform="translate(-36.021 -31.644)" style="fill:#e2eded"/>
</svg>
