<svg xmlns="http://www.w3.org/2000/svg" width="1366" height="324" viewBox="0 0 1366 324">
    <defs>
        <clipPath id="9sytznvuva">
            <path data-name="mask bkg" transform="translate(272.979)" style="fill:#1b2237" d="M0 0h1366v324H0z"/>
        </clipPath>
    </defs>
    <g transform="translate(-272.979)" style="clip-path:url(#9sytznvuva)">
        <path data-name="Union 2" d="M133.141 212.751c-3.28-1.09-.271-26.189 0-29.734.275-6.551.549-8.184.275-9.548-1.094-3.548-1.639-21.553 0-22.1.275-.274 1.094-.274 1.643.548 1.369 2.183 2.735 21 2.735 25.1 0 3.816-.275 34.642-1.915 35.733a4.646 4.646 0 0 1-2.737 0zm-48.135-.817c-5.469-1.364-1.094-23.189.548-27.284 3.826-9.544 12.855-19.638 22.428-23.187 8.753-3.272 15.315-1.09 21.057 6.276 1.369 1.908.826 1.908-.542 1.908-9.029 1.093-16.959 2.183-23.8 9-3.829 4.089-9.029 14.729-11.485 20.458-.824 1.636 0 0 1.914-3 6.017-10.095 9.843-21 22.975-22.916 3.006-.543 7.656-1.364 9.57-1.09 8.48.547-24.339 31.641-28.716 34.373-4.811 3.117-9.831 5.6-12.835 5.6a3.939 3.939 0 0 1-1.114-.137zm58.529-36.555a2.636 2.636 0 0 1-2.182-1.908c-.824-2.454 5.742-9 8.205-10.095 9.786-4.78 21.964-4.49 26.238-4.2.646.044 1.11.085 1.362.111-15.577-2.451-28.153-1.624-37.723 12.551-1.914 2.728 1.094-8.184 1.369-8.73 3.831-12 15.861-18.546 27.076-13.91 5.468 2.451 10.665 3.815 16.136 6 1.366.547 10.395 4.367 10.12 6a.268.268 0 0 1-.275.274c-.817.546-7.383 1.366-9.3 1.91-3.831 1.364-11.762 6.274-15.592 8.731-6.952 3.8-9.8 5.694-13.991 5.7-2.732-.008-6.041-.813-11.443-2.433zm-65.912-1.09c-3.01 0-3.285-5.455-3.285-10.639C74.069 147.283 79.262 129 96.22 123c2.188-.821 27.626-5.459 23.248-.274a7.146 7.146 0 0 1-3.831 1.64c-18.865 2.449-27.07 11.453-31.45 30-.545 1.912-.545 3.272 0 1.639 4.648-20.463 21.058-29.467 34.187-30.011 2.736 0-7.106 14.46-7.932 15.55-5.164 8.409-23.859 32.739-32.67 32.738zM52.459 160.1c.021-.145.041-.292.065-.437a3.344 3.344 0 0 1-.106 1.508c-.045.003-.062-.328.041-1.071zm0-1.09c-.817-4.637-2.46-12-4.374-16.368-5.468-14.189-6.836-11.186-1.643-25.372 2.74-7.638 1.1-5.454 8.482-11.182 7.385-5.459 10.94-8.457 20.512-8.457 2.463 0 3.008 0 2.463.821-1.918 2.182-9.029 5.455-12.035 7.637-4.1 3-8.753 6.824-10.391 11.732-1.1 3.276-4.38 21.281-2.463 23.731 0 .274 1.094-10.634 1.366-12.546 1.371-8.184 12.032-27.008 19.692-25.1 6.293 1.639-4.1 24.008-6.291 27.011-5.659 8.066-13.717 18.523-15.254 28.75a8.444 8.444 0 0 0-.064-.653zm72.485-11.731c3.282-4.094 10.393 1.365 7.111 5.456a3.764 3.764 0 0 1-3 1.487c-3.143.004-6.35-3.693-4.111-6.939zm11.21-1.09c3.008-4.094 10.123 1.365 7.114 5.454a3.8 3.8 0 0 1-3.041 1.489c-3.206.004-6.512-3.693-4.073-6.939zM9.246 134.458C11.708 126.544-5.8 99 30.305 94.358a2.927 2.927 0 0 1 2.46.274c1.369 1.092-4.648 5.454-5.742 6.547-7.384 7.634-13.675 26.729-14.5 40.372 0 .271 7.663-29.187 13.674-37.374 3.01-3.818 5.2-5.73 6.562-6.547 1.342-.782 2.292-.842 2.944-.392a3.881 3.881 0 0 1-.2-5.063 4.282 4.282 0 0 1 6.013-.274 4.465 4.465 0 0 1 .549.465 3.557 3.557 0 0 1 .545-3.737c3.012-4.089 10.12 1.1 6.836 5.185-1.695 2.462-4.693 1.8-6.4.024a3.7 3.7 0 0 1-.436 3.8c-1.769 2.2-4.651 1.715-6.417.111 2.26 3.353-1.3 16.275-1.517 17.343-1.365 6.276-1.918 7.91-6.017 12.82-4.375 5.73-13.128 14.461-12.855 22.1.049 1.349-.182 1.923-.589 1.923-1.889-.008-7.549-12.535-5.969-17.477zm120.615 4.912c3.284-4.1 10.12 1.09 7.108 5.185a3.781 3.781 0 0 1-3.1 1.608c-3.183.001-6.436-3.763-4.008-6.793zm-9.3-.544c3.013-4.094 10.121 1.092 6.838 5.456a3.374 3.374 0 0 1-2.8 1.446c-3.113 0-6.499-3.836-4.038-6.902zm17.777-1.364c3.286-4.1 10.393 1.085 7.111 5.18a3.736 3.736 0 0 1-3.057 1.611c-3.12 0-6.275-3.767-4.054-6.791zm-8.2-7.372c3.28-4.089 10.116 1.366 7.108 5.459a3.8 3.8 0 0 1-3.04 1.489c-3.206 0-6.506-3.698-4.066-6.948zm-10.4-.811c3.28-4.094 10.123 1.365 7.11 5.454a3.684 3.684 0 0 1-2.955 1.448c-3.228-.001-6.611-3.837-4.151-6.903zm20.239-1.094c3.286-4.09 10.393 1.364 7.111 5.458a3.645 3.645 0 0 1-2.916 1.448c-3.163-.001-6.447-3.839-4.191-6.907zm-14.767-6c3.286-4.089 10.391 1.364 7.111 5.455a3.65 3.65 0 0 1-2.919 1.447c-3.16.001-6.444-3.834-4.188-6.901zm9.574-1.365c3.005-4.094 10.119 1.361 6.836 5.456a3.476 3.476 0 0 1-2.878 1.487c-3.087.001-6.396-3.697-3.954-6.942zm-10.672.548a38.959 38.959 0 0 0-8.749-9.006c-1.643-1.086-8.478-5.727-9.025-6.819 0-.543-.549-.817-.275-1.364a1.556 1.556 0 0 1 1.643-.544c2.875.718 11.839 8.554 15.858 12.871-.3-8.819-2.436-27.386.008-33.606.542-1.633 1.636-2.182 1.911-1.09.275.817.275 35.463.275 35.737a8.758 8.758 0 0 1-.316 1.056c.58.6.538.685.316 1.127 0 .547-.549 1.639-.549 2.18-.119.123-.19.246-.3.246-.134.001-.337-.186-.793-.787zm12.311-3.549c-1.639-3.818 16.411-17.734 21.607-19.641a42.723 42.723 0 0 1 16.552-2.763c-6.376-.521-11.485-.728-17.646 1.941-13.13 5.733-13.673 12.007-22.152 18.827-.549.543-1.094.274-1.369-.274-1.914-1.908-2.463-4.637-.275-6.82 3.009-2.728 3.829-3.546 5.2-7.638 3.28-12.822 4.923-8.727 13.67-14.186 4.655-2.729 6.84-.817 11.218-.817.817-.275 15.313 4.362 18.321 5.179 17.234 4.909 7.115 3.82 1.643 6.277-6.294 3-12.856 10.364-18.873 14.185A38.114 38.114 0 0 1 146.272 117c-.91 0-6.945.946-9.095.946-.43.001-.705-.038-.75-.126zm-53.335-7.913c3.008-4.093 10.123 1.366 6.836 5.455a3.467 3.467 0 0 1-2.878 1.489c-3.086.001-6.393-3.695-3.954-6.943zm15.593-3.544c3.28-4.09 10.116 1.364 7.108 5.454a3.686 3.686 0 0 1-2.956 1.45c-3.226 0-6.61-3.836-4.148-6.903zm-8.753-1.092c3.008-4.089 10.119 1.092 7.114 5.455a3.7 3.7 0 0 1-2.96 1.45c-3.226.001-6.609-3.836-4.149-6.904zm-11.763-4.912c3.005-4.362 10.123 1.093 6.836 5.185a3.492 3.492 0 0 1-2.894 1.493c-3.082.002-6.375-3.636-3.938-6.677zm-35.282-2.18c3.012-4.094 10.123 1.364 6.84 5.454a3.37 3.37 0 0 1-2.8 1.45c-3.112 0-6.495-3.836-4.035-6.903zm56.069-1.1c3.008-4.362 10.119 1.1 6.836 5.185a3.5 3.5 0 0 1-2.9 1.495c-3.081.005-6.368-3.633-3.931-6.675zM87.466 96c3.282-4.1 10.393 1.36 7.114 5.455a3.758 3.758 0 0 1-3 1.487c-3.142-.003-6.349-3.7-4.114-6.942zM4.327 92.449c3.554-7.365.268-4.636 7.931-9.271 2.2-1.283 5.5-1.459 8.592-.453a12.838 12.838 0 0 1-5.311-5.55c-1.367-3.82-3.006-4.641-1.638-9.274 1.087-4.1 1.366-7.639 2.456-11.461.275-1.092.275-1.364.824-.818 1.914 4.64 2.463 5.456 5.742 9 3.012 3.273 7.387 5.452 8.205 10.1 0 1.086.824 7.361-.275 7.361a11.328 11.328 0 0 1-4.919-1.639 9.9 9.9 0 0 1-4.379-3.815c-.751-1-4.481-7.942-4.9-8.9a24.642 24.642 0 0 0 3.53 8.36c2.735 3.816 7.115 7.361 6.84 7.361a7.183 7.183 0 0 1-4.325.044 12.129 12.129 0 0 1 2.407 1.6c3.83 3.272-.818.274-2.732.274-3.285 0-10.121 2.182-14.227 6-.271.276 7.115-3.819 8.48-4.369 2.735-.815 8.48-.54 10.666 1.366 1.643 1.365-5.742 8.457-12.58 8.731A25.486 25.486 0 0 0 .5 101.178a.705.705 0 0 1-.293.089c-1.278 0 3.86-8.304 4.12-8.818zm48.405 4.638c-4.651-3.546 0-9.821 4.654-6.276 3.679 2.808 1.532 7.326-1.833 7.326a4.649 4.649 0 0 1-2.821-1.05zm27.079-6c3.289-4.087 10.122 1.362 7.117 5.45A3.655 3.655 0 0 1 84 97.99c-3.161 0-6.443-3.838-4.189-6.905zm12.58-1.908c3.284-4.093 10.12 1.365 7.111 5.455a3.683 3.683 0 0 1-2.956 1.447c-3.23.001-6.617-3.836-4.155-6.904zm-32 2.731a2.907 2.907 0 0 1-1.094-.819 9.166 9.166 0 0 0-.82-1.639c-.275-.274 17.5 2.458 19.966 4.638.544.547 1.367 1.635 1.093 1.908 0 .008-.021.015-.062.015-1.141-.002-17.497-3.583-19.082-4.105zm-32-6.281a.953.953 0 0 0 .275-.543c3.557-4.369 10.393 1.09 7.111 5.454a4.094 4.094 0 0 1-3.257 1.627c-2.991-.002-5.902-3.2-4.128-6.54zm46.77 4.64c-5.2-3.544-10.117-12.82-10.392-18.822 0 0 2.463-9.548 2.463-9.821.545-1.908 4.1-4.912 5.742-6 3.83-2.45 15.317-13.91 13.4-10.638-3.282 5.459-2.459 11.46-2.459 17.731 0 2.729.273 7.641 0 10.1-.275 2.724-4.379 14.185-6.84 13.364-1.094-.543-2.188-3-3.006-5.455a18.992 18.992 0 0 1-1.369-8.74c.549-4.636 6.562-16.093 6.562-16.093-1.367.543-4.924 8.183-5.741 9.548-3.008 6.545-3.282 9.277-.55 16.094.825 2.73 3.559 7.1 3.834 9.274 0 .227-.046.361-.2.361-.217 0-.642-.265-1.443-.905zm9.025-6c3.284-4.1 10.393 1.36 7.115 5.454a3.368 3.368 0 0 1-2.8 1.447c-3.132 0-6.568-3.834-4.315-6.902zM37.42 86.716c-5.469-4.089-.824-10.363 4.648-6.274 4.215 3.154 2.258 7.605-1.24 7.608a5.538 5.538 0 0 1-3.408-1.334zm18.049 0c-4.651-3.539 0-9.816 4.652-6.27 3.677 2.805 1.532 7.324-1.831 7.324a4.634 4.634 0 0 1-2.821-1.054zm-8.75 0c-4.38-3.539.275-9.816 4.923-6.27 3.679 2.805 1.357 7.324-2.074 7.324a4.667 4.667 0 0 1-2.849-1.054zM119.47 72.81c3.006-4.094 10.117 1.086 7.112 5.455a3.688 3.688 0 0 1-2.957 1.446c-3.23.003-6.616-3.831-4.155-6.901zm-73.028-1.094c3.012-4.09 10.123 1.364 7.118 5.454a3.7 3.7 0 0 1-2.96 1.45c-3.232 0-6.618-3.837-4.158-6.904zm-18.87-4.09h.005c-9.578-8.727-5.2-5.455-5.473-15 0-5.456-1.912-6 2.461-11.456 3.012-3.822 1.914-5.459 7.385-8.457 4.65-2.463 8.75-9.281 14.222-13.376 3.557-2.725-.272 3-.546 7.094 0 2.728 1.643 12.82 2.186 16.37 1.371 7.637-1.911 34.373-6.562 34.1-.545 0-1.369-1.366-2.735-4.09-3.008-7.367-5.469-15.822-4.376-24.006A38.6 38.6 0 0 1 36.6 38.438c.549-1.089 5.746-10.095 3.009-5.731a44.259 44.259 0 0 0-4.374 7.641c-7.929 17.458 8.75 36.553.275 37.918-3.01-3.822-6.84-9.276-7.938-10.64zM151.74 76.08c-1.911-.547-4.1-2.183-6.287-3.273s-4.652-1.912-6.291-2.731c-1.643-.544-2.46-1.364-2.46-1.911s.817-1.089 2.735-2.455c2.188-1.086 5.47-3.546 8.754-4.905a18.258 18.258 0 0 1 10.391-1.639c4.1.547 9.026 2.182 12.855 3.272s6.017 1.912 4.651 1.364a54.3 54.3 0 0 0-10.393-4.089 28.192 28.192 0 0 0-9.572-1.907 22.552 22.552 0 0 0-8.48 1.907 39.135 39.135 0 0 0-6.84 3.547c-1.914 1.09-3.282 2.18-4.374 2.18-.822 0-1.369-.817-.548-2.454.826-1.364 3.008-3.823 4.106-5.733 1.369-1.635 1.639-2.728 3.008-4.362a24.392 24.392 0 0 1 6.013-4.369c2.192-.817 3.833-.27 6.291-.27 2.187 0 5.746-.547 8.21 0 2.735.543 4.374 1.91 6.287 3.275s3.829 3.272 6.291 4.909c2.188 1.636 5.2 3 7.931 5.181a36.286 36.286 0 0 1 6.562 6.276c1.643 1.639 1.918 2.455.279 2.455s-5.474-.817-8.754-.817c-3.557.274-6.838 1.633-9.574 2.45s-5.472 1.1-7.929 1.639-4.655 1.366-6.842 1.91a10.751 10.751 0 0 1-3.849.83 8.886 8.886 0 0 1-2.171-.28zm-22.7-6.545c3.282-4.369 10.119 1.09 7.114 5.185a3.815 3.815 0 0 1-3.055 1.489c-3.199 0-6.494-3.639-4.06-6.675zm-36.649 2.453c-3.825-2.454-3.825-1.637-6.838-3-1.367-.54-.818-5.452-.818-6.817V54.8c0-1.207 1.086-1.106 2.44-1.006a8.056 8.056 0 0 0 2.483-.086c7.656-1.364 12.307-.543 18.049 5.455 4.1 4.367 3.009 6 4.1 10.37 0 .54 2.187 3.819.818 3.819-.275 0-8.75-6.551-10.665-7.641a20.028 20.028 0 0 0-12.032-2.454c-1.1 0-2.192.274-1.1.542 5.472.275 7.937-.274 12.86 3 3.005 1.908 5.468 4.365 8.474 6.547.82.543 1.094.543.548.821a12.026 12.026 0 0 1-6.04 1.433 25.191 25.191 0 0 1-12.279-3.612zm21.338-6.819c3.28-4.093 10.391 1.366 7.11 5.455a3.759 3.759 0 0 1-3 1.489c-3.139.001-6.348-3.698-4.11-6.943zm9.022-3.272c3.008-4.093 10.119 1.366 7.114 5.455a3.69 3.69 0 0 1-2.957 1.45c-3.231-.002-6.617-3.837-4.157-6.902zm-9.027-.547a4.106 4.106 0 1 1 4.923-6.549 4.058 4.058 0 0 1-2.229 7.465 4.656 4.656 0 0 1-2.694-.915zm16.69-8.457c3.28-4.089 10.391 1.364 7.108 5.459a3.759 3.759 0 0 1-3 1.487c-3.142 0-6.348-3.698-4.108-6.946zm-8.754.274c3.28-3.819 10.116 1.364 6.836 5.185a3.712 3.712 0 0 1-2.971 1.452c-3.21-.004-6.525-3.776-3.865-6.637zm-4.655-8.184c3.286-4.369 10.393 1.088 7.111 5.181a3.466 3.466 0 0 1-2.939 1.61c-3.09 0-6.395-3.768-4.172-6.791zm9.029-1.092c3.28-4.367 10.393 1.092 7.111 5.18a3.5 3.5 0 0 1-2.9 1.5c-3.105-.004-6.445-3.643-4.211-6.68zm1.1-1.637c.269-.817.544-8.457.544-8.457.55-.272 1.367.542 1.642 1.092.275 1.09.548 7.094 0 7.094a6.1 6.1 0 0 1-1.916.506c-.232-.001-.358-.065-.272-.235zm-8.754-13.638c3.282-4.094 10.391 1.364 7.11 5.454a3.368 3.368 0 0 1-2.8 1.45c-3.135 0-6.569-3.836-4.312-6.904zm9.023-1.365c3.006-4.093 10.117 1.092 6.838 5.181a3.475 3.475 0 0 1-2.937 1.61c-3.078.003-6.331-3.77-3.904-6.791zm-47.59-4.369c-.824-2.182 1.363-3.819 4.924-6.27 9.022-6.549 27.071-12.278 34.183-.547a3.594 3.594 0 0 1-.82 4.094c-1.094 1.086-4.1-1.365-6.293-1.912-6.587-1.343-13.336-.318-17.6.706-3.532.846-5.36 1.7-4 1.206 6.014-2.186 23.793-1.912 27.074 1.91 1.094 1.09 1.367 2.728-.275 3.544-5.468 3-12.58 4.367-18.6 4.367a17.51 17.51 0 0 1-.915.024C92 30 81.879 27.783 79.811 22.883zm39.387-3.271c3.281-4.089 10.392 1.365 7.112 5.456a3.478 3.478 0 0 1-2.883 1.489c-3.111 0-6.47-3.7-4.229-6.945zm10.4 5.185c-.275 0-.275-.274-.275-.817C130.96 11.7 156.944 5.431 156.67 5.431c-11.759 1.364-23.8 6-27.627 17.182a5.984 5.984 0 0 1-.817 2.183c0 .274-.275 0-.275-.547-1.643-5.179 4.374-16.094 8.2-19.641 7.931-7.634 20.516-4.089 30.088-1.364 2.188.547 2.188.547 1.369.821a15.16 15.16 0 0 0-4.1 2.73c-5.342 5.575-22.971 18.227-32.016 18.227a7.422 7.422 0 0 1-1.9-.222z" transform="translate(1365.151 291)" style="fill:rgba(172,196,198,.04)"/>
        <path data-name="Union 1" d="M147.743 236.785c-3.639-1.213-.3-29.147 0-33.093.3-7.29.609-9.108.3-10.626-1.214-3.949-1.819-23.988 0-24.594.3-.3 1.214-.3 1.823.61 1.519 2.43 3.035 23.377 3.035 27.934 0 4.247-.3 38.555-2.125 39.769a5.141 5.141 0 0 1-3.037 0zm-53.414-.909c-6.069-1.518-1.214-25.809.608-30.366 4.246-10.622 14.265-21.857 24.888-25.806 9.713-3.642 16.994-1.213 23.367 6.985 1.519 2.124.917 2.124-.6 2.124-10.019 1.216-18.819 2.43-26.407 10.022-4.249 4.55-10.019 16.393-12.744 22.769-.914 1.821 0 0 2.124-3.339 6.677-11.235 10.922-23.376 25.495-25.5 3.336-.6 8.5-1.518 10.619-1.213 9.41.609-27.009 35.215-31.865 38.255-5.339 3.469-10.909 6.237-14.242 6.237a4.359 4.359 0 0 1-1.243-.168zm64.949-40.684a2.929 2.929 0 0 1-2.421-2.124c-.914-2.731 6.372-10.016 9.1-11.235 10.859-5.32 24.373-5 29.116-4.68.717.049 1.232.094 1.511.124-17.286-2.728-31.241-1.808-41.861 13.969-2.124 3.036 1.214-9.108 1.519-9.716 4.252-13.357 17.6-20.64 30.046-15.481 6.068 2.728 11.835 4.246 17.905 6.676 1.516.609 11.535 4.861 11.23 6.679a.3.3 0 0 1-.3.3c-.907.607-8.193 1.521-10.316 2.125-4.252 1.518-13.052 6.983-17.3 9.717-7.714 4.227-10.871 6.337-15.526 6.34-3.038.005-6.709-.895-12.703-2.693zm-73.142-1.213c-3.341 0-3.645-6.071-3.645-11.841-.3-18.217 5.464-38.56 24.282-45.24 2.428-.913 30.656-6.076 25.8-.3a7.919 7.919 0 0 1-4.252 1.825c-20.934 2.725-30.039 12.747-34.9 33.393-.6 2.128-.6 3.642 0 1.824 5.158-22.774 23.368-32.8 37.937-33.4 3.036 0-7.885 16.093-8.8 17.306-5.731 9.358-26.476 36.438-36.254 36.436zm-27.924-15.788c.024-.162.046-.325.072-.487a3.732 3.732 0 0 1-.118 1.678c-.05 0-.066-.369.046-1.191zm0-1.213c-.907-5.161-2.73-13.36-4.853-18.217-6.068-15.791-7.586-12.45-1.823-28.238 3.04-8.5 1.221-6.07 9.413-12.445 8.2-6.076 12.14-9.413 22.762-9.413 2.733 0 3.338 0 2.733.913-2.128 2.428-10.019 6.071-13.355 8.5-4.549 3.342-9.713 7.595-11.53 13.057-1.217 3.646-4.861 23.685-2.733 26.412 0 .3 1.214-11.835 1.516-13.963 1.522-9.108 13.352-30.059 21.852-27.934 6.983 1.824-4.555 26.72-6.981 30.062-6.279 8.977-15.221 20.615-16.927 32a11.879 11.879 0 0 0-.074-.735zm80.435-13.056c3.642-4.556 11.533 1.519 7.891 6.073a4.172 4.172 0 0 1-3.33 1.655c-3.487-.001-7.045-4.116-4.561-7.728zm12.44-1.213c3.338-4.556 11.233 1.519 7.894 6.07a4.216 4.216 0 0 1-3.374 1.658c-3.558-.001-7.227-4.117-4.52-7.729zM10.258 149.648c2.733-8.808-16.7-39.469 23.37-44.63 1.517-.3 2.425 0 2.73.3 1.519 1.215-5.158 6.07-6.372 7.286-8.194 8.5-15.175 29.749-16.088 44.933 0 .3 8.5-32.484 15.174-41.6 3.341-4.249 5.767-6.377 7.282-7.286 1.489-.871 2.543-.937 3.267-.437a4.329 4.329 0 0 1-.225-5.634 4.742 4.742 0 0 1 6.672-.3 4.959 4.959 0 0 1 .609.518 3.968 3.968 0 0 1 .6-4.159c3.342-4.55 11.23 1.221 7.586 5.771-1.881 2.74-5.208 2-7.1.026a4.131 4.131 0 0 1-.484 4.224c-1.963 2.453-5.161 1.909-7.121.124 2.508 3.731-1.445 18.114-1.684 19.3-1.514 6.985-2.128 8.8-6.677 14.268-4.855 6.377-14.568 16.094-14.265 24.592.054 1.5-.2 2.14-.653 2.14-2.092.006-8.373-13.94-6.621-19.436zm133.842 5.467c3.644-4.558 11.23 1.213 7.888 5.771a4.192 4.192 0 0 1-3.438 1.79c-3.531 0-7.141-4.193-4.45-7.561zm-10.321-.606c3.344-4.556 11.232 1.215 7.588 6.073a3.741 3.741 0 0 1-3.107 1.609c-3.45 0-7.208-4.27-4.477-7.682zm19.727-1.518c3.647-4.558 11.533 1.207 7.891 5.765a4.141 4.141 0 0 1-3.392 1.793c-3.459 0-6.96-4.193-4.495-7.558zm-9.1-8.205c3.639-4.55 11.226 1.521 7.888 6.076a4.207 4.207 0 0 1-3.373 1.658c-3.55-.001-7.221-4.12-4.508-7.734zm-11.538-.9c3.639-4.556 11.233 1.519 7.889 6.07a4.084 4.084 0 0 1-3.279 1.612c-3.578-.003-7.333-4.273-4.603-7.685zm22.459-1.218c3.647-4.552 11.533 1.518 7.891 6.074a4.04 4.04 0 0 1-3.236 1.612c-3.508-.003-7.152-4.274-4.648-7.689zm-16.387-6.676c3.647-4.55 11.53 1.518 7.891 6.071a4.046 4.046 0 0 1-3.239 1.61c-3.504-.002-7.148-4.273-4.645-7.684zm10.624-1.519c3.335-4.556 11.229 1.515 7.586 6.073a3.854 3.854 0 0 1-3.193 1.655c-3.424-.001-7.096-4.119-4.386-7.731zm-11.842.61a43.3 43.3 0 0 0-9.708-10.023c-1.823-1.209-9.408-6.374-10.014-7.589 0-.6-.609-.909-.3-1.518a1.724 1.724 0 0 1 1.823-.606c3.19.8 13.137 9.52 17.6 14.325-.337-9.816-2.7-30.48.009-37.4.6-1.818 1.816-2.428 2.121-1.213.3.909.3 39.469.3 39.773A9.77 9.77 0 0 1 139.2 132c.643.671.6.762.35 1.255 0 .609-.609 1.824-.609 2.427-.132.137-.21.274-.333.274-.148.001-.373-.206-.879-.875zm13.661-3.95c-1.819-4.249 18.211-19.737 23.977-21.86a47.284 47.284 0 0 1 18.367-3.075c-7.076-.579-12.744-.81-19.582 2.161-14.571 6.38-15.173 13.363-24.582 20.954-.609.6-1.214.3-1.519-.3-2.124-2.124-2.733-5.161-.3-7.59 3.339-3.036 4.249-3.946 5.77-8.5 3.639-14.271 5.463-9.713 15.17-15.788 5.165-3.037 7.591-.909 12.449-.909.907-.306 16.993 4.855 20.331 5.764 19.124 5.464 7.9 4.252 1.823 6.986-6.984 3.34-14.266 11.535-20.943 15.787-6.072 3.642-13.05 5.161-20.032 5.465-1.01 0-7.707 1.053-10.092 1.053-.476-.01-.78-.052-.83-.151zm-59.183-8.81c3.338-4.555 11.233 1.521 7.586 6.071a3.844 3.844 0 0 1-3.193 1.658c-3.426 0-7.093-4.114-4.393-7.729zm17.3-3.945c3.639-4.552 11.226 1.518 7.888 6.07a4.086 4.086 0 0 1-3.28 1.613c-3.577.001-7.332-4.269-4.6-7.682zm-9.7-1.214c3.338-4.55 11.229 1.215 7.894 6.071a4.1 4.1 0 0 1-3.285 1.613c-3.589.001-7.343-4.269-4.609-7.684zM86.742 111.7c3.335-4.855 11.233 1.216 7.586 5.771a3.871 3.871 0 0 1-3.211 1.662c-3.426-.003-7.08-4.052-4.375-7.433zm-39.151-2.427c3.342-4.556 11.233 1.518 7.591 6.07a3.737 3.737 0 0 1-3.108 1.613c-3.459-.002-7.213-4.272-4.483-7.685zm62.219-1.219c3.338-4.855 11.229 1.219 7.586 5.771a3.875 3.875 0 0 1-3.216 1.663c-3.427-.002-7.075-4.051-4.37-7.437zm-12.752-1.209c3.642-4.558 11.533 1.513 7.894 6.071a4.166 4.166 0 0 1-3.329 1.655c-3.486-.003-7.044-4.117-4.565-7.729zM4.8 102.893c3.944-8.2.3-5.159 8.8-10.319 2.437-1.428 6.1-1.624 9.535-.5a14.271 14.271 0 0 1-5.894-6.177c-1.517-4.252-3.336-5.165-1.817-10.322 1.207-4.558 1.516-8.5 2.725-12.756.3-1.215.3-1.518.914-.91 2.124 5.164 2.733 6.073 6.372 10.019 3.342 3.643 8.2 6.068 9.105 11.238 0 1.209.914 8.192-.3 8.192a12.545 12.545 0 0 1-5.458-1.824 11 11 0 0 1-4.859-4.246c-.833-1.11-4.973-8.839-5.435-9.908a27.471 27.471 0 0 0 3.917 9.3c3.035 4.247 7.9 8.192 7.591 8.192a7.948 7.948 0 0 1-4.8.049 13.457 13.457 0 0 1 2.668 1.779c4.25 3.642-.908.3-3.032.3-3.645 0-11.232 2.43-15.788 6.68-.3.307 7.9-4.25 9.41-4.862 3.035-.907 9.41-.6 11.836 1.521 1.823 1.519-6.372 9.413-13.96 9.717a28.22 28.22 0 0 0-15.781 4.553.781.781 0 0 1-.325.1c-1.413-.001 4.288-9.243 4.576-9.816zm53.715 5.162c-5.161-3.946 0-10.931 5.164-6.985 4.082 3.125 1.7 8.154-2.034 8.154a5.149 5.149 0 0 1-3.13-1.168zm30.049-6.68c3.645-4.552 11.232 1.518 7.9 6.068a4.052 4.052 0 0 1-3.243 1.616c-3.521.001-7.159-4.27-4.657-7.683zm13.96-2.124c3.644-4.555 11.23 1.519 7.891 6.071a4.083 4.083 0 0 1-3.28 1.61c-3.585.004-7.344-4.265-4.611-7.68zm-35.509 3.04a3.226 3.226 0 0 1-1.214-.912 10.212 10.212 0 0 0-.909-1.824c-.3-.3 19.423 2.736 22.155 5.162.6.609 1.517 1.819 1.213 2.124 0 .009-.024.016-.069.016-1.268.001-19.417-3.984-21.176-4.565zM31.5 95.3a1.062 1.062 0 0 0 .3-.6c3.947-4.862 11.533 1.213 7.891 6.07a4.539 4.539 0 0 1-3.614 1.81c-3.31-.003-6.54-3.562-4.577-7.28zm51.9 5.164C77.637 96.521 72.177 86.2 71.873 79.517c0 0 2.733-10.626 2.733-10.931.6-2.124 4.549-5.467 6.372-6.682 4.25-2.727 17-15.481 14.869-11.839C92.2 56.142 93.119 62.82 93.119 69.8c0 3.037.3 8.5 0 11.236-.3 3.031-4.859 15.787-7.591 14.874-1.214-.6-2.428-3.336-3.336-6.071a21.193 21.193 0 0 1-1.519-9.717c.609-5.159 7.282-17.911 7.282-17.911-1.517.6-5.464 9.107-6.371 10.626-3.338 7.285-3.642 10.325-.611 17.912.915 3.039 3.95 7.9 4.254 10.322 0 .253-.052.4-.222.4-.239.002-.712-.294-1.605-1.006zm10.014-6.677c3.644-4.558 11.533 1.513 7.9 6.07a3.734 3.734 0 0 1-3.11 1.61c-3.472.003-7.285-4.267-4.785-7.679zm-51.9 2.725c-6.069-4.55-.914-11.534 5.158-6.983 4.677 3.511 2.506 8.464-1.376 8.467a6.135 6.135 0 0 1-3.773-1.483zm20.029 0c-5.161-3.939 0-10.925 5.162-6.979 4.081 3.122 1.7 8.151-2.032 8.151a5.133 5.133 0 0 1-3.121-1.171zm-9.71 0c-4.861-3.939.3-10.925 5.463-6.979 4.082 3.122 1.505 8.151-2.3 8.151a5.169 5.169 0 0 1-3.154-1.171zm80.731-15.477c3.336-4.556 11.227 1.209 7.892 6.071a4.088 4.088 0 0 1-3.282 1.609c-3.574.005-7.332-4.262-4.601-7.678zm-81.029-1.216c3.342-4.552 11.233 1.518 7.9 6.07a4.1 4.1 0 0 1-3.287 1.611c-3.586 0-7.348-4.267-4.613-7.681zm-20.94-4.552h.006c-10.628-9.713-5.769-6.071-6.073-16.7 0-6.073-2.122-6.68 2.731-12.75 3.342-4.253 2.124-6.076 8.2-9.413 5.16-2.734 9.713-10.322 15.78-14.879 3.947-3.033-.3 3.342-.606 7.895 0 3.036 1.823 14.268 2.425 18.22 1.522 8.5-2.121 38.255-7.282 37.951-.6 0-1.519-1.521-3.035-4.552-3.338-8.2-6.069-17.609-4.856-26.717a43.062 43.062 0 0 1 2.728-11.538c.609-1.212 6.377-11.235 3.339-6.379a49.294 49.294 0 0 0-4.853 8.5c-8.8 19.43 9.71 40.682.3 42.2-3.338-4.25-7.586-10.32-8.804-11.838zm137.788 9.408c-2.121-.609-4.549-2.43-6.977-3.643s-5.162-2.128-6.981-3.04c-1.823-.606-2.73-1.518-2.73-2.127s.907-1.212 3.035-2.733c2.428-1.209 6.07-3.946 9.714-5.459a20.208 20.208 0 0 1 11.53-1.824c4.552.609 10.016 2.428 14.265 3.642s6.677 2.128 5.161 1.518a60.155 60.155 0 0 0-11.533-4.55 31.2 31.2 0 0 0-10.622-2.122 24.965 24.965 0 0 0-9.41 2.122 43.386 43.386 0 0 0-7.591 3.947c-2.124 1.213-3.642 2.427-4.853 2.427-.912 0-1.519-.909-.608-2.731.917-1.518 3.338-4.255 4.556-6.38 1.519-1.819 1.819-3.036 3.338-4.855a27.072 27.072 0 0 1 6.672-4.862c2.433-.909 4.253-.3 6.981-.3 2.427 0 6.377-.609 9.111 0 3.035.6 4.853 2.125 6.977 3.644s4.249 3.642 6.981 5.464c2.428 1.821 5.767 3.339 8.8 5.767a40.319 40.319 0 0 1 7.282 6.985c1.823 1.824 2.128 2.733.309 2.733s-6.075-.909-9.714-.909c-3.947.3-7.588 1.818-10.624 2.727s-6.072 1.219-8.8 1.824-5.165 1.521-7.592 2.125a11.9 11.9 0 0 1-4.271.924 9.833 9.833 0 0 1-2.406-.314zm-25.191-7.285c3.642-4.862 11.229 1.213 7.894 5.771a4.228 4.228 0 0 1-3.391 1.658c-3.55 0-7.204-4.05-4.504-7.428zm-40.667 2.731c-4.244-2.731-4.244-1.822-7.588-3.343-1.517-.6-.908-6.068-.908-7.588v-8.2c0-1.343 1.205-1.231 2.708-1.119a8.913 8.913 0 0 0 2.755-.1c8.5-1.518 13.657-.6 20.029 6.071 4.555 4.861 3.339 6.679 4.555 11.541 0 .6 2.427 4.25.908 4.25-.3 0-9.71-7.29-11.835-8.5A22.17 22.17 0 0 0 99.8 70.406c-1.219 0-2.433.3-1.219.6 6.072.306 8.808-.3 14.27 3.342 3.335 2.124 6.068 4.858 9.4 7.286.909.6 1.214.6.608.913a13.313 13.313 0 0 1-6.709 1.6 27.894 27.894 0 0 1-13.626-4.025zm23.675-7.588c3.639-4.555 11.53 1.521 7.889 6.071a4.167 4.167 0 0 1-3.33 1.658c-3.484 0-7.04-4.117-4.559-7.729zm10.012-3.642c3.338-4.555 11.229 1.521 7.894 6.071a4.091 4.091 0 0 1-3.282 1.613c-3.583.001-7.34-4.275-4.61-7.684zm-10.012-.609a4.565 4.565 0 1 1 5.463-7.289 4.518 4.518 0 0 1-2.474 8.308 5.156 5.156 0 0 1-2.989-1.019zm18.521-9.413c3.639-4.55 11.53 1.518 7.888 6.076a4.167 4.167 0 0 1-3.327 1.655c-3.493 0-7.05-4.115-4.565-7.73zm-9.714.3c3.639-4.25 11.226 1.518 7.586 5.771a4.114 4.114 0 0 1-3.3 1.616c-3.563.006-7.246-4.198-4.293-7.382zm-5.165-9.108c3.647-4.862 11.533 1.21 7.891 5.767a3.843 3.843 0 0 1-3.261 1.791c-3.434.005-7.101-4.188-4.634-7.553zm10.019-1.215c3.639-4.861 11.533 1.215 7.891 5.765a3.875 3.875 0 0 1-3.22 1.665c-3.448.005-7.155-4.045-4.676-7.425zm1.219-1.822c.3-.909.6-9.413.6-9.413.611-.3 1.517.6 1.822 1.215.3 1.213.608 7.895 0 7.895a6.751 6.751 0 0 1-2.127.563c-.256.005-.396-.065-.3-.255zm-9.714-15.178c3.642-4.556 11.53 1.518 7.889 6.07a3.734 3.734 0 0 1-3.111 1.613c-3.476.005-7.288-4.265-4.783-7.678zm10.013-1.519c3.336-4.555 11.227 1.215 7.588 5.767a3.853 3.853 0 0 1-3.26 1.791c-3.418.008-7.028-4.191-4.333-7.553zm-52.81-4.862c-.914-2.428 1.513-4.25 5.464-6.979 10.012-7.289 30.04-13.665 37.933-.609a4.008 4.008 0 0 1-.909 4.556c-1.214 1.209-4.55-1.519-6.983-2.128-7.31-1.494-14.8-.354-19.536.785-3.919.941-5.948 1.888-4.434 1.343 6.674-2.433 26.4-2.128 30.043 2.125 1.214 1.213 1.517 3.036-.3 3.945-6.068 3.343-13.96 4.861-20.637 4.861-.318.016-.658.026-1.015.026-6.108.01-17.337-2.467-19.631-7.921zm43.7-3.642c3.641-4.55 11.532 1.519 7.892 6.073a3.856 3.856 0 0 1-3.2 1.658c-3.447.004-7.175-4.114-4.692-7.726zM143.8 27.6c-.3 0-.3-.3-.3-.909 1.823-13.665 30.657-20.643 30.352-20.643-13.052 1.516-26.405 6.673-30.652 19.121a6.67 6.67 0 0 1-.907 2.43c0 .3-.3 0-.3-.609-1.823-5.764 4.853-17.912 9.1-21.86 8.8-8.5 22.766-4.55 33.388-1.518 2.428.609 2.428.609 1.519.913a16.819 16.819 0 0 0-4.553 3.039c-5.928 6.205-25.49 20.286-35.528 20.286a8.214 8.214 0 0 1-2.119-.25z" transform="translate(1462.224 108.38)" style="fill:rgba(172,196,198,.04)"/>
        <path data-name="Union 3" d="M123.2.192c-3.035 1.013-.25 24.328 0 27.622.254 6.085.508 7.6.254 8.869-1.012 3.3-1.517 20.022 0 20.528.254.254 1.012.254 1.52-.509 1.266-2.028 2.53-19.512 2.53-23.316 0-3.545-.254-32.181-1.772-33.194a4.283 4.283 0 0 0-2.533 0zM78.66.95c-5.06 1.267-1.013 21.542.506 25.35 3.54 8.866 11.895 18.243 20.754 21.539 8.1 3.039 14.171 1.013 19.485-5.83 1.266-1.773.765-1.773-.5-1.773-8.355-1.015-15.693-2.028-22.02-8.365-3.543-3.8-8.355-13.683-10.627-19-.762-1.52 0 0 1.771 2.787 5.568 9.378 9.108 19.511 21.259 21.288 2.782.5 7.084 1.267 8.855 1.013 7.846-.508-22.522-29.393-26.572-31.931-4.452-2.9-9.1-5.206-11.876-5.206A3.632 3.632 0 0 0 78.66.95zm54.16 33.957a2.443 2.443 0 0 0-2.02 1.773c-.762 2.28 5.314 8.36 7.592 9.378 9.055 4.44 20.324 4.171 24.279 3.906a55.75 55.75 0 0 0 1.26-.1c-14.414 2.277-26.051 1.509-34.907-11.66-1.771-2.534 1.012 7.6 1.266 8.109 3.545 11.149 14.677 17.228 25.055 12.922 5.06-2.277 9.869-3.544 14.931-5.572 1.264-.508 9.619-4.057 9.364-5.574a.249.249 0 0 0-.254-.254c-.756-.507-6.832-1.269-8.6-1.774-3.545-1.267-10.884-5.829-14.428-8.111-6.433-3.528-9.065-5.29-12.947-5.292-2.532-.003-5.594.748-10.592 2.25zM71.828 35.92c-2.786 0-3.04 5.067-3.04 9.883-.249 15.2 4.556 32.185 20.248 37.761 2.025.762 25.563 5.071 21.512.254A6.6 6.6 0 0 0 107 82.291c-17.453-2.274-25.046-10.639-29.1-27.872-.5-1.776-.5-3.04 0-1.522 4.3 19.009 19.486 27.374 31.635 27.878 2.532 0-6.575-13.432-7.34-14.445-4.779-7.811-22.078-30.413-30.231-30.412zM48.542 49.1c.02.135.038.271.06.406a3.118 3.118 0 0 0-.1-1.4c-.039-.006-.055.306.04.994zm0 1.013c-.756 4.308-2.276 11.151-4.047 15.2-5.06 13.181-6.326 10.392-1.52 23.57 2.535 7.1 1.019 5.066 7.849 10.388 6.834 5.071 10.123 7.857 18.981 7.857 2.279 0 2.783 0 2.279-.762-1.774-2.027-8.355-5.067-11.137-7.094-3.793-2.789-8.1-6.339-9.615-10.9-1.015-3.043-4.053-19.769-2.279-22.045 0-.254 1.012 9.878 1.264 11.655 1.269 7.6 11.134 25.089 18.222 23.316 5.823-1.522-3.8-22.3-5.822-25.092C57.481 68.719 50.025 59.005 48.6 49.5c-.01.193-.028.4-.058.611zm67.073 10.9c3.037 3.8 9.617-1.268 6.58-5.069a3.478 3.478 0 0 0-2.777-1.381c-2.907-.004-5.874 3.431-3.802 6.446zm10.373 1.013c2.783 3.8 9.367-1.268 6.582-5.066a3.514 3.514 0 0 0-2.814-1.383c-2.965-.005-6.024 3.429-3.767 6.444zM8.555 72.922c2.279 7.352-13.922 32.944 19.487 37.251a2.7 2.7 0 0 0 2.276-.254c1.266-1.014-4.3-5.066-5.314-6.081-6.833-7.092-12.655-24.83-13.415-37.5 0-.252 7.091 27.114 12.653 34.719 2.786 3.547 4.809 5.323 6.072 6.081 1.242.727 2.121.782 2.724.365a3.616 3.616 0 0 0-.188 4.7 3.951 3.951 0 0 0 5.564.254 4.136 4.136 0 0 0 .508-.432 3.314 3.314 0 0 0 .5 3.472c2.787 3.8 9.364-1.019 6.326-4.817-1.568-2.287-4.343-1.673-5.922-.022a3.45 3.45 0 0 0-.4-3.526c-1.637-2.048-4.3-1.593-5.938-.1 2.091-3.114-1.205-15.119-1.4-16.111-1.263-5.83-1.774-7.348-5.568-11.909-4.048-5.323-12.148-13.433-11.895-20.526.045-1.253-.168-1.786-.545-1.786-1.749-.005-6.986 11.635-5.525 16.222zm111.61-4.563c3.038 3.8 9.364-1.013 6.578-4.817a3.494 3.494 0 0 0-2.867-1.494c-2.947 0-5.957 3.5-3.71 6.311zm-8.606.506c2.788 3.8 9.366-1.014 6.327-5.069a3.118 3.118 0 0 0-2.591-1.343c-2.879 0-6.013 3.564-3.735 6.412zm16.45 1.267c3.041 3.8 9.617-1.008 6.58-4.812a3.453 3.453 0 0 0-2.829-1.5c-2.886.003-5.806 3.503-3.75 6.312zm-7.586 6.849c3.035 3.8 9.361-1.269 6.578-5.071a3.507 3.507 0 0 0-2.813-1.383c-2.966-.001-6.024 3.434-3.764 6.454zm-9.621.754c3.035 3.8 9.367-1.268 6.579-5.066a3.4 3.4 0 0 0-2.734-1.345c-2.99-.001-6.121 3.562-3.847 6.41zm18.728 1.016c3.041 3.8 9.617-1.267 6.58-5.07a3.368 3.368 0 0 0-2.7-1.345c-2.929 0-5.967 3.564-3.88 6.415zm-13.664 5.572c3.041 3.8 9.615-1.267 6.58-5.067a3.373 3.373 0 0 0-2.7-1.344c-2.929-.001-5.968 3.562-3.88 6.411zm8.859 1.268c2.781 3.8 9.363-1.264 6.326-5.069a3.213 3.213 0 0 0-2.663-1.381c-2.861 0-5.922 3.435-3.663 6.45zm-9.875-.509a36.127 36.127 0 0 1-8.1 8.366c-1.52 1.009-7.845 5.32-8.351 6.334 0 .5-.508.759-.254 1.267a1.437 1.437 0 0 0 1.52.506c2.66-.667 10.955-7.946 14.674-11.957-.281 8.193-2.254 25.44.007 31.219.5 1.517 1.514 2.027 1.768 1.013.254-.759.254-32.943.254-33.2a8.161 8.161 0 0 0-.292-.981c.536-.56.5-.636.292-1.047 0-.508-.508-1.522-.508-2.026-.11-.114-.175-.228-.277-.228-.123.002-.311.175-.733.734zm11.392 3.3c-1.517 3.546 15.186 16.474 19.994 18.246a39.4 39.4 0 0 0 15.316 2.567c-5.9.484-10.627.676-16.329-1.8-12.15-5.325-12.652-11.154-20.5-17.489-.508-.5-1.012-.254-1.266.254-1.771 1.773-2.279 4.308-.254 6.336 2.784 2.534 3.543 3.294 4.812 7.1 3.035 11.911 4.555 8.107 12.65 13.178 4.307 2.535 6.33.759 10.381.759.756.255 14.17-4.052 16.953-4.811 15.947-4.56 6.584-3.549 1.52-5.831-5.824-2.788-11.9-9.628-17.464-13.177a35.163 35.163 0 0 0-16.7-4.562c-.842 0-6.427-.879-8.416-.879-.402-.012-.656.027-.697.106zM76.889 95.73c2.783 3.8 9.367-1.269 6.326-5.067a3.2 3.2 0 0 0-2.663-1.383c-2.861-.001-5.92 3.432-3.663 6.45zm14.429 3.292c3.035 3.8 9.361-1.267 6.578-5.066a3.406 3.406 0 0 0-2.735-1.347c-2.99 0-6.122 3.564-3.843 6.413zm-8.1 1.014c2.783 3.8 9.363-1.014 6.582-5.067a3.416 3.416 0 0 0-2.739-1.347c-2.988 0-6.119 3.564-3.843 6.414zM72.333 104.6c2.781 4.052 9.367-1.015 6.326-4.817a3.227 3.227 0 0 0-2.678-1.387c-2.856-.001-5.903 3.378-3.648 6.204zm-32.647 2.026c2.787 3.8 9.367-1.267 6.33-5.066a3.115 3.115 0 0 0-2.592-1.347c-2.884-.001-6.014 3.562-3.738 6.411zm51.883 1.018c2.783 4.052 9.363-1.018 6.326-4.817a3.23 3.23 0 0 0-2.681-1.388c-2.858-.002-5.9 3.377-3.645 6.203zm-10.633 1.009c3.037 3.8 9.617-1.263 6.583-5.067a3.472 3.472 0 0 0-2.776-1.381c-2.908-.005-5.875 3.431-3.807 6.446zM4 111.947c3.289 6.841.248 4.306 7.338 8.613a10.117 10.117 0 0 0 7.951.421 11.907 11.907 0 0 0-4.915 5.156c-1.265 3.549-2.782 4.311-1.516 8.615 1.006 3.8 1.264 7.1 2.273 10.647.254 1.014.254 1.267.762.76 1.771-4.31 2.279-5.069 5.314-8.362 2.787-3.041 6.835-5.065 7.592-9.38 0-1.009.762-6.838-.254-6.838A10.454 10.454 0 0 0 24 123.1a9.175 9.175 0 0 0-4.052 3.544c-.695.927-4.147 7.378-4.532 8.27a22.942 22.942 0 0 1 3.267-7.766c2.53-3.545 6.584-6.838 6.33-6.838a6.622 6.622 0 0 0-4-.041 11.221 11.221 0 0 0 2.227-1.483c3.544-3.039-.757-.254-2.528-.254-3.04 0-9.366-2.027-13.165-5.574-.25-.257 6.584 3.548 7.846 4.058 2.53.757 7.846.5 9.87-1.269 1.52-1.268-5.314-7.857-11.641-8.111a23.516 23.516 0 0 1-13.16-3.8.65.65 0 0 0-.271-.082c-1.182.002 3.572 7.716 3.809 8.193zm44.8-4.309c-4.3 3.294 0 9.123 4.306 5.83 3.4-2.609 1.417-6.806-1.7-6.806a4.292 4.292 0 0 0-2.606.976zm25.057 5.576c3.04 3.8 9.366-1.267 6.585-5.065a3.378 3.378 0 0 0-2.7-1.349c-2.942 0-5.975 3.565-3.889 6.414zm11.641 1.773c3.038 3.8 9.364-1.268 6.58-5.067a3.4 3.4 0 0 0-2.735-1.344c-2.994-.003-6.128 3.56-3.849 6.411zm-29.61-2.537a2.691 2.691 0 0 0-1.012.761 8.527 8.527 0 0 1-.758 1.522c-.254.254 16.2-2.283 18.475-4.309.5-.508 1.265-1.519 1.011-1.773 0-.007-.02-.014-.058-.014-1.062.001-16.196 3.327-17.663 3.812zm-29.611 5.835a.886.886 0 0 1 .254.5c3.291 4.058 9.617-1.013 6.58-5.066a3.784 3.784 0 0 0-3.014-1.511c-2.772.003-5.466 2.974-3.825 6.076zm43.278-4.31c-4.809 3.292-9.362 11.909-9.616 17.484 0 0 2.279 8.869 2.279 9.123.5 1.773 3.793 4.563 5.314 5.577 3.544 2.276 14.174 12.922 12.4 9.882-3.037-5.071-2.275-10.646-2.275-16.472 0-2.535.253-7.1 0-9.379-.254-2.53-4.052-13.177-6.33-12.415-1.012.5-2.025 2.784-2.782 5.067a17.7 17.7 0 0 0-1.266 8.111c.508 4.306 6.072 14.95 6.072 14.95-1.265-.5-4.556-7.6-5.312-8.869-2.783-6.08-3.037-8.618-.509-14.951.763-2.536 3.294-6.595 3.548-8.615 0-.211-.043-.335-.185-.335-.208 0-.602.247-1.343.841zm8.351 5.573c3.038 3.8 9.617-1.263 6.584-5.066a3.113 3.113 0 0 0-2.593-1.344c-2.897-.002-6.081 3.562-3.997 6.409zm-43.275-2.275c-5.061 3.8-.762 9.627 4.3 5.829 3.9-2.93 2.09-7.065-1.147-7.067a5.113 5.113 0 0 0-3.158 1.238zm16.7 0c-4.3 3.287 0 9.118 4.3 5.825 3.4-2.606 1.417-6.8-1.695-6.8a4.278 4.278 0 0 0-2.608.975zm-8.1 0c-4.053 3.287.254 9.118 4.555 5.825 3.4-2.606 1.255-6.8-1.919-6.8a4.308 4.308 0 0 0-2.636.975zm67.32 12.918c2.782 3.8 9.362-1.009 6.581-5.067a3.408 3.408 0 0 0-2.737-1.343c-2.989-.003-6.122 3.558-3.844 6.409zm-67.576 1.016c2.787 3.8 9.367-1.267 6.586-5.066a3.416 3.416 0 0 0-2.739-1.347c-2.991 0-6.122 3.564-3.847 6.413zm-17.461 3.8c-8.863 8.107-4.81 5.067-5.065 13.937 0 5.069-1.77 5.576 2.278 10.642 2.787 3.55 1.771 5.071 6.834 7.857 4.3 2.282 8.1 8.615 13.159 12.419 3.291 2.531-.252-2.789-.506-6.59 0-2.534 1.52-11.909 2.022-15.207 1.269-7.094-1.768-31.931-6.072-31.677-.5 0-1.266 1.269-2.53 3.8-2.783 6.844-5.061 14.7-4.05 22.3a35.971 35.971 0 0 0 2.275 9.63c.508 1.012 5.317 9.378 2.784 5.324a41.153 41.153 0 0 1-4.047-7.1c-7.337-16.218 8.1-33.956.254-35.224-2.779 3.555-6.32 8.621-7.336 9.888zm114.9-7.853c-1.768.508-3.793 2.028-5.818 3.041s-4.3 1.776-5.822 2.537c-1.52.506-2.276 1.267-2.276 1.775s.756 1.012 2.53 2.281c2.025 1.009 5.062 3.294 8.1 4.557a16.837 16.837 0 0 0 9.615 1.522c3.8-.508 8.352-2.027 11.895-3.04s5.568-1.776 4.3-1.267a50.136 50.136 0 0 1-9.617 3.8 26 26 0 0 1-8.858 1.771 20.8 20.8 0 0 1-7.846-1.771 36.167 36.167 0 0 1-6.33-3.295c-1.771-1.013-3.037-2.026-4.047-2.026-.761 0-1.266.759-.507 2.28.765 1.267 2.783 3.551 3.8 5.325 1.266 1.519 1.517 2.534 2.783 4.052a22.575 22.575 0 0 0 5.564 4.058c2.029.759 3.547.25 5.822.25 2.024 0 5.317.508 7.6 0 2.53-.5 4.047-1.774 5.818-3.042s3.543-3.04 5.822-4.56c2.025-1.52 4.809-2.787 7.338-4.813a33.636 33.636 0 0 0 6.072-5.83c1.52-1.522 1.774-2.281.258-2.281s-5.066.759-8.1.759c-3.291-.254-6.327-1.517-8.859-2.276s-5.063-1.018-7.337-1.522-4.307-1.269-6.331-1.774a9.915 9.915 0 0 0-3.561-.771 8.192 8.192 0 0 0-2.01.259zm-21.007 6.08c3.037 4.058 9.363-1.013 6.582-4.817a3.525 3.525 0 0 0-2.827-1.383c-2.962-.001-6.009 3.38-3.762 6.2zm-33.911-2.28c-3.539 2.28-3.539 1.521-6.327 2.79-1.265.5-.757 5.065-.757 6.333v6.843c0 1.121 1.005 1.027 2.258.934a7.426 7.426 0 0 1 2.3.08c7.084 1.267 11.388.5 16.7-5.067 3.8-4.057 2.784-5.574 3.8-9.633 0-.5 2.024-3.548.757-3.548-.254 0-8.1 6.085-9.869 7.1a18.473 18.473 0 0 1-11.134 2.28c-1.016 0-2.029-.254-1.016-.5 5.063-.255 7.345.254 11.9-2.789 2.781-1.773 5.06-4.055 7.842-6.081.758-.5 1.012-.5.507-.762a11.093 11.093 0 0 0-5.595-1.332 23.244 23.244 0 0 0-11.368 3.352zm19.745 6.334c3.035 3.8 9.615-1.269 6.579-5.067a3.474 3.474 0 0 0-2.777-1.383c-2.91-.001-5.876 3.435-3.804 6.45zm8.348 3.039c2.783 3.8 9.363-1.269 6.583-5.067a3.41 3.41 0 0 0-2.737-1.347c-2.991.001-6.124 3.566-3.848 6.415zm-8.353.508a3.8 3.8 0 1 0 2.492-.851 4.3 4.3 0 0 0-2.494.852zm15.444 7.857c3.035 3.8 9.615-1.267 6.578-5.071a3.474 3.474 0 0 0-2.775-1.381c-2.912 0-5.883 3.435-3.805 6.453zm-8.1-.254c3.035 3.548 9.361-1.267 6.326-4.817a3.43 3.43 0 0 0-2.749-1.349c-2.974 0-6.045 3.509-3.58 6.166zm-4.307 7.6c3.041 4.058 9.617-1.01 6.58-4.813a3.2 3.2 0 0 0-2.719-1.5c-2.863.007-5.921 3.507-3.864 6.316zm8.355 1.014c3.035 4.057 9.617-1.014 6.58-4.812a3.23 3.23 0 0 0-2.685-1.39c-2.875.003-5.967 3.384-3.899 6.205zm1.016 1.521c.249.759.5 7.857.5 7.857.509.253 1.265-.5 1.519-1.014.254-1.013.507-6.59 0-6.59a5.625 5.625 0 0 0-1.773-.47c-.213.003-.329.062-.25.22zm-8.1 12.669c3.037 3.8 9.615-1.267 6.579-5.066a3.113 3.113 0 0 0-2.594-1.347c-2.899.003-6.078 3.571-3.989 6.416zm8.35 1.268c2.782 3.8 9.362-1.014 6.327-4.813a3.212 3.212 0 0 0-2.718-1.5c-2.85.003-5.86 3.509-3.614 6.316zm-44.037 4.058c-.762 2.027 1.262 3.548 4.556 5.825 8.348 6.084 25.05 11.406 31.631.508a3.348 3.348 0 0 0-.758-3.8c-1.012-1.009-3.794 1.268-5.823 1.776a38.9 38.9 0 0 1-16.291-.656c-3.268-.786-4.96-1.576-3.7-1.121 5.565 2.03 22.017 1.776 25.053-1.774 1.012-1.013 1.265-2.534-.254-3.292a37.317 37.317 0 0 0-17.209-4.057 17.263 17.263 0 0 0-.847-.022c-5.086.001-14.449 2.064-16.362 6.616zm36.444 3.039c3.036 3.8 9.616-1.268 6.581-5.069a3.214 3.214 0 0 0-2.668-1.383c-2.879.003-5.987 3.445-3.914 6.456zm9.62-4.817c-.254 0-.254.254-.254.759 1.52 11.405 25.564 17.23 25.31 17.23-10.881-1.267-22.019-5.571-25.564-15.961a5.571 5.571 0 0 0-.756-2.028c0-.254-.254 0-.254.508-1.52 4.811 4.047 14.951 7.59 18.246 7.338 7.092 18.984 3.8 27.842 1.267 2.025-.508 2.025-.508 1.266-.762a14.024 14.024 0 0 1-3.8-2.536c-4.943-5.179-21.256-16.932-29.626-16.932a6.844 6.844 0 0 0-1.758.213z" transform="rotate(135 684.714 468.912)" style="fill:rgba(172,196,198,.04)"/>
        <g>
            <path data-name="Union 2" d="M133.141.206c-3.28 1.09-.271 26.189 0 29.734.275 6.551.549 8.184.275 9.548-1.094 3.548-1.639 21.553 0 22.1.275.274 1.094.274 1.643-.548 1.369-2.183 2.735-21 2.735-25.1 0-3.816-.275-34.642-1.915-35.733a4.646 4.646 0 0 0-2.737 0zm-48.135.817c-5.469 1.364-1.094 23.189.548 27.284 3.826 9.544 12.855 19.638 22.428 23.187 8.753 3.272 15.315 1.09 21.057-6.276 1.369-1.908.826-1.908-.542-1.908-9.029-1.093-16.959-2.183-23.8-9-3.829-4.089-9.029-14.729-11.485-20.458-.824-1.636 0 0 1.914 3 6.017 10.095 9.843 21 22.975 22.916 3.006.543 7.656 1.364 9.57 1.09 8.48-.547-24.339-31.641-28.716-34.373-4.811-3.117-9.831-5.6-12.835-5.6a3.939 3.939 0 0 0-1.114.138zm58.529 36.555a2.636 2.636 0 0 0-2.182 1.908c-.824 2.454 5.742 9 8.205 10.095 9.786 4.78 21.964 4.49 26.238 4.2.646-.044 1.11-.085 1.362-.111-15.577 2.451-28.153 1.624-37.723-12.551-1.914-2.728 1.094 8.184 1.369 8.73 3.831 12 15.861 18.546 27.076 13.91 5.468-2.451 10.665-3.815 16.136-6 1.366-.547 10.395-4.367 10.12-6a.268.268 0 0 0-.275-.274c-.817-.546-7.383-1.366-9.3-1.91-3.831-1.364-11.762-6.274-15.592-8.731-6.952-3.8-9.8-5.694-13.991-5.7-2.732.008-6.041.817-11.443 2.433zm-65.912 1.09c-3.01 0-3.285 5.455-3.285 10.639-.269 16.368 4.924 34.646 21.882 40.648 2.188.821 27.626 5.459 23.248.274a7.146 7.146 0 0 0-3.831-1.64c-18.865-2.449-27.07-11.453-31.45-30-.545-1.912-.545-3.272 0-1.639 4.648 20.463 21.058 29.467 34.187 30.011 2.736 0-7.106-14.46-7.932-15.55-5.164-8.409-23.859-32.739-32.67-32.738zM52.459 52.854c.021.145.041.292.065.437a3.344 3.344 0 0 0-.106-1.508c-.045 0-.062.332.041 1.071zm0 1.09c-.817 4.637-2.46 12-4.374 16.368C42.617 84.5 41.249 81.5 46.442 95.684c2.74 7.638 1.1 5.454 8.482 11.182 7.385 5.459 10.94 8.457 20.512 8.457 2.463 0 3.008 0 2.463-.821-1.918-2.182-9.029-5.455-12.035-7.637-4.1-3-8.753-6.824-10.391-11.732-1.1-3.276-4.38-21.281-2.463-23.731 0-.274 1.094 10.634 1.366 12.546 1.371 8.184 12.032 27.008 19.692 25.1 6.293-1.639-4.1-24.008-6.291-27.011-5.659-8.066-13.717-18.523-15.254-28.75a8.396 8.396 0 0 1-.064.657zm72.485 11.731c3.282 4.094 10.393-1.365 7.111-5.456a3.764 3.764 0 0 0-3-1.487c-3.143-.001-6.35 3.697-4.111 6.942zm11.21 1.09c3.008 4.094 10.123-1.365 7.114-5.454a3.8 3.8 0 0 0-3.041-1.489c-3.206 0-6.512 3.697-4.073 6.943zM9.246 78.5c2.463 7.914-15.045 35.463 21.06 40.1a2.927 2.927 0 0 0 2.46-.274c1.369-1.092-4.648-5.454-5.742-6.547-7.384-7.634-13.676-26.729-14.5-40.372 0-.271 7.663 29.187 13.674 37.374 3.01 3.818 5.2 5.73 6.562 6.547 1.342.782 2.292.842 2.944.392a3.881 3.881 0 0 0-.2 5.063 4.282 4.282 0 0 0 6.013.274 4.465 4.465 0 0 0 .549-.465 3.557 3.557 0 0 0 .545 3.737c3.012 4.089 10.12-1.1 6.836-5.185-1.695-2.462-4.693-1.8-6.4-.024a3.7 3.7 0 0 0-.436-3.8c-1.769-2.2-4.651-1.715-6.417-.111 2.26-3.353-1.3-16.275-1.517-17.343-1.365-6.276-1.918-7.91-6.017-12.82-4.375-5.73-13.128-14.461-12.855-22.1.049-1.349-.182-1.923-.589-1.923-1.89.008-7.55 12.538-5.97 17.477zm120.615-4.912c3.284 4.1 10.12-1.09 7.108-5.185a3.781 3.781 0 0 0-3.1-1.608c-3.183-.001-6.436 3.766-4.008 6.792zm-9.3.544c3.013 4.094 10.121-1.092 6.838-5.456a3.374 3.374 0 0 0-2.8-1.446c-3.113 0-6.499 3.836-4.038 6.902zm17.777 1.368c3.286 4.1 10.393-1.085 7.111-5.18a3.736 3.736 0 0 0-3.057-1.611c-3.12-.009-6.275 3.763-4.054 6.791zm-8.2 7.372c3.28 4.089 10.116-1.366 7.108-5.459a3.8 3.8 0 0 0-3.04-1.489c-3.206-.004-6.506 3.693-4.066 6.944zm-10.4.811c3.28 4.094 10.123-1.365 7.11-5.454a3.684 3.684 0 0 0-2.955-1.448c-3.228-.004-6.611 3.833-4.151 6.899zm20.239 1.094c3.286 4.09 10.393-1.364 7.111-5.458a3.645 3.645 0 0 0-2.916-1.448c-3.163-.003-6.447 3.834-4.191 6.903zm-14.767 6c3.286 4.089 10.391-1.364 7.111-5.455a3.65 3.65 0 0 0-2.919-1.447c-3.16-.005-6.444 3.825-4.188 6.897zm9.574 1.365c3.005 4.094 10.119-1.361 6.836-5.456a3.476 3.476 0 0 0-2.878-1.487c-3.087-.005-6.396 3.692-3.954 6.938zm-10.672-.548a38.958 38.958 0 0 1-8.749 9.006c-1.643 1.086-8.478 5.727-9.025 6.819 0 .543-.549.817-.275 1.364a1.556 1.556 0 0 0 1.643.544c2.875-.718 11.839-8.554 15.858-12.871-.3 8.819-2.436 27.386.008 33.606.542 1.633 1.636 2.182 1.911 1.09.275-.817.275-35.463.275-35.737a8.758 8.758 0 0 0-.316-1.056c.58-.6.538-.685.316-1.127 0-.547-.549-1.639-.549-2.18-.119-.123-.19-.246-.3-.246-.134-.006-.337.181-.793.783zm12.311 3.549c-1.639 3.818 16.411 17.734 21.607 19.641a42.723 42.723 0 0 0 16.552 2.763c-6.376.521-11.485.728-17.646-1.941-13.13-5.733-13.673-12.007-22.152-18.827-.549-.543-1.094-.274-1.369.274-1.914 1.908-2.463 4.637-.275 6.82 3.009 2.728 3.829 3.546 5.2 7.638 3.28 12.822 4.923 8.727 13.67 14.186 4.655 2.729 6.84.817 11.218.817.817.275 15.313-4.362 18.321-5.179 17.234-4.909 7.115-3.82 1.643-6.277-6.294-3-12.856-10.364-18.873-14.185a38.114 38.114 0 0 0-18.052-4.911c-.91 0-6.945-.946-9.095-.946-.425-.005-.7.033-.745.122zm-53.335 7.913c3.008 4.093 10.123-1.366 6.836-5.455a3.467 3.467 0 0 0-2.878-1.489c-3.086-.005-6.393 3.688-3.954 6.939zm15.597 3.544c3.28 4.09 10.116-1.364 7.108-5.454a3.686 3.686 0 0 0-2.956-1.45c-3.23-.004-6.614 3.832-4.152 6.904zm-8.753 1.092c3.008 4.089 10.119-1.092 7.114-5.455a3.7 3.7 0 0 0-2.96-1.45c-3.23-.005-6.613 3.831-4.153 6.9zM78.17 112.6c3.005 4.362 10.123-1.093 6.836-5.185a3.492 3.492 0 0 0-2.894-1.493c-3.087-.002-6.38 3.636-3.942 6.678zm-35.282 2.18c3.012 4.094 10.123-1.364 6.84-5.454a3.37 3.37 0 0 0-2.8-1.45c-3.117 0-6.5 3.836-4.04 6.903zm56.069 1.1c3.008 4.362 10.119-1.1 6.836-5.185a3.5 3.5 0 0 0-2.9-1.495c-3.086-.006-6.373 3.632-3.936 6.675zm-11.491 1.086c3.282 4.1 10.393-1.36 7.114-5.455a3.758 3.758 0 0 0-3-1.487c-3.142-.005-6.349 3.691-4.114 6.937zm-83.139 3.543c3.554 7.365.268 4.636 7.931 9.271 2.2 1.283 5.5 1.459 8.592.453a12.838 12.838 0 0 0-5.311 5.55c-1.367 3.82-3.006 4.641-1.638 9.274 1.087 4.1 1.366 7.639 2.456 11.461.275 1.092.275 1.364.824.818 1.914-4.64 2.463-5.456 5.742-9 3.012-3.273 7.387-5.452 8.205-10.1 0-1.086.824-7.361-.275-7.361a11.328 11.328 0 0 0-4.919 1.639 9.9 9.9 0 0 0-4.379 3.815c-.751 1-4.481 7.942-4.9 8.9a24.642 24.642 0 0 1 3.53-8.36c2.735-3.816 7.115-7.361 6.84-7.361a7.183 7.183 0 0 0-4.325-.044 12.129 12.129 0 0 0 2.407-1.6c3.83-3.272-.818-.274-2.732-.274-3.285 0-10.121-2.182-14.227-6-.271-.276 7.115 3.819 8.48 4.369 2.735.815 8.48.54 10.666-1.366 1.643-1.365-5.742-8.457-12.58-8.731A25.486 25.486 0 0 1 .5 111.779a.705.705 0 0 0-.293-.089c-1.278.001 3.86 8.305 4.12 8.819zm48.405-4.638c-4.651 3.546 0 9.821 4.654 6.276 3.679-2.808 1.532-7.326-1.833-7.326a4.649 4.649 0 0 0-2.821 1.05zm27.079 6c3.285 4.09 10.121-1.364 7.116-5.452A3.655 3.655 0 0 0 84 114.968c-3.161 0-6.443 3.838-4.189 6.905zm12.58 1.908c3.284 4.093 10.12-1.365 7.111-5.455a3.683 3.683 0 0 0-2.956-1.447c-3.23-.001-6.617 3.835-4.155 6.904zm-32-2.731a2.907 2.907 0 0 0-1.094.819 9.166 9.166 0 0 1-.82 1.639c-.275.274 17.5-2.458 19.966-4.638.544-.547 1.367-1.635 1.093-1.908 0-.008-.021-.015-.062-.015-1.141.001-17.497 3.582-19.082 4.104zm-32 6.281a.953.953 0 0 1 .275.543c3.557 4.369 10.393-1.09 7.111-5.454a4.094 4.094 0 0 0-3.257-1.627c-2.991.002-5.902 3.2-4.128 6.539zm46.77-4.64c-5.2 3.544-10.117 12.82-10.392 18.822 0 0 2.463 9.548 2.463 9.821.545 1.908 4.1 4.912 5.742 6 3.83 2.45 15.317 13.91 13.4 10.638-3.282-5.459-2.459-11.46-2.459-17.732 0-2.729.273-7.641 0-10.1-.275-2.724-4.379-14.185-6.84-13.364-1.094.543-2.188 3-3.006 5.455a18.992 18.992 0 0 0-1.369 8.731c.549 4.636 6.562 16.093 6.562 16.093-1.367-.543-4.924-8.183-5.741-9.548-3.008-6.545-3.282-9.277-.55-16.094.825-2.73 3.559-7.1 3.834-9.274 0-.227-.046-.361-.2-.361-.217.009-.642.275-1.443.915zm9.025 6c3.284 4.1 10.393-1.36 7.115-5.454a3.368 3.368 0 0 0-2.8-1.447c-3.132 0-6.568 3.834-4.315 6.902zm-46.766-2.448c-5.469 4.089-.824 10.363 4.648 6.274 4.215-3.154 2.258-7.605-1.24-7.608a5.538 5.538 0 0 0-3.408 1.334zm18.049 0c-4.651 3.539 0 9.816 4.652 6.27 3.677-2.805 1.532-7.324-1.831-7.324a4.634 4.634 0 0 0-2.821 1.054zm-8.75 0c-4.38 3.539.275 9.816 4.923 6.27 3.679-2.805 1.357-7.324-2.074-7.324a4.667 4.667 0 0 0-2.849 1.054zm72.751 13.906c3.006 4.094 10.117-1.086 7.112-5.455a3.688 3.688 0 0 0-2.957-1.446c-3.23-.002-6.616 3.832-4.154 6.901zm-73.028 1.094c3.012 4.09 10.123-1.364 7.118-5.454a3.7 3.7 0 0 0-2.96-1.45c-3.232.001-6.618 3.837-4.158 6.904zm-18.87 4.09h.005c-9.578 8.727-5.2 5.455-5.473 15 0 5.456-1.912 6 2.461 11.456 3.012 3.822 1.914 5.459 7.385 8.457 4.65 2.457 8.753 9.274 14.221 13.369 3.557 2.725-.272-3-.546-7.094 0-2.728 1.643-12.82 2.186-16.37 1.371-7.637-1.911-34.373-6.562-34.1-.545 0-1.369 1.366-2.735 4.09-3.008 7.367-5.469 15.822-4.376 24.006A38.6 38.6 0 0 0 36.6 174.52c.549 1.089 5.746 10.095 3.009 5.731a44.259 44.259 0 0 1-4.374-7.641c-7.929-17.458 8.75-36.553.275-37.918-3.01 3.822-6.84 9.276-7.938 10.639zm124.168-8.453c-1.911.547-4.1 2.183-6.287 3.273s-4.652 1.912-6.291 2.731c-1.643.544-2.46 1.364-2.46 1.911s.817 1.089 2.735 2.455c2.188 1.086 5.47 3.546 8.754 4.905a18.258 18.258 0 0 0 10.391 1.639c4.1-.547 9.026-2.182 12.855-3.272s6.017-1.912 4.651-1.364a54.3 54.3 0 0 1-10.393 4.089 28.192 28.192 0 0 1-9.572 1.907 22.553 22.553 0 0 1-8.48-1.907 39.135 39.135 0 0 1-6.84-3.547c-1.914-1.09-3.282-2.18-4.374-2.18-.822 0-1.369.817-.548 2.454.826 1.364 3.008 3.823 4.106 5.733 1.369 1.635 1.639 2.728 3.008 4.362a24.392 24.392 0 0 0 6.013 4.369c2.192.817 3.833.27 6.291.27 2.187 0 5.746.547 8.21 0 2.735-.543 4.374-1.91 6.287-3.275s3.829-3.272 6.291-4.909c2.188-1.636 5.2-3 7.931-5.181a36.287 36.287 0 0 0 6.562-6.276c1.643-1.639 1.918-2.455.279-2.455s-5.474.817-8.754.817c-3.557-.274-6.838-1.633-9.574-2.45s-5.472-1.1-7.929-1.639-4.655-1.366-6.842-1.91a10.751 10.751 0 0 0-3.849-.83 8.886 8.886 0 0 0-2.171.28zm-22.7 6.545c3.282 4.369 10.119-1.09 7.114-5.185a3.815 3.815 0 0 0-3.055-1.489c-3.199-.001-6.494 3.639-4.06 6.674zm-36.647-2.454c-3.825 2.454-3.825 1.637-6.838 3-1.367.54-.818 5.452-.818 6.817v7.366c0 1.207 1.086 1.106 2.44 1.006a8.056 8.056 0 0 1 2.483.086c7.656 1.364 12.307.543 18.049-5.455 4.1-4.367 3.009-6 4.1-10.37 0-.54 2.187-3.819.818-3.819-.275 0-8.75 6.551-10.665 7.641a20.028 20.028 0 0 1-12.029 2.459c-1.1 0-2.192-.274-1.1-.542 5.472-.275 7.937.274 12.86-3 3.005-1.908 5.468-4.365 8.474-6.547.82-.543 1.094-.543.548-.821a12.026 12.026 0 0 0-6.046-1.434 25.191 25.191 0 0 0-12.278 3.613zm21.338 6.819c3.28 4.093 10.391-1.366 7.11-5.455a3.759 3.759 0 0 0-3-1.489c-3.141 0-6.35 3.699-4.111 6.944zm9.022 3.272c3.008 4.093 10.119-1.366 7.114-5.455a3.69 3.69 0 0 0-2.957-1.45c-3.233 0-6.619 3.838-4.159 6.905zm-9.027.547a4.106 4.106 0 1 0 4.923 6.549 4.058 4.058 0 0 0-2.229-7.465 4.656 4.656 0 0 0-2.696.916zm16.69 8.457c3.28 4.089 10.391-1.364 7.108-5.459a3.759 3.759 0 0 0-3-1.487c-3.144.001-6.35 3.698-4.11 6.947zm-8.754-.274c3.28 3.819 10.116-1.364 6.836-5.185a3.712 3.712 0 0 0-2.971-1.452c-3.212 0-6.527 3.777-3.867 6.638zm-4.655 8.184c3.286 4.369 10.393-1.088 7.111-5.181a3.466 3.466 0 0 0-2.939-1.61c-3.092.001-6.397 3.768-4.174 6.792zm9.029 1.092c3.28 4.367 10.393-1.092 7.111-5.18a3.5 3.5 0 0 0-2.9-1.5c-3.107.004-6.447 3.644-4.213 6.68zm1.1 1.637c.269.817.544 8.457.544 8.457.55.272 1.367-.542 1.642-1.092.275-1.09.548-7.094 0-7.094a6.1 6.1 0 0 0-1.916-.506c-.234.002-.36.065-.274.232zm-8.754 13.638c3.282 4.094 10.391-1.364 7.11-5.454a3.368 3.368 0 0 0-2.8-1.45c-3.137.001-6.571 3.837-4.314 6.904zm9.023 1.365c3.006 4.093 10.117-1.092 6.838-5.181a3.475 3.475 0 0 0-2.937-1.61c-3.08-.002-6.333 3.77-3.906 6.791zm-47.59 4.369c-.824 2.182 1.363 3.819 4.924 6.27 9.022 6.549 27.071 12.278 34.183.547a3.594 3.594 0 0 0-.82-4.094c-1.094-1.086-4.1 1.365-6.293 1.912-6.587 1.343-13.336.318-17.6-.706-3.532-.846-5.36-1.7-4-1.206 6.014 2.186 23.793 1.912 27.074-1.91 1.094-1.09 1.367-2.728-.275-3.544-5.468-3-12.58-4.367-18.6-4.367a17.51 17.51 0 0 0-.915-.024c-5.493.001-15.614 2.222-17.682 7.122zm39.385 3.272c3.281 4.089 10.392-1.365 7.112-5.456a3.478 3.478 0 0 0-2.883-1.489c-3.111-.002-6.47 3.698-4.229 6.945zm10.4-5.185c-.275 0-.275.274-.275.817 1.643 12.278 27.627 18.548 27.352 18.548-11.759-1.364-23.8-6-27.627-17.182a5.983 5.983 0 0 0-.817-2.183c0-.274-.275 0-.275.547-1.643 5.179 4.374 16.094 8.2 19.641 7.931 7.634 20.516 4.089 30.088 1.364 2.188-.547 2.188-.547 1.369-.821a15.161 15.161 0 0 1-4.1-2.73c-5.342-5.575-22.971-18.227-32.016-18.227a7.422 7.422 0 0 0-1.907.226z" transform="rotate(-161 158.705 221.17)" style="fill:rgba(172,196,198,.04)"/>
            <path data-name="Union 1" d="M147.744.229c-3.639 1.213-.3 29.147 0 33.093.3 7.29.609 9.108.3 10.626-1.214 3.949-1.819 23.988 0 24.594.3.3 1.214.3 1.823-.61 1.519-2.43 3.035-23.377 3.035-27.934 0-4.247-.3-38.555-2.125-39.769a5.141 5.141 0 0 0-3.037 0zm-53.414.909c-6.069 1.518-1.214 25.809.608 30.366 4.245 10.622 14.262 21.857 24.888 25.806 9.713 3.642 16.994 1.213 23.367-6.985 1.519-2.124.917-2.124-.6-2.124-10.019-1.216-18.819-2.43-26.407-10.022-4.249-4.55-10.019-16.393-12.744-22.769-.914-1.821 0 0 2.124 3.339 6.677 11.235 10.922 23.376 25.495 25.5 3.336.6 8.5 1.518 10.619 1.213 9.41-.609-27.009-35.215-31.865-38.255C104.472 3.743 98.9.975 95.569.975a4.359 4.359 0 0 0-1.239.163zm64.949 40.684a2.929 2.929 0 0 0-2.421 2.124c-.914 2.731 6.372 10.016 9.1 11.235 10.859 5.32 24.373 5 29.116 4.68a43.241 43.241 0 0 0 1.511-.124c-17.286 2.728-31.241 1.808-41.861-13.969-2.124-3.036 1.214 9.108 1.519 9.716 4.252 13.357 17.6 20.64 30.046 15.481 6.068-2.728 11.835-4.246 17.905-6.676 1.516-.609 11.535-4.861 11.23-6.679a.3.3 0 0 0-.3-.3c-.907-.607-8.193-1.521-10.316-2.125-4.252-1.518-13.052-6.983-17.3-9.717-7.714-4.227-10.871-6.337-15.526-6.34-3.037-.005-6.709.895-12.703 2.694zm-73.142 1.213c-3.341 0-3.645 6.071-3.645 11.841-.3 18.217 5.464 38.56 24.282 45.24 2.428.913 30.656 6.076 25.8.3a7.919 7.919 0 0 0-4.252-1.825C107.386 95.866 98.281 85.844 93.42 65.2c-.6-2.128-.6-3.642 0-1.824 5.158 22.774 23.368 32.8 37.937 33.4 3.036 0-7.885-16.093-8.8-17.306-5.732-9.36-26.477-36.439-36.257-36.438zM58.213 58.824c.024.162.046.325.072.487a3.732 3.732 0 0 0-.118-1.678c-.05-.001-.067.367.046 1.191zm0 1.213c-.907 5.161-2.73 13.36-4.853 18.217-6.068 15.791-7.586 12.45-1.823 28.238 3.04 8.5 1.221 6.07 9.413 12.445 8.2 6.076 12.14 9.413 22.762 9.413 2.733 0 3.338 0 2.733-.913-2.128-2.428-10.019-6.071-13.355-8.5-4.549-3.342-9.713-7.595-11.53-13.057-1.219-3.642-4.86-23.68-2.735-26.407 0-.3 1.214 11.835 1.516 13.963 1.522 9.108 13.352 30.059 21.852 27.934 6.983-1.824-4.555-26.72-6.981-30.062-6.279-8.977-15.221-20.615-16.927-32-.015.228-.037.47-.072.729zm80.435 13.056c3.642 4.556 11.533-1.519 7.891-6.073a4.172 4.172 0 0 0-3.33-1.655c-3.487.001-7.045 4.116-4.561 7.728zm12.44 1.213c3.338 4.556 11.233-1.519 7.894-6.07a4.216 4.216 0 0 0-3.374-1.658c-3.558.001-7.226 4.116-4.52 7.728zM10.26 87.366c2.733 8.808-16.7 39.469 23.37 44.63 1.517.3 2.425 0 2.73-.3 1.519-1.215-5.158-6.07-6.372-7.286-8.194-8.5-15.176-29.749-16.088-44.933 0-.3 8.5 32.484 15.174 41.6 3.341 4.249 5.767 6.377 7.282 7.286 1.489.871 2.543.937 3.267.437a4.329 4.329 0 0 0-.225 5.634 4.742 4.742 0 0 0 6.672.3 4.959 4.959 0 0 0 .609-.518 3.968 3.968 0 0 0 .6 4.159c3.342 4.55 11.23-1.221 7.586-5.771-1.881-2.74-5.208-2-7.1-.026a4.131 4.131 0 0 0-.484-4.224c-1.963-2.453-5.161-1.909-7.121-.124 2.508-3.731-1.445-18.114-1.684-19.3-1.514-6.985-2.128-8.8-6.677-14.268-4.848-6.382-14.561-16.099-14.258-24.597.054-1.5-.2-2.14-.653-2.14-2.1 0-8.381 13.945-6.628 19.441zM144.1 81.9c3.644 4.558 11.23-1.213 7.888-5.771a4.192 4.192 0 0 0-3.438-1.79c-3.53 0-7.14 4.193-4.45 7.561zm-10.321.606c3.344 4.556 11.232-1.215 7.588-6.073a3.741 3.741 0 0 0-3.107-1.609c-3.448 0-7.207 4.269-4.476 7.682zm19.727 1.518c3.647 4.558 11.533-1.207 7.891-5.765a4.141 4.141 0 0 0-3.392-1.793c-3.457-.001-6.958 4.192-4.493 7.557zm-9.1 8.205c3.639 4.55 11.226-1.521 7.888-6.076a4.207 4.207 0 0 0-3.373-1.658c-3.549.005-7.221 4.116-4.507 7.734zm-11.538.9c3.639 4.556 11.233-1.519 7.889-6.07a4.084 4.084 0 0 0-3.279-1.612c-3.578.003-7.332 4.273-4.602 7.685zm22.459 1.218c3.647 4.552 11.533-1.518 7.891-6.074a4.04 4.04 0 0 0-3.236-1.612c-3.506.002-7.15 4.273-4.647 7.688zm-16.387 6.676c3.647 4.55 11.53-1.518 7.891-6.071a4.046 4.046 0 0 0-3.239-1.61c-3.503.001-7.147 4.27-4.644 7.683zm10.624 1.519c3.335 4.556 11.229-1.515 7.586-6.073a3.854 3.854 0 0 0-3.193-1.655c-3.422.003-7.094 4.118-4.385 7.73zm-11.842-.61a43.3 43.3 0 0 1-9.708 10.023c-1.823 1.209-9.408 6.374-10.014 7.589 0 .6-.609.909-.3 1.518a1.724 1.724 0 0 0 1.823.606c3.19-.8 13.137-9.52 17.6-14.325-.337 9.816-2.7 30.48.009 37.4.6 1.818 1.816 2.428 2.121 1.213.3-.909.3-39.469.3-39.773a9.77 9.77 0 0 0-.35-1.175c.643-.671.6-.762.35-1.255 0-.609-.609-1.824-.609-2.427-.132-.137-.21-.274-.333-.274-.15.005-.375.213-.881.882zm13.661 3.95c-1.819 4.249 18.211 19.737 23.977 21.86a47.284 47.284 0 0 0 18.367 3.075c-7.076.579-12.744.81-19.582-2.161-14.571-6.38-15.173-13.363-24.582-20.954-.609-.6-1.214-.3-1.519.3-2.124 2.124-2.733 5.161-.3 7.59 3.339 3.036 4.249 3.946 5.77 8.5 3.639 14.271 5.463 9.713 15.17 15.788 5.165 3.037 7.591.909 12.449.909.907.306 16.993-4.855 20.331-5.764 19.124-5.464 7.9-4.252 1.823-6.986-6.984-3.34-14.266-11.535-20.943-15.787-6.072-3.642-13.05-5.161-20.032-5.465-1.01 0-7.707-1.053-10.092-1.053-.474.009-.779.052-.829.15zm-59.185 8.807c3.338 4.555 11.233-1.521 7.586-6.071a3.844 3.844 0 0 0-3.193-1.658c-3.422.002-7.091 4.116-4.385 7.731zm17.3 3.945c3.639 4.552 11.226-1.518 7.888-6.07a4.086 4.086 0 0 0-3.28-1.613c-3.573.002-7.329 4.271-4.596 7.685zm-9.698 1.217c3.338 4.55 11.229-1.215 7.894-6.071a4.1 4.1 0 0 0-3.285-1.613c-3.588-.001-7.342 4.269-4.609 7.684zm-13.053 5.467c3.335 4.855 11.233-1.216 7.586-5.771a3.871 3.871 0 0 0-3.211-1.662c-3.429-.001-7.083 4.048-4.378 7.432zm-39.151 2.427c3.342 4.556 11.233-1.518 7.591-6.07a3.737 3.737 0 0 0-3.108-1.613c-3.463-.001-7.217 4.268-4.487 7.682zm62.219 1.219c3.338 4.855 11.229-1.219 7.586-5.771a3.875 3.875 0 0 0-3.216-1.663c-3.43-.001-7.078 4.048-4.374 7.433zm-12.755 1.208c3.642 4.558 11.533-1.513 7.894-6.071a4.166 4.166 0 0 0-3.329-1.655c-3.487 0-7.045 4.114-4.565 7.726zM4.8 134.121c3.944 8.2.3 5.159 8.8 10.319 2.437 1.428 6.1 1.624 9.535.5a14.271 14.271 0 0 0-5.894 6.177c-1.517 4.252-3.336 5.165-1.817 10.322 1.207 4.558 1.516 8.5 2.725 12.756.3 1.215.3 1.518.914.91 2.124-5.164 2.733-6.073 6.372-10.019 3.342-3.643 8.2-6.068 9.105-11.238 0-1.209.914-8.192-.3-8.192a12.545 12.545 0 0 0-5.458 1.824 11 11 0 0 0-4.859 4.246c-.833 1.11-4.973 8.839-5.435 9.908a27.471 27.471 0 0 1 3.917-9.3c3.035-4.248 7.9-8.192 7.591-8.192a7.948 7.948 0 0 0-4.8-.049 13.457 13.457 0 0 0 2.671-1.777c4.25-3.642-.908-.3-3.032-.3-3.645 0-11.232-2.428-15.788-6.679-.3-.307 7.9 4.25 9.41 4.862 3.035.907 9.41.6 11.836-1.521 1.823-1.519-6.372-9.413-13.96-9.717A28.22 28.22 0 0 1 .55 124.405a.781.781 0 0 0-.325-.1c-1.413.002 4.288 9.244 4.575 9.816zm53.715-5.162c-5.161 3.946 0 10.931 5.164 6.985 4.082-3.125 1.7-8.154-2.034-8.154a5.149 5.149 0 0 0-3.129 1.169zm30.049 6.68c3.645 4.552 11.232-1.518 7.9-6.068a4.052 4.052 0 0 0-3.243-1.616c-3.515-.001-7.157 4.27-4.656 7.684zm13.96 2.124c3.644 4.555 11.23-1.519 7.891-6.071a4.083 4.083 0 0 0-3.28-1.61c-3.584-.004-7.342 4.266-4.61 7.681zm-35.509-3.04a3.226 3.226 0 0 0-1.214.912 10.211 10.211 0 0 1-.909 1.824c-.3.3 19.423-2.736 22.155-5.162.6-.609 1.517-1.819 1.213-2.124 0-.009-.024-.016-.069-.016-1.266-.001-19.416 3.985-21.175 4.566zm-35.511 6.99a1.062 1.062 0 0 1 .3.6c3.947 4.862 11.533-1.213 7.891-6.07a4.539 4.539 0 0 0-3.614-1.81c-3.313.004-6.543 3.567-4.575 7.28zm51.9-5.164c-5.767 3.945-11.227 14.268-11.532 20.948 0 0 2.733 10.626 2.733 10.931.6 2.124 4.549 5.467 6.372 6.682 4.25 2.727 17 15.481 14.869 11.839-3.642-6.076-2.728-12.754-2.728-19.734 0-3.037.3-8.5 0-11.236-.3-3.031-4.859-15.787-7.591-14.874-1.214.6-2.428 3.336-3.336 6.071a21.193 21.193 0 0 0-1.519 9.717c.609 5.159 7.282 17.911 7.282 17.911-1.517-.6-5.464-9.107-6.371-10.626-3.338-7.285-3.642-10.325-.611-17.912.915-3.039 3.95-7.9 4.254-10.322 0-.253-.052-.4-.222-.4-.237-.002-.709.294-1.598 1.005zm10.014 6.677c3.644 4.558 11.533-1.513 7.9-6.07a3.734 3.734 0 0 0-3.11-1.61c-3.475-.001-7.288 4.265-4.788 7.681zm-51.9-2.725c-6.069 4.55-.914 11.534 5.158 6.983 4.677-3.511 2.506-8.464-1.376-8.467a6.135 6.135 0 0 0-3.775 1.483zm20.029 0c-5.161 3.939 0 10.925 5.162 6.979 4.081-3.122 1.7-8.151-2.032-8.151a5.133 5.133 0 0 0-3.123 1.171zm-9.71 0c-4.861 3.939.3 10.925 5.463 6.979 4.082-3.122 1.505-8.151-2.3-8.151a5.169 5.169 0 0 0-3.156 1.171zm80.731 15.477c3.336 4.556 11.227-1.209 7.892-6.071a4.088 4.088 0 0 0-3.282-1.609c-3.578-.003-7.335 4.263-4.603 7.68zM51.536 157.2c3.342 4.552 11.233-1.518 7.9-6.07a4.1 4.1 0 0 0-3.285-1.613c-3.588-.005-7.345 4.265-4.615 7.683zM30.6 161.748h.006c-10.628 9.713-5.769 6.071-6.073 16.7 0 6.073-2.122 6.68 2.731 12.75 3.342 4.253 2.124 6.076 8.2 9.413 5.16 2.734 9.713 10.322 15.78 14.879 3.947 3.033-.3-3.342-.606-7.895 0-3.036 1.823-14.268 2.425-18.22 1.522-8.5-2.121-38.255-7.282-37.951-.6 0-1.519 1.521-3.035 4.552-3.338 8.2-6.069 17.609-4.856 26.717a43.062 43.062 0 0 0 2.728 11.538c.609 1.212 6.377 11.235 3.339 6.379a49.294 49.294 0 0 1-4.853-8.5c-8.8-19.43 9.71-40.682.3-42.2-3.342 4.25-7.589 10.32-8.804 11.838zm137.788-9.408c-2.121.609-4.549 2.43-6.977 3.643s-5.162 2.128-6.981 3.04c-1.823.606-2.73 1.518-2.73 2.127s.907 1.212 3.035 2.733c2.428 1.209 6.07 3.946 9.714 5.459a20.208 20.208 0 0 0 11.53 1.824c4.552-.609 10.016-2.428 14.265-3.642s6.677-2.128 5.161-1.518a60.155 60.155 0 0 1-11.533 4.55 31.2 31.2 0 0 1-10.622 2.122 24.965 24.965 0 0 1-9.41-2.122 43.386 43.386 0 0 1-7.591-3.947c-2.124-1.213-3.642-2.427-4.853-2.427-.912 0-1.519.909-.608 2.731.917 1.518 3.338 4.255 4.556 6.38 1.519 1.819 1.819 3.036 3.338 4.855a27.072 27.072 0 0 0 6.672 4.862c2.433.909 4.253.3 6.981.3 2.427 0 6.377.609 9.111 0 3.035-.6 4.853-2.125 6.977-3.644s4.249-3.642 6.981-5.464c2.428-1.821 5.767-3.339 8.8-5.767a40.319 40.319 0 0 0 7.282-6.985c1.823-1.824 2.128-2.733.309-2.733s-6.075.909-9.714.909c-3.947-.3-7.588-1.818-10.624-2.727s-6.072-1.219-8.8-1.824-5.165-1.521-7.592-2.125a11.9 11.9 0 0 0-4.271-.924 9.833 9.833 0 0 0-2.41.313zm-25.191 7.285c3.642 4.862 11.229-1.213 7.894-5.771a4.229 4.229 0 0 0-3.391-1.654c-3.554 0-7.208 4.046-4.507 7.424zm-40.667-2.731c-4.244 2.731-4.244 1.822-7.588 3.343-1.517.6-.908 6.068-.908 7.588v8.2c0 1.343 1.205 1.231 2.708 1.119a8.913 8.913 0 0 1 2.755.1c8.5 1.518 13.657.6 20.029-6.071 4.555-4.861 3.339-6.679 4.555-11.541 0-.6 2.427-4.25.908-4.25-.3 0-9.71 7.29-11.835 8.5a22.17 22.17 0 0 1-13.354 2.726c-1.219 0-2.433-.3-1.219-.6 6.072-.306 8.808.3 14.27-3.342 3.335-2.124 6.068-4.858 9.4-7.286.909-.6 1.214-.6.608-.913a13.313 13.313 0 0 0-6.709-1.6 27.894 27.894 0 0 0-13.625 4.026zm23.679 7.589c3.639 4.555 11.53-1.521 7.889-6.071a4.167 4.167 0 0 0-3.33-1.658c-3.491-.001-7.048 4.116-4.568 7.728zm10.012 3.642c3.338 4.555 11.229-1.521 7.894-6.071a4.091 4.091 0 0 0-3.282-1.613c-3.59-.002-7.347 4.269-4.617 7.682zm-10.017.609a4.565 4.565 0 1 0 5.463 7.289 4.518 4.518 0 0 0-2.474-8.308 5.156 5.156 0 0 0-2.993 1.017zm18.521 9.413c3.639 4.55 11.53-1.518 7.888-6.076a4.167 4.167 0 0 0-3.327-1.655c-3.496-.001-7.053 4.114-4.567 7.729zm-9.714-.3c3.639 4.25 11.226-1.518 7.586-5.771a4.114 4.114 0 0 0-3.3-1.616c-3.566-.007-7.249 4.196-4.297 7.38zm-5.165 9.108c3.647 4.862 11.533-1.21 7.891-5.767a3.843 3.843 0 0 0-3.261-1.791c-3.436-.006-7.104 4.187-4.637 7.552zm10.019 1.215c3.639 4.861 11.533-1.215 7.891-5.765a3.875 3.875 0 0 0-3.22-1.665c-3.451-.007-7.158 4.044-4.678 7.424zm1.219 1.822c.3.909.6 9.413.6 9.413.611.3 1.517-.6 1.822-1.215.3-1.213.608-7.895 0-7.895a6.751 6.751 0 0 0-2.127-.563c-.259-.007-.398.068-.303.254zm-9.714 15.178c3.642 4.556 11.53-1.518 7.889-6.07a3.734 3.734 0 0 0-3.111-1.613c-3.479-.006-7.291 4.263-4.786 7.677zm10.013 1.519c3.336 4.555 11.227-1.215 7.588-5.767a3.853 3.853 0 0 0-3.26-1.791c-3.421-.009-7.03 4.19-4.336 7.552zm-52.81 4.862c-.914 2.428 1.513 4.25 5.464 6.979 10.012 7.289 30.04 13.665 37.933.609a4.008 4.008 0 0 0-.909-4.556c-1.214-1.209-4.55 1.519-6.983 2.128-7.31 1.494-14.8.354-19.536-.785-3.919-.941-5.948-1.888-4.434-1.343 6.674 2.433 26.4 2.128 30.043-2.125 1.214-1.213 1.517-3.036-.3-3.945-6.068-3.343-13.96-4.861-20.637-4.861a20.208 20.208 0 0 0-1.015-.026c-6.111-.006-17.339 2.466-19.634 7.919zm43.7 3.642c3.641 4.55 11.532-1.519 7.892-6.073a3.856 3.856 0 0 0-3.2-1.658c-3.45-.005-7.178 4.113-4.695 7.725zm11.536-5.771c-.3 0-.3.3-.3.909 1.823 13.665 30.657 20.643 30.352 20.643-13.049-1.518-26.406-6.674-30.657-19.123a6.67 6.67 0 0 0-.907-2.43c0-.3-.3 0-.3.609-1.823 5.764 4.853 17.912 9.1 21.86 8.8 8.5 22.766 4.55 33.388 1.518 2.428-.609 2.428-.609 1.519-.913a16.819 16.819 0 0 1-4.553-3.039c-5.928-6.205-25.49-20.286-35.528-20.286a8.214 8.214 0 0 0-2.117.246z" transform="rotate(-161 123.437 133.767)" style="fill:rgba(172,196,198,.04)"/>
            <path data-name="Union 3" d="M132.657 212.806c-3.268-1.09-.27-26.2 0-29.742.274-6.552.547-8.186.274-9.55-1.09-3.549-1.633-21.559 0-22.1.274-.274 1.09-.274 1.637.549 1.364 2.184 2.725 21.01 2.725 25.105 0 3.817-.274 34.651-1.908 35.742a4.612 4.612 0 0 1-2.727 0zm-47.96-.817c-5.449-1.364-1.09-23.2.546-27.291 3.812-9.546 12.808-19.643 22.347-23.193 8.721-3.273 15.259-1.09 20.98 6.277 1.364 1.909.823 1.909-.54 1.909-9 1.093-16.9 2.184-23.71 9.007-3.815 4.09-9 14.733-11.443 20.463-.821 1.636 0 0 1.907-3 5.995-10.1 9.807-21.009 22.891-22.922 3-.543 7.628-1.364 9.535-1.09 8.449.547-24.251 31.649-28.611 34.382-4.794 3.118-9.8 5.606-12.788 5.606a3.911 3.911 0 0 1-1.111-.148zm58.317-36.564a2.631 2.631 0 0 1-2.174-1.909c-.821-2.455 5.721-9 8.175-10.1 9.75-4.781 21.884-4.492 26.143-4.206.644.044 1.106.085 1.357.111-15.521-2.452-28.051-1.625-37.586 12.555-1.907 2.728 1.09-8.186 1.364-8.732 3.817-12 15.8-18.55 26.978-13.913 5.448 2.452 10.626 3.816 16.077 6 1.361.547 10.357 4.369 10.083 6a.268.268 0 0 1-.274.274c-.814.546-7.356 1.367-9.263 1.91-3.817 1.364-11.719 6.276-15.535 8.733-6.927 3.8-9.761 5.7-13.94 5.7-2.727.003-6.019-.806-11.405-2.422zm-65.673-1.09c-3 0-3.273-5.456-3.273-10.642-.268-16.372 4.906-34.655 21.8-40.659 2.18-.821 27.525-5.46 23.163-.274a7.107 7.107 0 0 1-3.817 1.64c-18.8 2.449-26.971 11.456-31.336 30.012-.543 1.913-.543 3.273 0 1.639 4.631-20.468 20.982-29.475 34.063-30.018 2.726 0-7.08 14.463-7.9 15.554-5.141 8.413-23.773 32.752-32.552 32.751zm-25.073-14.19c.021-.145.041-.292.065-.438a3.357 3.357 0 0 1-.106 1.508c-.044.001-.062-.331.041-1.07zm0-1.09c-.814-4.638-2.451-12.007-4.358-16.372-5.448-14.192-6.812-11.189-1.637-25.379 2.73-7.64 1.1-5.455 8.451-11.185 7.359-5.46 10.9-8.46 20.437-8.46 2.454 0 3 0 2.454.821-1.911 2.182-9 5.456-11.991 7.639-4.084 3-8.721 6.826-10.353 11.735-1.093 3.277-4.364 21.286-2.454 23.737 0 .274 1.09-10.637 1.361-12.549 1.366-8.186 11.989-27.015 19.621-25.105 6.27 1.639-4.09 24.015-6.269 27.018-5.638 8.068-13.667 18.528-15.2 28.757a7.491 7.491 0 0 0-.062-.657zm72.221-11.734c3.27-4.095 10.355 1.365 7.085 5.458a3.745 3.745 0 0 1-2.99 1.487c-3.13 0-6.325-3.698-4.094-6.945zm11.169-1.09c3-4.095 10.086 1.365 7.088 5.455a3.784 3.784 0 0 1-3.03 1.49c-3.193-.001-6.487-3.699-4.057-6.945zM9.212 134.493c2.454-7.916-14.991-35.472 20.983-40.11a2.906 2.906 0 0 1 2.451.274c1.364 1.092-4.631 5.455-5.721 6.548-7.357 7.636-13.626 26.736-14.445 40.383 0 .271 7.635-29.195 13.624-37.383 3-3.819 5.178-5.731 6.538-6.548 1.337-.783 2.283-.842 2.933-.393a3.894 3.894 0 0 1-.2-5.064 4.255 4.255 0 0 1 5.991-.274 4.453 4.453 0 0 1 .547.465 3.569 3.569 0 0 1 .543-3.738c3-4.09 10.083 1.1 6.812 5.187-1.689 2.463-4.676 1.8-6.377.024a3.715 3.715 0 0 1-.435 3.8c-1.763 2.2-4.634 1.716-6.394.111 2.252 3.353-1.3 16.279-1.512 17.347-1.36 6.277-1.911 7.912-5.995 12.823-4.359 5.731-13.08 14.465-12.808 22.1.049 1.35-.181 1.923-.587 1.923-1.882-.002-7.522-12.535-5.948-17.475zm120.177 4.913c3.272-4.1 10.083 1.09 7.082 5.187a3.762 3.762 0 0 1-3.087 1.609c-3.173-.002-6.414-3.769-3.995-6.796zm-9.267-.545c3-4.1 10.085 1.092 6.813 5.458a3.358 3.358 0 0 1-2.789 1.446c-3.101 0-6.476-3.837-4.023-6.903zm17.713-1.364c3.274-4.1 10.355 1.085 7.085 5.181a3.718 3.718 0 0 1-3.046 1.611c-3.108.001-6.252-3.767-4.039-6.789zm-8.169-7.374c3.268-4.09 10.079 1.367 7.082 5.46a3.776 3.776 0 0 1-3.029 1.49c-3.192 0-6.485-3.698-4.052-6.95zm-10.359-.812c3.268-4.095 10.086 1.365 7.084 5.455a3.666 3.666 0 0 1-2.944 1.449c-3.22 0-6.591-3.837-4.14-6.904zm20.165-1.094c3.274-4.091 10.355 1.364 7.085 5.459a3.626 3.626 0 0 1-2.906 1.449c-3.151 0-6.426-3.839-4.178-6.908zm-14.713-6c3.274-4.09 10.353 1.364 7.085 5.456a3.632 3.632 0 0 1-2.908 1.447c-3.153.001-6.424-3.835-4.177-6.903zm9.539-1.365c2.994-4.095 10.082 1.361 6.812 5.458a3.459 3.459 0 0 1-2.867 1.487c-3.081.003-6.377-3.697-3.943-6.945zm-10.633.549a38.9 38.9 0 0 0-8.717-9.008c-1.637-1.087-8.447-5.729-8.992-6.821 0-.543-.547-.817-.274-1.364a1.547 1.547 0 0 1 1.637-.545c2.865.718 11.8 8.556 15.8 12.874-.3-8.822-2.427-27.393.008-33.615.54-1.634 1.631-2.182 1.9-1.09.274.817.274 35.472.274 35.746a8.786 8.786 0 0 1-.314 1.056c.577.6.536.685.314 1.128 0 .547-.547 1.639-.547 2.181-.119.123-.189.246-.3.246-.132-.001-.334-.189-.789-.789zm12.266-3.55c-1.633-3.819 16.352-17.739 21.529-19.646a42.419 42.419 0 0 1 16.492-2.764c-6.353-.521-11.443-.728-17.582 1.942-13.083 5.734-13.623 12.01-22.072 18.832-.547.543-1.09.274-1.364-.274-1.907-1.909-2.454-4.638-.274-6.822 3-2.728 3.815-3.546 5.181-7.64 3.268-12.826 4.9-8.729 13.621-14.19 4.638-2.73 6.816-.817 11.177-.817.814-.275 15.258 4.363 18.255 5.18 17.171 4.911 7.089 3.821 1.637 6.279-6.271 3-12.809 10.367-18.8 14.188a37.862 37.862 0 0 1-17.986 4.912c-.906 0-6.92.946-9.062.946-.433 0-.707-.038-.752-.127zm-53.141-7.916c3-4.094 10.086 1.367 6.812 5.456a3.45 3.45 0 0 1-2.867 1.49c-3.08 0-6.375-3.697-3.945-6.946zm15.536-3.545c3.268-4.091 10.079 1.364 7.082 5.455a3.667 3.667 0 0 1-2.945 1.45c-3.218.005-6.59-3.837-4.136-6.905zm-8.72-1.09c3-4.09 10.082 1.092 7.088 5.456a3.678 3.678 0 0 1-2.949 1.45c-3.219-.006-6.59-3.839-4.139-6.906zm-11.72-4.913c2.994-4.363 10.086 1.093 6.812 5.187a3.475 3.475 0 0 1-2.883 1.494c-3.077-.003-6.358-3.642-3.929-6.683zM42.732 98.2c3-4.095 10.086 1.364 6.816 5.455a3.354 3.354 0 0 1-2.791 1.45c-3.105.004-6.476-3.833-4.025-6.905zm55.866-1.1c3-4.363 10.082 1.1 6.812 5.187a3.478 3.478 0 0 1-2.887 1.495c-3.078.008-6.354-3.631-3.923-6.674zm-11.45-1.087c3.27-4.1 10.355 1.36 7.088 5.456a3.739 3.739 0 0 1-2.989 1.487c-3.13.009-6.325-3.688-4.099-6.934zm-82.837-3.54c3.541-7.366.267-4.637 7.9-9.274 2.188-1.283 5.481-1.459 8.561-.453a12.821 12.821 0 0 1-5.292-5.552c-1.362-3.821-3-4.642-1.632-9.276 1.084-4.1 1.361-7.641 2.447-11.464.274-1.092.274-1.364.821-.818 1.907 4.641 2.454 5.458 5.721 9 3 3.274 7.36 5.454 8.175 10.1 0 1.087.821 7.362-.274 7.362a11.256 11.256 0 0 1-4.9-1.639 9.879 9.879 0 0 1-4.363-3.816c-.748-1-4.465-7.944-4.88-8.905a24.7 24.7 0 0 0 3.52 8.362c2.725 3.817 7.089 7.362 6.816 7.362a7.13 7.13 0 0 1-4.309.044 12.082 12.082 0 0 1 2.4 1.6c3.816 3.273-.815.274-2.722.274-3.273 0-10.085 2.182-14.176 6-.27.276 7.089-3.82 8.449-4.37 2.725-.816 8.449-.541 10.628 1.367 1.637 1.365-5.721 8.46-12.534 8.733A25.321 25.321 0 0 0 .494 101.2a.7.7 0 0 1-.292.089c-1.269.004 3.85-8.302 4.109-8.816zm48.229 4.64c-4.634-3.546 0-9.824 4.637-6.277 3.665 2.809 1.526 7.328-1.826 7.328a4.621 4.621 0 0 1-2.81-1.052zm26.981-6c3.273-4.091 10.085 1.364 7.09 5.454a3.637 3.637 0 0 1-2.911 1.448c-3.155 0-6.425-3.839-4.179-6.906zM92.056 89.2c3.272-4.094 10.083 1.365 7.085 5.456A3.664 3.664 0 0 1 96.2 96.1c-3.223.006-6.6-3.831-4.144-6.9zm-31.883 2.732a2.9 2.9 0 0 1-1.09-.82 9.181 9.181 0 0 0-.817-1.639c-.274-.274 17.439 2.459 19.893 4.64.542.547 1.362 1.635 1.089 1.909 0 .008-.021.015-.062.015-1.138-.001-17.434-3.583-19.013-4.105zm-31.885-6.283a.954.954 0 0 0 .274-.543c3.544-4.37 10.355 1.09 7.085 5.455a4.074 4.074 0 0 1-3.247 1.627c-2.978 0-5.878-3.198-4.112-6.539zm46.6 4.641c-5.178-3.545-10.08-12.823-10.353-18.826 0 0 2.454-9.55 2.454-9.824.543-1.909 4.084-4.913 5.721-6.005 3.816-2.451 15.262-13.913 13.351-10.641-3.27 5.46-2.45 11.463-2.45 17.736 0 2.73.272 7.643 0 10.1-.274 2.723-4.363 14.187-6.811 13.37-1.09-.543-2.18-3-3-5.456a19.064 19.064 0 0 1-1.364-8.733c.547-4.637 6.538-16.1 6.538-16.1-1.362.543-4.906 8.185-5.72 9.55-3 6.547-3.27 9.279-.548 16.1.822 2.731 3.547 7.1 3.82 9.276 0 .227-.046.361-.2.361-.215.002-.639-.268-1.437-.908zm8.992-6c3.272-4.1 10.355 1.36 7.089 5.455a3.352 3.352 0 0 1-2.792 1.447c-3.118.001-6.541-3.833-4.296-6.903zm-46.6 2.449c-5.449-4.09-.821-10.366 4.631-6.276 4.2 3.155 2.25 7.607-1.235 7.61a5.505 5.505 0 0 1-3.392-1.334zm17.984 0c-4.634-3.54 0-9.818 4.635-6.272 3.664 2.806 1.526 7.325-1.825 7.325a4.606 4.606 0 0 1-2.806-1.053zm-8.718 0c-4.364-3.54.274-9.818 4.9-6.272 3.665 2.806 1.352 7.325-2.067 7.325a4.638 4.638 0 0 1-2.829-1.053zm72.487-13.909c3-4.095 10.081 1.087 7.086 5.456a3.669 3.669 0 0 1-2.947 1.446c-3.215.002-6.588-3.832-4.136-6.903zm-72.76-1.095c3-4.091 10.086 1.364 7.092 5.455a3.678 3.678 0 0 1-2.949 1.45c-3.216 0-6.594-3.84-4.143-6.905zm-18.8-4.091h.005c-9.543-8.729-5.18-5.456-5.453-15.007 0-5.458-1.905-6 2.452-11.459 3-3.823 1.907-5.46 7.359-8.46 4.632-2.46 8.72-9.28 14.164-13.376 3.544-2.726-.271 3-.544 7.1 0 2.728 1.637 12.823 2.178 16.375C49 50.451 45.733 77.194 41.1 76.92c-.543 0-1.364-1.367-2.725-4.091-3-7.369-5.449-15.826-4.36-24.012a38.732 38.732 0 0 1 2.45-10.37c.547-1.089 5.725-10.1 3-5.733a44.313 44.313 0 0 0-4.365 7.644c-7.9 17.462 8.718 36.563.274 37.928-2.995-3.823-6.808-9.278-7.902-10.642zM151.189 76.1c-1.9-.547-4.084-2.184-6.265-3.274s-4.635-1.913-6.269-2.732c-1.637-.545-2.451-1.364-2.451-1.911s.814-1.089 2.725-2.456c2.18-1.087 5.451-3.546 8.722-4.907A18.13 18.13 0 0 1 158 59.18c4.087.547 8.993 2.182 12.808 3.273s5.995 1.913 4.634 1.364a53.982 53.982 0 0 0-10.355-4.09 27.994 27.994 0 0 0-9.538-1.907 22.4 22.4 0 0 0-8.449 1.907 38.942 38.942 0 0 0-6.816 3.548c-1.907 1.09-3.27 2.181-4.358 2.181-.819 0-1.364-.817-.546-2.455.823-1.364 3-3.824 4.091-5.734 1.364-1.635 1.633-2.728 3-4.363a24.308 24.308 0 0 1 5.991-4.37c2.184-.817 3.819-.27 6.269-.27 2.179 0 5.725-.547 8.181 0 2.725.543 4.358 1.91 6.265 3.275s3.815 3.273 6.269 4.911c2.18 1.636 5.178 3 7.9 5.183a36.218 36.218 0 0 1 6.538 6.277c1.637 1.639 1.911 2.456.277 2.456s-5.455-.817-8.722-.817c-3.544.274-6.813 1.634-9.539 2.451s-5.452 1.1-7.9 1.639-4.638 1.367-6.817 1.91a10.676 10.676 0 0 1-3.835.83 8.821 8.821 0 0 1-2.159-.279zm-22.619-6.548c3.27-4.37 10.082 1.09 7.088 5.187a3.8 3.8 0 0 1-3.044 1.49c-3.188 0-6.469-3.64-4.044-6.677zm-36.514 2.455c-3.811-2.455-3.811-1.638-6.813-3-1.362-.541-.815-5.454-.815-6.819v-7.372c0-1.207 1.082-1.106 2.431-1.006a8 8 0 0 0 2.474-.086c7.628-1.364 12.262-.543 17.984 5.456 4.09 4.369 3 6 4.09 10.372 0 .541 2.179 3.82.815 3.82-.274 0-8.718-6.552-10.626-7.643a19.891 19.891 0 0 0-11.989-2.455c-1.094 0-2.184.274-1.094.542 5.452.275 7.908-.274 12.813 3 2.994 1.909 5.448 4.366 8.443 6.548.817.543 1.09.543.546.821a11.944 11.944 0 0 1-6.024 1.434 25.028 25.028 0 0 1-12.235-3.612zm21.261-6.821c3.268-4.094 10.353 1.367 7.084 5.456a3.74 3.74 0 0 1-2.99 1.49c-3.131.001-6.325-3.699-4.095-6.946zm8.989-3.273c3-4.094 10.082 1.367 7.088 5.456a3.672 3.672 0 0 1-2.947 1.45c-3.219.001-6.593-3.837-4.141-6.905zm-8.994-.547a4.1 4.1 0 1 1 2.684.916 4.627 4.627 0 0 1-2.685-.916zm16.629-8.46c3.268-4.09 10.353 1.364 7.082 5.46a3.74 3.74 0 0 1-2.988 1.487c-3.135.001-6.326-3.697-4.095-6.946zm-8.722.274c3.268-3.82 10.079 1.364 6.812 5.187a3.693 3.693 0 0 1-2.96 1.453c-3.2 0-6.508-3.778-3.853-6.64zm-4.638-8.186c3.274-4.37 10.355 1.088 7.085 5.183a3.45 3.45 0 0 1-2.928 1.61c-3.08 0-6.372-3.768-4.158-6.793zm9-1.092c3.268-4.369 10.355 1.092 7.085 5.181a3.478 3.478 0 0 1-2.891 1.5c-3.097-.003-6.426-3.643-4.199-6.683zm1.094-1.638c.268-.817.542-8.46.542-8.46.548-.272 1.362.542 1.636 1.092.274 1.09.546 7.1 0 7.1a6.057 6.057 0 0 1-1.909.506c-.234-.002-.36-.067-.274-.237zm-8.722-13.641c3.27-4.095 10.353 1.364 7.084 5.455a3.352 3.352 0 0 1-2.793 1.45c-3.123.001-6.544-3.836-4.296-6.904zm8.99-1.365c3-4.094 10.081 1.092 6.813 5.183a3.458 3.458 0 0 1-2.927 1.61c-3.069.003-6.31-3.771-3.891-6.793zm-47.417-4.37c-.821-2.182 1.358-3.82 4.906-6.272 8.989-6.551 26.973-12.281 34.059-.547a3.6 3.6 0 0 1-.817 4.095c-1.09 1.087-4.086-1.365-6.27-1.913-6.563-1.343-13.288-.319-17.541.706-3.519.846-5.341 1.7-3.981 1.207 5.992-2.186 23.706-1.913 26.975 1.91 1.09 1.09 1.362 2.728-.274 3.545-5.448 3-12.534 4.369-18.529 4.369-.285.015-.591.024-.912.024-5.479 0-15.561-2.222-17.621-7.123zm39.242-3.273c3.269-4.09 10.354 1.365 7.086 5.458a3.461 3.461 0 0 1-2.873 1.49c-3.1 0-6.447-3.701-4.218-6.947zm10.353 5.185c-.274 0-.274-.274-.274-.817 1.638-12.283 27.527-18.55 27.253-18.55-11.716 1.364-23.709 6-27.526 17.186a6 6 0 0 1-.814 2.184c0 .274-.274 0-.274-.547-1.637-5.18 4.358-16.1 8.173-19.646 7.9-7.636 20.441-4.09 29.979-1.364 2.18.547 2.18.547 1.364.821a15.1 15.1 0 0 0-4.089 2.733c-5.322 5.577-22.887 18.232-31.9 18.232a7.369 7.369 0 0 1-1.892-.232z" transform="rotate(64 44.34 363.405)" style="fill:rgba(172,196,198,.04)"/>
        </g>
    </g>
</svg>
