<svg xmlns="http://www.w3.org/2000/svg" width="55.841" height="55.975" viewBox="0 0 55.841 55.975">
    <path d="M48.01 24.994a7.986 7.986 0 0 0-4.907 14.3 9.933 9.933 0 0 1 9.815 0 7.986 7.986 0 0 0-4.908-14.3zm0 4a4 4 0 0 0-4 4 1 1 0 0 1-2 0 6.007 6.007 0 0 1 6-6 1 1 0 0 1 0 2z" style="fill:#c3c3c3" transform="translate(-.173 -.019)"/>
    <path data-name="Shape" d="M30.01 6.994a8.009 8.009 0 0 0-8 8 7.849 7.849 0 0 0 1.179 4.155 9.989 9.989 0 0 1 2.584 3.042 9.946 9.946 0 0 1 9.361-1.691 9.8 9.8 0 0 1 2.41-8.133 8.025 8.025 0 0 0-7.534-5.373zm0 4a4 4 0 0 0-4 4 1 1 0 0 1-2 0 6.007 6.007 0 0 1 6-6 1 1 0 1 1 0 2zM32.01 21.994a7.977 7.977 0 0 0-7.539 10.65 10.016 10.016 0 0 1 4.988 4.038 9.978 9.978 0 0 1 8.894-1.112 9.908 9.908 0 0 1 1.274-8.009 7.986 7.986 0 0 0-7.617-5.567zm0 4a4 4 0 0 0-4 4 1 1 0 0 1-2 0 6.007 6.007 0 0 1 6-6 1 1 0 0 1 0 2zM48.01 22.994a9.933 9.933 0 0 1 3.506.647A7.993 7.993 0 0 0 39.4 13.3l-.009.008a7.932 7.932 0 0 0-1.932 8.3 9.978 9.978 0 0 1 3.628 4.19 9.958 9.958 0 0 1 6.923-2.8zm-8-3a1 1 0 0 1-1-1 6.007 6.007 0 0 1 6-6 1 1 0 0 1 0 2 4 4 0 0 0-4 4 1 1 0 0 1-1 1z" style="fill:#c3c3c3" transform="translate(-.173 -.019)"/>
    <path data-name="Shape" d="M12.634 18.033a9.756 9.756 0 0 1 7.728-.447 9.952 9.952 0 0 1 7.873-12.425 11.793 11.793 0 0 0-2.7-3.7 1 1 0 0 0-1.559.249c-.289.522-.659 1.13-1.13 1.837a1 1 0 0 1-.733.44.987.987 0 0 1-.813-.287C21.269 3.671 17.714.348 7.634.019A1 1 0 0 0 6.62.834c-.522 2.921-1.055 9.3 3.094 13.452a1 1 0 0 1-.9 1.688 14.419 14.419 0 0 0-7.7 1.061 1.007 1.007 0 0 0-.531 1.333 9.02 9.02 0 0 0 2.987 3.793 1 1 0 0 1-.107 1.727 7.057 7.057 0 0 0-3.25 3.75 1.006 1.006 0 0 0 .546 1.193 15.378 15.378 0 0 0 6.781 1.343 9.937 9.937 0 0 1 5.1-12.142z" style="fill:#c3c3c3" transform="translate(-.173 -.019)"/>
    <path data-name="Shape" d="M14.383 34.526a9.707 9.707 0 0 1 7.853-2.443 9.92 9.92 0 0 1 2.027-8.4 7.983 7.983 0 1 0-9.88 10.843zm2.627-13.532a1 1 0 0 1 0 2 4 4 0 0 0-4 4 1 1 0 0 1-2 0 6.007 6.007 0 0 1 6-6zM48.01 55.994a8 8 0 1 0-8-8 8 8 0 0 0 8 8zm-6-8a6.007 6.007 0 0 1 6-6 1 1 0 0 1 0 2 4 4 0 0 0-4 4 1 1 0 0 1-2 0z" style="fill:#c3c3c3" transform="translate(-.173 -.019)"/>
    <path data-name="Shape" d="M41.413 40.5a9.973 9.973 0 0 1-1.726-1.983 7.874 7.874 0 0 0-4.677-1.522 8 8 0 1 0 0 16 7.881 7.881 0 0 0 3.838-1.006A9.949 9.949 0 0 1 41.413 40.5zm-6.4.495a4 4 0 0 0-4 4 1 1 0 0 1-2 0 6.007 6.007 0 0 1 6-6 1 1 0 0 1 0 2z" style="fill:#c3c3c3" transform="translate(-.173 -.019)"/>
    <path data-name="Shape" d="M21.01 33.994A8 8 0 1 0 25.657 48.5 9.927 9.927 0 0 1 27.9 37.976a8 8 0 0 0-6.89-3.982zm0 4a4 4 0 0 0-4 4 1 1 0 0 1-2 0 6.007 6.007 0 0 1 6-6 1 1 0 0 1 0 2z" style="fill:#c3c3c3" transform="translate(-.173 -.019)"/>
</svg>
