<svg xmlns="http://www.w3.org/2000/svg" width="21.719" height="16.003" viewBox="0 0 21.719 16.003">
    <path data-name="Path 11539" d="M95.891 327.64h-.738a1.477 1.477 0 0 0-1.477 1.477v2.94a1.477 1.477 0 0 0 1.477 1.477h.738a1.477 1.477 0 0 0 1.477-1.477v-2.94a1.477 1.477 0 0 0-1.477-1.477zm.369 4.417a.37.37 0 0 1-.369.369h-.738a.37.37 0 0 1-.369-.369v-2.94a.37.37 0 0 1 .369-.369h.738a.37.37 0 0 1 .369.369z" transform="translate(-93.676 -317.531)" style="fill:#c3c3c3"/>
    <path data-name="Path 11540" d="M237.925 223.26h-.738a1.477 1.477 0 0 0-1.477 1.477v7.275a1.477 1.477 0 0 0 1.477 1.477h.738a1.477 1.477 0 0 0 1.477-1.477v-7.275a1.477 1.477 0 0 0-1.477-1.477zm.369 8.752a.37.37 0 0 1-.369.369h-.738a.37.37 0 0 1-.369-.369v-7.275a.37.37 0 0 1 .369-.369h.738a.37.37 0 0 1 .369.369z" transform="translate(-229.701 -217.567)" style="fill:#c3c3c3"/>
    <path data-name="Path 11541" d="M521.971 200h-.738a1.477 1.477 0 0 0-1.477 1.477v8.32a1.477 1.477 0 0 0 1.477 1.477h.738a1.477 1.477 0 0 0 1.477-1.477v-8.32a1.477 1.477 0 0 0-1.477-1.477zm.369 9.8a.37.37 0 0 1-.369.369h-.739a.37.37 0 0 1-.369-.369v-8.32a.369.369 0 0 1 .369-.369h.738a.37.37 0 0 1 .369.369z" transform="translate(-501.729 -195.291)" style="fill:#c3c3c3"/>
    <path data-name="Path 11542" d="M379.951 280h-.738a1.477 1.477 0 0 0-1.477 1.477v4.874a1.477 1.477 0 0 0 1.477 1.477h.738a1.477 1.477 0 0 0 1.477-1.477v-4.874a1.477 1.477 0 0 0-1.477-1.477zm.369 6.351a.37.37 0 0 1-.369.369h-.738a.37.37 0 0 1-.369-.369v-4.874a.37.37 0 0 1 .369-.369h.738a.37.37 0 0 1 .369.369z" transform="translate(-365.718 -271.906)" style="fill:#c3c3c3"/>
    <path data-name="Path 11543" d="m100.683 94 4.94-3.865 7.247 4.08a.554.554 0 0 0 .538 0l6.123-3.354-.181.855a.554.554 0 0 0 .426.657.571.571 0 0 0 .116.012.553.553 0 0 0 .541-.439l.452-2.13a.554.554 0 0 0-.426-.657l-2.2-.467a.554.554 0 0 0-.231 1.083l.847.18-5.729 3.145-7.3-4.111a.551.551 0 0 0-.613.046L100 93.127a.554.554 0 1 0 .682.873z" transform="translate(-99.528 -88.685)" style="fill:#c3c3c3"/>
</svg>
