<svg xmlns="http://www.w3.org/2000/svg" width="23" height="20.404" viewBox="0 0 23 20.404">
  <defs>
    <style>
      .cls-1 {
        fill: #e2eded;
      }
    </style>
  </defs>
  <path id="heart" class="cls-1" d="M22.891,5.282A7.235,7.235,0,0,0,13.5,4.546a7.212,7.212,0,0,0-9.386,10.9l7.143,7.155a3.2,3.2,0,0,0,4.486,0l7.143-7.155a7.212,7.212,0,0,0,0-10.169Zm-1.622,8.581-7.143,7.143a.874.874,0,0,1-1.242,0L5.74,13.829a4.88,4.88,0,1,1,6.9-6.9,1.15,1.15,0,0,0,1.633,0,4.913,4.913,0,0,1,6.994,6.9Z" transform="translate(-1.988 -3.121)"/>
</svg>
