<svg xmlns="http://www.w3.org/2000/svg" width="52.677" height="74.108" viewBox="0 0 52.677 74.108">
    <path data-name="Path 11455" d="M107.13 188.838c-1.878-2.3-4.954-3.549-8.914-3.648a1.9 1.9 0 0 0-1.885-1.678H58.35a1.9 1.9 0 0 0-1.9 1.9v22.019a11.324 11.324 0 0 0 6.371 10.225 3.7 3.7 0 0 0 3.414 5.132h22.21a3.7 3.7 0 0 0 3.414-5.132 11.314 11.314 0 0 0 6.219-8.362 13.3 13.3 0 0 0 8.071-5.494 17.113 17.113 0 0 0 2.627-5.656l.013-.063c.777-3.839.218-6.948-1.659-9.243zm-3.913 8.065a11.88 11.88 0 0 1-1.71 3.6 7.97 7.97 0 0 1-3.278 2.784v-12.4c1.43.052 3.5.351 4.492 1.559.739.899.906 2.4.496 4.454z" transform="translate(-56.452 -148.678)" style="fill:#c3c3c3"/>
    <path data-name="Path 11456" d="M82.512 13.524a77.973 77.973 0 0 0 8.894.406c.867 0 1.735-.005 2.6-.011 1.348-.008 2.694-.017 4.038 0h.2c.342 0 .742-.006 1.159-.013a96.73 96.73 0 0 1 1.308-.015c-.83.163-1.839.343-2.739.5-1.814.324-3.69.659-5.038.978l-.254.06c-2.619.617-6.577 1.551-7.855 4.382a3.842 3.842 0 0 0 .1 3.417 4.177 4.177 0 0 0 2.959 2.172 8.12 8.12 0 0 0 1.42.15 12.84 12.84 0 0 0 2.467-.233c4.129-.811 4.165.26 4.167.372.011.7-1.354 1.917-1.937 2.435-.125.111-.23.205-.306.277-.152.144-.331.3-.524.476-1.182 1.054-2.8 2.5-2.6 4.078a.38.38 0 0 0 .377.333h.01a.379.379 0 0 0 .368-.353c.045-.65.68-1.219 1.27-1.7a29.876 29.876 0 0 1 1.757-1.291c.245-.171.491-.342.734-.516l.019-.013c1.077-.771 2.88-2.061 3.124-3.606a2.3 2.3 0 0 0-.47-1.772c-1.14-1.546-3.195-1.675-5.03-1.675h-.147c-.325 0-.653.009-.981.017s-.679.017-1.019.017a11.349 11.349 0 0 1-1.486-.081c-.858-.113-1.148-.569-.948-.911.6-1.016 3.6-1.914 9.025-2.617.295-.038.526-.068.675-.091.333-.051.666-.1 1-.15a42.245 42.245 0 0 0 5.8-1.143c3.384-1 4.032-2.707 3.958-4v-.066c0-.023 0-.048-.007-.074v-.006a3.739 3.739 0 0 0-2.567-3.019 19.541 19.541 0 0 0-6.867-.846h-.579c-1.9-.013-3.824.029-5.687.069-1.631.035-3.317.071-4.974.071s-3.112-.036-4.454-.111a27.915 27.915 0 0 1-3.49-.374 6.186 6.186 0 0 1-2.816-1c-.663-.561.027-1.8.484-2.374 1.386-1.744 3.808-2.467 6-2.944a35.93 35.93 0 0 1 6.916-.733c1.742-.04 3.44 0 5.054.128h.033a.38.38 0 0 0 .076-.752A35.135 35.135 0 0 0 86.182 0c-.969 0-1.935.044-2.871.132-3.605.337-8.228 1.626-9.777 5.854a4.2 4.2 0 0 0 .223 3.805c1.489 2.419 5.583 3.366 8.755 3.733z" transform="translate(-70.012)" style="fill:#c3c3c3"/>
</svg>
