<svg xmlns="http://www.w3.org/2000/svg" width="21.213" height="21.213" viewBox="0 0 21.213 21.213">
    <g transform="translate(-.655 -.655)">
        <path data-name="Path 149" d="M15.91 0H5.3A5.319 5.319 0 0 0 0 5.3v10.61a5.319 5.319 0 0 0 5.3 5.3h10.61a5.319 5.319 0 0 0 5.3-5.3V5.3a5.319 5.319 0 0 0-5.3-5.3zm-5.3 15.026a4.419 4.419 0 1 1 4.42-4.419 4.42 4.42 0 0 1-4.423 4.419zm5.745-8.839a1.326 1.326 0 1 1 1.326-1.326 1.325 1.325 0 0 1-1.329 1.326z" transform="translate(.655 .655)" style="fill:#6c9ea0"/>
        <circle data-name="Ellipse 19" cx="3.268" cy="3.268" r="3.268" transform="translate(7.994 7.994)" style="fill:#6c9ea0"/>
    </g>
</svg>
