<svg xmlns="http://www.w3.org/2000/svg" width="69.62" height="60.148" viewBox="0 0 69.62 60.148">
    <path data-name="Path 156" d="M155.723 159.8a1 1 0 0 1-1.249.661 10.571 10.571 0 0 1-5.673-3.877 10.31 10.31 0 0 1-1.915-5.6 1 1 0 0 1 .946-1.054 1.021 1.021 0 0 1 1.052.945 8.224 8.224 0 0 0 1.536 4.541 8.62 8.62 0 0 0 4.645 3.141 1 1 0 0 1 .659 1.24zm55.584-34.862a1 1 0 0 0-1.378 1.45c1.933 1.834 4.58 4.347 4.58 8.2a8.14 8.14 0 0 1-1 3.913 1 1 0 0 0 1.763.942 10.211 10.211 0 0 0 1.23-4.861c0-4.7-3.257-7.8-5.2-9.641zm-.793 9.641c0 2.119-1.7 3.739-3.339 5.3a8.825 8.825 0 0 0-2.475 3.021 9.661 9.661 0 0 0 .2 4.078c.4 2.179.8 4.438-.4 6.078s-3.479 1.98-5.7 2.259a9.957 9.957 0 0 0-3.9 1.04 9.565 9.565 0 0 0-2.16 3.359c-.96 2.02-1.96 4.119-3.939 4.759a3.448 3.448 0 0 1-1.18.179 10.676 10.676 0 0 1-4.658-1.659 9.591 9.591 0 0 0-3.88-1.5 9.561 9.561 0 0 0-3.9 1.5 7.778 7.778 0 0 1-5.818 1.48c-1.98-.64-2.979-2.739-3.959-4.759a9.3 9.3 0 0 0-2.16-3.359 9.533 9.533 0 0 0-3.9-1.04 7.913 7.913 0 0 1-5.7-2.259c-1.2-1.639-.78-3.9-.4-6.078a9.39 9.39 0 0 0 .22-4.078 9.323 9.323 0 0 0-2.479-3.019c-1.639-1.56-3.339-3.179-3.339-5.3s1.7-3.739 3.339-5.3a9.325 9.325 0 0 0 2.479-3.019 9.39 9.39 0 0 0-.22-4.078c-.38-2.179-.8-4.438.4-6.078a7.914 7.914 0 0 1 5.7-2.259 9.849 9.849 0 0 0 3.9-1.04 9.3 9.3 0 0 0 2.16-3.359c.979-2.02 1.98-4.119 3.959-4.759a7.778 7.778 0 0 1 5.818 1.479 9.561 9.561 0 0 0 3.9 1.5 9.592 9.592 0 0 0 3.88-1.5c1.939-1.04 3.939-2.1 5.838-1.479 1.98.64 2.979 2.739 3.939 4.759a9.565 9.565 0 0 0 2.16 3.359 9.627 9.627 0 0 0 3.919 1.04c2.2.28 4.479.6 5.678 2.259s.8 3.9.4 6.078a9.662 9.662 0 0 0-.2 4.078 8.825 8.825 0 0 0 2.479 3.019c1.639 1.56 3.339 3.179 3.339 5.3zm-11.457 0A20 20 0 1 0 193.2 148.7a19.974 19.974 0 0 0 5.856-14.12zm-11.4-8.8a3 3 0 0 0-4.2.62L175.6 136.96l-2.62-2.9a3 3 0 1 0-4.459 4.02l5.058 5.619a3 3 0 0 0 2.239 1 .412.412 0 0 0 .14-.02 2.982 2.982 0 0 0 2.259-1.2l10.057-13.5a3.021 3.021 0 0 0-.62-4.2zm23.954 15.907a1 1 0 1 0 .707.293 1 1 0 0 0-.707-.293zm-62.235 4.848a1 1 0 1 0-.293.707 1 1 0 0 0 .293-.707z" transform="translate(-146.884 -104.504)" style="fill:#19181c"/>
</svg>
