<svg xmlns="http://www.w3.org/2000/svg" width="27.252" height="11.355" viewBox="0 0 27.252 11.355">
    <path data-name="Path 119" d="M24.981 149.333H2.271A2.273 2.273 0 0 0 0 151.6v6.813a2.273 2.273 0 0 0 2.271 2.271h22.71a2.273 2.273 0 0 0 2.271-2.271V151.6a2.273 2.273 0 0 0-2.271-2.267zm1.136 9.084a1.137 1.137 0 0 1-1.135 1.135H2.271a1.137 1.137 0 0 1-1.135-1.135V151.6a1.137 1.137 0 0 1 1.135-1.135h22.71a1.137 1.137 0 0 1 1.135 1.135z" transform="translate(0 -149.333)" style="fill:#aeadad"/>
    <path data-name="Path 120" d="M61.629 214.469a.568.568 0 0 0-.776-.208l-.623.36v-.72a.568.568 0 1 0-1.136 0v.72l-.623-.36a.568.568 0 1 0-.568.984l.623.36-.623.36a.568.568 0 0 0 .568.984l.623-.36v.72a.568.568 0 1 0 1.136 0v-.72l.623.36a.568.568 0 0 0 .568-.984l-.623-.36.623-.36a.568.568 0 0 0 .208-.776z" transform="translate(-54.553 -209.926)" style="fill:#aeadad"/>
    <path data-name="Path 121" d="M168.3 214.469a.568.568 0 0 0-.776-.208l-.623.36v-.72a.568.568 0 1 0-1.136 0v.72l-.623-.36a.568.568 0 0 0-.568.984l.623.36-.623.36a.568.568 0 0 0 .568.984l.623-.36v.72a.568.568 0 1 0 1.136 0v-.72l.623.36a.568.568 0 1 0 .568-.984l-.623-.36.623-.36a.568.568 0 0 0 .208-.776z" transform="translate(-155.543 -209.926)" style="fill:#aeadad"/>
    <path data-name="Path 122" d="M274.963 214.469a.568.568 0 0 0-.776-.208l-.623.36v-.72a.568.568 0 1 0-1.136 0v.72l-.623-.36a.568.568 0 0 0-.568.984l.623.36-.623.36a.568.568 0 0 0 .568.984l.623-.36v.72a.568.568 0 0 0 1.136 0v-.72l.623.36a.568.568 0 1 0 .568-.984l-.623-.36.623-.36a.568.568 0 0 0 .208-.776z" transform="translate(-256.531 -209.926)" style="fill:#aeadad"/>
    <path data-name="Path 123" d="M381.63 214.469a.568.568 0 0 0-.776-.208l-.623.36v-.72a.568.568 0 0 0-1.136 0v.72l-.623-.36a.568.568 0 1 0-.568.984l.623.36-.623.36a.568.568 0 0 0 .568.984l.623-.36v.72a.568.568 0 1 0 1.136 0v-.72l.623.36a.568.568 0 1 0 .568-.984l-.623-.36.623-.36a.568.568 0 0 0 .208-.776z" transform="translate(-357.521 -209.926)" style="fill:#aeadad"/>
</svg>
