<svg xmlns="http://www.w3.org/2000/svg" width="19.804" height="19.804" viewBox="0 0 19.804 19.804">
    <g transform="translate(-.655 -.655)">
        <path data-name="Path 149" d="M14.853 0h-9.9A4.965 4.965 0 0 0 0 4.951v9.9A4.966 4.966 0 0 0 4.951 19.8h9.9a4.966 4.966 0 0 0 4.949-4.947v-9.9A4.965 4.965 0 0 0 14.853 0zM9.9 14.028A4.126 4.126 0 1 1 14.028 9.9 4.126 4.126 0 0 1 9.9 14.028zm5.364-8.252A1.238 1.238 0 1 1 16.5 4.538a1.237 1.237 0 0 1-1.234 1.238z" transform="translate(.655 .655)" style="fill:#6c9ea0"/>
        <circle data-name="Ellipse 19" cx="3.051" cy="3.051" r="3.051" transform="translate(7.507 7.506)" style="fill:#6c9ea0"/>
    </g>
</svg>
