<svg xmlns="http://www.w3.org/2000/svg" width="18.159" height="18.16" viewBox="0 0 18.159 18.16">
    <path data-name="Path 11594" d="M9.259 18.161h-.181a65.69 65.69 0 0 1-4.018-.111 5.371 5.371 0 0 1-3.1-1.172 4.969 4.969 0 0 1-1.67-2.7 11.946 11.946 0 0 1-.269-2.848C.012 10.667 0 9.882 0 9.083S.012 7.5.021 6.832A11.947 11.947 0 0 1 .295 3.98a4.969 4.969 0 0 1 1.67-2.7A5.371 5.371 0 0 1 5.061.112C6.34.034 7.655 0 9.082 0S11.82.034 13.1.112a5.371 5.371 0 0 1 3.1 1.172 4.969 4.969 0 0 1 1.67 2.7 11.946 11.946 0 0 1 .274 2.852c.009.663.019 1.449.021 2.247 0 .8-.011 1.584-.021 2.247a11.94 11.94 0 0 1-.274 2.852 4.969 4.969 0 0 1-1.67 2.7 5.371 5.371 0 0 1-3.1 1.172 62.416 62.416 0 0 1-3.84.111zm-.181-1.419c1.4 0 2.686-.032 3.935-.108a3.908 3.908 0 0 0 2.285-.855 3.582 3.582 0 0 0 1.192-1.947 10.868 10.868 0 0 0 .23-2.521c.009-.659.018-1.439.02-2.23s-.011-1.571-.02-2.23a10.87 10.87 0 0 0-.23-2.521 3.582 3.582 0 0 0-1.19-1.947 3.909 3.909 0 0 0-2.285-.855c-1.249-.076-2.535-.111-3.932-.108s-2.686.032-3.935.108a3.909 3.909 0 0 0-2.285.855A3.582 3.582 0 0 0 1.669 4.33a10.869 10.869 0 0 0-.23 2.521c-.009.659-.018 1.44-.02 2.231s.011 1.569.02 2.228a10.868 10.868 0 0 0 .23 2.521 3.582 3.582 0 0 0 1.192 1.947 3.909 3.909 0 0 0 2.285.855c1.254.077 2.536.113 3.932.109zm-.034-3.227a4.434 4.434 0 1 1 4.434-4.434 4.439 4.439 0 0 1-4.434 4.434zm0-7.448a3.015 3.015 0 1 0 3.015 3.015 3.018 3.018 0 0 0-3.015-3.016zm4.93-2.837a1.064 1.064 0 1 0 1.064 1.064 1.064 1.064 0 0 0-1.063-1.065zm0 0" transform="translate(0 -.001)" style="fill:#aeadad"/>
</svg>
