<svg xmlns="http://www.w3.org/2000/svg" width="19.628" height="19.632" viewBox="0 0 19.628 19.632">
    <path data-name="Path 110" d="M17.691 21.24c1.822 0 3.051-1.281 3.413-3.522a2.179 2.179 0 0 0-.436-1.643l-.07-.065-2.646-2.092a2.179 2.179 0 0 0-2.742.1L14.069 15.1c-2.38-.54-5.8-3.626-5.967-5.9l1.129-1.19a2.179 2.179 0 0 0 .083-2.733L7.23 2.642a.318.318 0 0 0-.078-.074 2.179 2.179 0 0 0-1.639-.436C3.281 2.5 2 3.728 2 5.55a15.691 15.691 0 0 0 15.691 15.69zM5.652 3a1.356 1.356 0 0 1 .188 0 1.308 1.308 0 0 1 .75.24l2.035 2.571a1.308 1.308 0 0 1-.039 1.621L7.348 8.74a.436.436 0 0 0-.118.3c0 2.807 4.049 6.494 6.9 6.974a.436.436 0 0 0 .37-.113l1.308-1.225a1.308 1.308 0 0 1 1.626-.057l2.593 2.04a1.273 1.273 0 0 1 .227.937c-.214 1.264-.824 2.776-2.567 2.776A14.819 14.819 0 0 1 2.872 5.55c0-1.744 1.512-2.35 2.78-2.55z" transform="translate(-1.75 -1.858)" style="fill:#aeadad;stroke:#aeadad;stroke-width:.5px"/>
</svg>
