<svg xmlns="http://www.w3.org/2000/svg" width="133.251" height="24.98" viewBox="0 0 133.251 24.98">
    <g data-name="Group 141">
        <path data-name="Union 5" d="M62.933 24.3a11.91 11.91 0 0 1-5.233-7.809 11.6 11.6 0 0 1 .561-6.358A12.249 12.249 0 0 1 60.117 7a13.272 13.272 0 0 1 2.132-2.056 12 12 0 0 1 .961-.675 8.474 8.474 0 0 0-1.546 5.982c.734 4 4.593 5.516 6.714 8.6 1.162 1.7 1.281 4.313-.619 5.525a4.09 4.09 0 0 1-2.216.6 5.445 5.445 0 0 1-2.61-.676zm45.857-.493v-2.076h9.527v2.075zm-11.326-.025A12.285 12.285 0 0 1 85.18 11.5v-1h7.344v1.014a4.93 4.93 0 0 0 4.925 4.922h6.743v-2.855h-5.624a3.227 3.227 0 0 1-3.223-3.225V4.991h5.46a5.42 5.42 0 0 1 5.413 5.413v8.058h-8.77a6.959 6.959 0 0 1-6.874-5.936h-3.318a10.276 10.276 0 0 0 10.208 9.248h8.679v2.008zm-.1-13.425a1.2 1.2 0 0 0 1.2 1.2h5.624v-1.149a3.388 3.388 0 0 0-3.386-3.385l-3.437-.006zM69.76 20.855A4.84 4.84 0 0 0 68 16.131a17.733 17.733 0 0 1-4.09-4.05 7.118 7.118 0 0 1 .722-7.916C66.67 1.585 69.7.727 72.794.2l1.152-.2-1.8 3.139 1.954 4.6-.567 2.87 2.17 8.2-1.449 2.826zM46 20.26V4.958h2.038v15.3zm-14.143 0V4.958H41.285v1.8h-7.394v5.772h6.2v1.783h-6.2v5.947zm-8.125 0v-4.5H17.6l-.761 4.488-2.058.016 1.7-10.019a10.091 10.091 0 0 1 .619-2.257 4.994 4.994 0 0 1 1.12-1.654 4.36 4.36 0 0 1 1.8-1.027 9.225 9.225 0 0 1 2.7-.342 14.641 14.641 0 0 1 1.542.075 15.24 15.24 0 0 1 1.541.242q-.027 1.283-.031 2.615V20.26zm0-6.287V7.05c0-.075.005-.15.01-.225a2.174 2.174 0 0 0-.264-.042 7.784 7.784 0 0 0-.861-.041 5.311 5.311 0 0 0-2.219.383 2.619 2.619 0 0 0-1.232 1.146 6.562 6.562 0 0 0-.627 1.954l-.639 3.748zM0 20.26V4.958h2.037v7.572h1.526a2.354 2.354 0 0 0 1.644-.513 3.743 3.743 0 0 0 .9-1.285l2.721-5.777h2.124v.172l-2.975 6.2a6.65 6.65 0 0 1-.955 1.507 4.18 4.18 0 0 1-.388.4l4.376 6.843v.168H8.7l-3.74-6.1a4.621 4.621 0 0 1-1.308.157v.01H2.037v5.948zm108.849-1.8V1.1h2.023v15.322h20.293a3.4 3.4 0 0 0-3.324-2.734h-11.785l-.681.771-1.521-1.338 7.192-8.135 1.521 1.338-4.732 5.333h10.006a5.417 5.417 0 0 1 5.41 5.417v1.387zM89.9 7.045V4.96h2.726v2.085z" style="fill:#e2eded"/>
    </g>
</svg>
