<svg xmlns="http://www.w3.org/2000/svg" width="14.871" height="15.999" viewBox="0 0 14.871 15.999">
    <path d="M-3856.009 4236.512a.659.659 0 0 1-.646-.672v-4.7a.659.659 0 0 1 .646-.671h3.233a.66.66 0 0 1 .646.671v4.7a.66.66 0 0 1-.646.672zm-5.173 0a.659.659 0 0 1-.646-.672v-7.386a.659.659 0 0 1 .646-.671h3.233a.66.66 0 0 1 .646.671v7.386a.66.66 0 0 1-.646.672zm-5.172 0a.66.66 0 0 1-.647-.672v-9.4a.66.66 0 0 1 .647-.672h3.232a.659.659 0 0 1 .646.672v9.4a.659.659 0 0 1-.646.672zm8.706-9.84a.668.668 0 0 1 .578-.742l1.261-.3-8.251-3.895a.687.687 0 0 1-.222-.836.637.637 0 0 1 .759-.365l8.27 3.873-.647-1.175a.7.7 0 0 1-.053-.512.664.664 0 0 1 .313-.4.633.633 0 0 1 .873.262l1.584 2.947a.7.7 0 0 1 0 .6.658.658 0 0 1-.453.411l-3.156.731h-.141a.634.634 0 0 1-.068 0 .66.66 0 0 1-.646-.599z" transform="translate(3867 -4220.514)" style="fill:#f6f6f6"/>
</svg>
