<?xml version="1.0" encoding="UTF-8"?>
<svg xmlns="http://www.w3.org/2000/svg" xmlns:xlink="http://www.w3.org/1999/xlink" width="45px" height="36px" viewBox="0 0 45 36" version="1.1">
<g id="surface1">
<path style=" stroke:none;fill-rule:nonzero;fill:rgb(0%,0%,0%);fill-opacity:1;" d="M 32.625 4.5 C 34.488281 4.5 36 6.011719 36 7.875 C 36 8.9375 35.5 9.933594 34.648438 10.574219 L 33.671875 11.304688 C 28.988281 11.757812 25.066406 14.820312 23.386719 19.027344 L 19.351562 22.050781 C 18.546875 22.648438 17.453125 22.648438 16.648438 22.050781 L 1.351562 10.574219 C 0.5 9.933594 0 8.9375 0 7.875 C 0 6.011719 1.511719 4.5 3.375 4.5 Z M 20.699219 23.851562 L 22.554688 22.457031 C 22.519531 22.84375 22.5 23.230469 22.5 23.625 C 22.5 26.613281 23.5625 29.363281 25.328125 31.5 L 4.5 31.5 C 2.015625 31.5 0 29.480469 0 27 L 0 12.375 L 15.300781 23.851562 C 16.902344 25.050781 19.097656 25.050781 20.699219 23.851562 Z M 45 23.625 C 45 29.214844 40.464844 33.75 34.875 33.75 C 29.285156 33.75 24.75 29.214844 24.75 23.625 C 24.75 18.035156 29.285156 13.5 34.875 13.5 C 40.464844 13.5 45 18.035156 45 23.625 Z M 38.019531 20.582031 L 33.75 24.847656 L 31.730469 22.832031 C 31.296875 22.386719 30.578125 22.386719 30.144531 22.832031 C 29.699219 23.265625 29.699219 23.984375 30.144531 24.417969 L 32.957031 27.230469 C 33.390625 27.675781 34.109375 27.675781 34.542969 27.230469 L 39.605469 22.167969 C 40.050781 21.734375 40.050781 21.015625 39.605469 20.582031 C 39.171875 20.136719 38.453125 20.136719 38.019531 20.582031 Z M 38.019531 20.582031 "/>
</g>
</svg>
