<svg xmlns="http://www.w3.org/2000/svg" width="17.966" height="17.966" viewBox="0 0 17.966 17.966">
    <path data-name="Path 11519" d="M19.966 11.483a8.483 8.483 0 0 1-8.483 8.483m8.483-8.483A8.483 8.483 0 0 0 11.483 3m8.483 8.483H3m8.483 8.483A8.483 8.483 0 0 1 3 11.483m8.483 8.483c1.562 0 2.828-3.8 2.828-8.483S13.045 3 11.483 3m0 16.966c-1.562 0-2.828-3.8-2.828-8.483S9.921 3 11.483 3M3 11.483A8.483 8.483 0 0 1 11.483 3" transform="translate(-2.5 -2.5)" style="fill:none;stroke:#aeadad;stroke-linecap:round;stroke-linejoin:round"/>
</svg>
