<svg xmlns="http://www.w3.org/2000/svg" width="21.099" height="20.928" viewBox="0 0 21.099 20.928">
    <path data-name="Path 11569" d="M23.849 15.069V6.46A2.47 2.47 0 0 0 21.368 4H6.481A2.47 2.47 0 0 0 4 6.46v8.609m19.849 0v6.149a2.47 2.47 0 0 1-2.481 2.46H6.481A2.47 2.47 0 0 1 4 21.218v-6.149m19.849 0h-3.208a1.246 1.246 0 0 0-.877.36L16.769 18.4a1.246 1.246 0 0 1-.877.36h-3.935a1.246 1.246 0 0 1-.877-.36l-2.995-2.971a1.246 1.246 0 0 0-.877-.36H4" transform="translate(-3.375 -3.375)" style="fill:none;stroke:rgba(25,24,28,.9);stroke-linecap:round;stroke-linejoin:round;stroke-width:1.25px"/>
</svg>
