<svg xmlns="http://www.w3.org/2000/svg" width="17.788" height="18.085" viewBox="0 0 17.788 18.085">
    <path data-name="Path 10495" d="M162 44.537v-2.944a6.119 6.119 0 0 0-4.479-5.888 1.538 1.538 0 0 0-.042-.967 1.674 1.674 0 0 0-3.259.547 1.354 1.354 0 0 0 .063.421 6.119 6.119 0 0 0-4.479 5.888v2.944c0 .82-1.472 1.472-1.472 1.472s-1.262 1.893 0 2.523 5.047 0 5.047 0v.547a2.583 2.583 0 0 0 2.481 2.608 2.526 2.526 0 0 0 2.566-2.523 2.171 2.171 0 0 0-.084-.631s3.848.631 5.131 0 0-2.523 0-2.523S162 45.357 162 44.537z" transform="translate(-146.992 -33.602)" style="fill:#e2eded"/>
    <path data-name="Path 10496" d="M481.716 68.737a7.587 7.587 0 0 0-1.346-1.115.426.426 0 1 0-.463.715 6.936 6.936 0 0 1 1.2 1.009 7.964 7.964 0 0 1 1.535 2.376.4.4 0 0 0 .378.252.253.253 0 0 0 .168-.042.427.427 0 0 0 .231-.547 8.083 8.083 0 0 0-1.7-2.65z" transform="translate(-465.936 -66.277)" style="stroke:#e2eded;stroke-width:.5px;fill:#e2eded"/>
    <path data-name="Path 10497" d="M121 70.739a7.519 7.519 0 0 1 2.734-3.386.426.426 0 0 0-.463-.715 8.246 8.246 0 0 0-3.049 3.743.427.427 0 0 0 .231.547.5.5 0 0 0 .168.042.324.324 0 0 0 .378-.231z" transform="translate(-119.915 -65.335)" style="stroke:#e2eded;stroke-width:.5px;fill:#e2eded"/>
</svg>
