<svg xmlns="http://www.w3.org/2000/svg" width="75.083" height="61.349" viewBox="0 0 75.083 61.349">
    <path data-name="Path 11445" d="M243.275 189.486H241.2v-1.365h2.073zm-2.942-1.365h-2.076v1.365h2.076zm1.116-1.825h-1.365v2.074h1.365zm0 2.942h-1.365v2.076h1.365zM209.1 187.5h-2.07v1.365h2.07zm-2.942 0h-2.074v1.365h2.074zm1.116-1.825h-1.365v2.074h1.365zm0 2.942h-1.365v2.076h1.365zm29.845-13.529h-2.076v1.365h2.076zm-2.942 0h-2.076v1.365h2.076zm1.116-1.825h-1.365v2.074h1.372zm0 2.942h-1.365v2.076h1.372zm-13.428 7.866h2.073V182.7h-2.068zm2.942 0h2.073V182.7h-2.073zm-1.116 1.825h1.365v-2.074H223.7zm0-2.942h1.365v-2.076H223.7zm-12.844-6.164h2.076v-1.365h-2.076zm2.942 0h2.077v-1.365h-2.076zm-1.116 1.825h1.365v-2.074h-1.365zm0-2.942h1.365v-2.076h-1.365zm12.42 35.453a19.832 19.832 0 0 0-8.178-11.411 18.212 18.212 0 0 1 16.355 0 19.833 19.833 0 0 0-8.178 11.411zm-.682 5.067a18.409 18.409 0 0 1-8.867 15.719 18.363 18.363 0 0 1 0-31.436 18.4 18.4 0 0 1 8.87 15.713zm-19.1 0a19.777 19.777 0 0 0 8.86 16.478 18.417 18.417 0 1 1 0-32.956 19.77 19.77 0 0 0-8.86 16.478zm19.783 5.067a19.832 19.832 0 0 0 8.178 11.411 18.2 18.2 0 0 1-16.355 0 19.832 19.832 0 0 0 8.178-11.412zm19.1 13.351a18.266 18.266 0 0 1-8.178-1.94 19.753 19.753 0 0 0 0-32.956 18.408 18.408 0 1 1 8.178 34.895zm-.682-18.418a18.4 18.4 0 0 1-8.868 15.717 18.363 18.363 0 0 1 0-31.435 18.4 18.4 0 0 1 8.871 15.714z" transform="translate(-187.531 -173.259)" style="fill:#c3c3c3"/>
</svg>
