<svg xmlns="http://www.w3.org/2000/svg" width="15.856" height="13.872" viewBox="0 0 15.856 13.872">
    <path d="M77.928 35A7.923 7.923 0 0 0 70 42.93a8.069 8.069 0 0 0 .766 3.393.981.981 0 0 0 .894.575h3.467A2.972 2.972 0 0 0 80.9 45.9a2.94 2.94 0 0 0-.695-1.879l1.537-2.555c.4-.65.242-1.325-.231-1.372a.835.835 0 0 0-.881.494l-1.59 2.519s-.911-.179-1.113-.179a2.465 2.465 0 0 0-2.178 1.093 2.043 2.043 0 0 0-.488.9 3.563 3.563 0 0 0-.135.909h-3.465a14.975 14.975 0 0 1-.493-2.9c-.074-2.336 1.6-4.5 3.065-5.659 2.171-1.723 6.339-1.456 8.517.856a6.679 6.679 0 0 1 1.988 4.8 13.248 13.248 0 0 1-.322 2.986h-1.533c-.549 0-.941-.009-.986.417-.156.512.437.567.986.565h1.312a1.078 1.078 0 0 0 1.082-.561 7.93 7.93 0 0 0 .578-3.4 8.03 8.03 0 0 0-2.992-6.226A7.908 7.908 0 0 0 77.928 35zm0 8.908a1.983 1.983 0 0 1 1.991 1.992 1.829 1.829 0 0 1-1.991 1.991 1.991 1.991 0 0 1 0-3.982z" transform="translate(-70 -35.004)" style="fill-rule:evenodd"/>
</svg>
