<svg xmlns="http://www.w3.org/2000/svg" width="25.007" height="18.605" viewBox="0 0 25.007 18.605">
    <path data-name="Path 11770" d="M111.173 93.184H93.32a.576.576 0 0 0-.529.543v.464a.536.536 0 0 0 .529.543h17.853a.576.576 0 0 0 .529-.543v-.464a.536.536 0 0 0-.529-.543z" transform="translate(-86.946 -92.934)" style="stroke:#000;stroke-width:.5px"/>
    <path data-name="Path 11771" d="M111.173 434.79H93.32a.576.576 0 0 0-.529.543v.464a.536.536 0 0 0 .529.543h17.853a.576.576 0 0 0 .529-.543v-.464a.536.536 0 0 0-.529-.543z" transform="translate(-86.946 -417.984)" style="stroke:#000;stroke-width:.5px"/>
    <path data-name="Path 11772" d="M116.709 207.638h-21.15l1.447-1.6a.621.621 0 0 0 0-.855l-.224-.228a.592.592 0 0 0-.856 0l-2.974 3.013a.619.619 0 0 0 0 .852l2.953 3.015a.592.592 0 0 0 .856 0l.224-.228a.621.621 0 0 0 0-.855l-1.439-1.6h21.164a.538.538 0 0 0 .533-.543v-.437a.538.538 0 0 0-.533-.543z" transform="translate(-92.486 -199.118)" style="stroke:#000;stroke-width:.5px"/>
</svg>
