<svg xmlns="http://www.w3.org/2000/svg" width="16.306" height="20.383" viewBox="0 0 16.306 20.383">
    <path d="M13.86 10.6a2.446 2.446 0 0 1 2.446 2.446v.815c0 3.215-3.032 6.523-8.153 6.523S0 17.075 0 13.86v-.815A2.446 2.446 0 0 1 2.446 10.6zm0 1.631H2.446a.815.815 0 0 0-.815.815v.815c0 2.344 2.335 4.892 6.523 4.892s6.523-2.548 6.523-4.892v-.815a.815.815 0 0 0-.817-.816zM8.153 0a4.484 4.484 0 1 1-4.484 4.484A4.484 4.484 0 0 1 8.153 0zm0 1.631a2.854 2.854 0 1 0 2.854 2.854 2.854 2.854 0 0 0-2.854-2.854z"/>
</svg>
