<svg xmlns="http://www.w3.org/2000/svg" width="20" height="25" viewBox="0 0 20 25">
  <defs>
    <style>
      .cls-1 {
        fill: #e2eded;
      }
    </style>
  </defs>
  <path id="person" class="cls-1" d="M20,14.5a3,3,0,0,1,3,3v1c0,3.943-3.719,8-10,8s-10-4.057-10-8v-1a3,3,0,0,1,3-3Zm0,2H6a1,1,0,0,0-1,1v1c0,2.875,2.864,6,8,6s8-3.125,8-6v-1A1,1,0,0,0,20,16.5Zm-7-15A5.5,5.5,0,1,1,7.5,7,5.5,5.5,0,0,1,13,1.5Zm0,2A3.5,3.5,0,1,0,16.5,7,3.5,3.5,0,0,0,13,3.5Z" transform="translate(-3 -1.5)"/>
</svg>
