<svg xmlns="http://www.w3.org/2000/svg" width="56.498" height="56.175" viewBox="0 0 56.498 56.175">
    <path data-name="Path 11635" d="M106.107 192.264h-.292l-1.343-7.124a9.6 9.6 0 0 0-2.92-5.373l-5.606-5.256a2.862 2.862 0 0 0-1.168-.642l-1.285-10.045a3.646 3.646 0 0 0-1.4-2.394 3.41 3.41 0 0 0-2.686-.642 3.542 3.542 0 0 0-2.862 2.862l-2.395 13.139a8.287 8.287 0 0 0 1.343 6.074l6.6 9.46a.916.916 0 0 0-.525.818v6.774a.9.9 0 0 0 .876.876h13.665a.9.9 0 0 0 .876-.876V193.2a.843.843 0 0 0-.876-.934zM86.953 181.87a6.328 6.328 0 0 1-1.051-4.789L88.3 164a1.741 1.741 0 0 1 1.4-1.4 1.841 1.841 0 0 1 1.343.292 1.655 1.655 0 0 1 .7 1.168l1.285 9.869a3.423 3.423 0 0 0-1.11.759 2.732 2.732 0 0 0-.233 3.445l4.789 7.066a.883.883 0 1 0 1.46-.993l-4.789-7.066a.981.981 0 0 1 .117-1.285.942.942 0 0 1 .759-.35 1.231 1.231 0 0 1 .759.292l5.606 5.256a8.15 8.15 0 0 1 2.394 4.38l1.285 6.832h-9.87zm18.278 17.169H93.318v-5.022h11.913z" transform="translate(-83.523 -145.115)" style="stroke:#19181c;fill:#19181c"/>
    <path data-name="Path 11636" d="m418.252 177.293-2.394-13.081A3.541 3.541 0 0 0 413 161.35a3.41 3.41 0 0 0-2.686.642 3.515 3.515 0 0 0-1.4 2.394l-1.343 9.986a3.292 3.292 0 0 0-1.168.642l-5.606 5.256a9.6 9.6 0 0 0-2.92 5.373l-1.343 7.124h-.292a.9.9 0 0 0-.876.876v6.774a.9.9 0 0 0 .876.876H409.9a.9.9 0 0 0 .876-.876V193.7a.989.989 0 0 0-.525-.818l6.657-9.518a8.287 8.287 0 0 0 1.343-6.074zm-9.168 22.249h-11.913v-5.022h11.913zm6.365-17.169-7.241 10.395h-9.869l1.285-6.832a7.756 7.756 0 0 1 2.394-4.38l5.606-5.256a1.23 1.23 0 0 1 .759-.292 1.029 1.029 0 0 1 .759.35 1.056 1.056 0 0 1 .117 1.285l-4.789 7.066a.883.883 0 0 0 1.46.993l4.789-7.066a2.811 2.811 0 0 0-.233-3.445 2.9 2.9 0 0 0-1.11-.759l1.285-9.869a1.656 1.656 0 0 1 .7-1.168 1.605 1.605 0 0 1 1.343-.292 1.741 1.741 0 0 1 1.4 1.4l2.394 13.081a6.333 6.333 0 0 1-1.052 4.788z" transform="translate(-362.382 -145.619)" style="stroke:#19181c;fill:#19181c"/>
    <path data-name="Path 11637" d="M115.615 30.987c-.019.01.013-1.519 0-1.526l-2.72-2.023a.932.932 0 0 1-.3-1.128l1.36-3.118a11.391 11.391 0 0 0-.763-1.294l-3.383-.4a.985.985 0 0 1-.829-.829l-.431-3.383a13.784 13.784 0 0 0-1.294-.763l-3.118 1.36a.978.978 0 0 1-1.128-.3l-2.023-2.72h-1.493l-2.023 2.72a.932.932 0 0 1-1.128.3l-3.118-1.36c-.011-.005-1.307.775-1.327.763l-.4 3.383a.985.985 0 0 1-.829.829l-3.383.4a14.2 14.2 0 0 1-.763 1.294l1.36 3.118a.978.978 0 0 1-.3 1.128l-2.72 2.023c.011.033.021 1.5 0 1.493l2.72 2.023a.932.932 0 0 1 .3 1.128l-1.36 3.118c.018.034.745 1.331.763 1.327l3.383.4a.985.985 0 0 1 .829.829l.4 3.383c0 .031 1.3.769 1.294.763l3.118-1.36a.978.978 0 0 1 1.128.3l2.023 2.72h1.493l2.023-2.72a.932.932 0 0 1 1.128-.3l3.118 1.36c0-.019 1.279-.788 1.294-.763l.4-3.383a.985.985 0 0 1 .829-.829l3.416-.4c-.024-.026.756-1.312.763-1.294l-1.36-3.118a.978.978 0 0 1 .3-1.128zm-15.391 9.155a9.918 9.918 0 1 1 9.918-9.918 9.923 9.923 0 0 1-9.918 9.918z" transform="translate(-71.365 -14.867)" style="fill:#19181c"/>
    <path data-name="Path 11638" d="M224.088 146.16a7.928 7.928 0 1 0 7.928 7.928 7.927 7.927 0 0 0-7.928-7.928zm.829 12.339v.862a.829.829 0 0 1-1.659 0v-.861a2.612 2.612 0 0 1-2.123-1.36.882.882 0 0 1-.1-.4.821.821 0 0 1 .829-.829.838.838 0 0 1 .763.5.992.992 0 0 0 .829.431h1.26a.992.992 0 0 0 1-.962.977.977 0 0 0-1-1h-1.26a2.623 2.623 0 0 1-.166-5.241v-.862a.829.829 0 0 1 1.659 0v.862a2.582 2.582 0 0 1 2.156 1.393.816.816 0 0 1-1.459.73.956.956 0 0 0-.862-.531h-1.26a1 1 0 1 0 0 1.99h1.26a2.626 2.626 0 0 1 2.62 2.62 2.7 2.7 0 0 1-2.488 2.653z" transform="translate(-195.229 -138.73)" style="fill:#19181c"/>
</svg>
