<svg xmlns="http://www.w3.org/2000/svg" width="49.697" height="65.853" viewBox="0 0 49.697 65.853">
    <path data-name="Path 11732" d="M209.589 479.823h2.33v4.19h-2.33z" transform="translate(-190.479 -418.41)" style="fill:#161515;stroke:#000;stroke-width:.5px"/>
    <path data-name="Path 11733" d="M0 0h4.19v2.006H0z" transform="rotate(-45 75.948 20.466)" style="fill:#161515;stroke:#000;stroke-width:.5px"/>
    <path data-name="Path 11734" d="M0 0h2.147v4.19H0z" transform="rotate(-45 86.547 -5.804)" style="fill:#161515;stroke:#000;stroke-width:.5px"/>
    <path data-name="Path 11738" d="M24.068 24.645c.567.191 1.251-.225 2.036.8a1.79 1.79 0 0 1-.167 2.332 1.982 1.982 0 0 1-1.4.56 1.914 1.914 0 0 1-1.372-.589.949.949 0 0 0-1.3-.056.854.854 0 0 0-.058 1.243 3.793 3.793 0 0 0 1.959 1.077v1.45a.92.92 0 0 0 1.839 0V29.94a3.757 3.757 0 0 0 1.654-.94 3.488 3.488 0 0 0 .327-4.6c-1.616-2.1-3.072-.863-4.177-2.02a1.77 1.77 0 0 1-.5-1.314 1.877 1.877 0 0 1 1.98-1.743 1.925 1.925 0 0 1 1.322.592.948.948 0 0 0 1.3.055.854.854 0 0 0 .058-1.243 3.755 3.755 0 0 0-1.969-1.073V16.2a.92.92 0 0 0-1.839 0v1.516a3.532 3.532 0 0 0 .3 6.924z" transform="translate(10.557 -8.566)" style="fill:#161515;stroke:#000;stroke-width:.5px"/>
    <path data-name="Path 11735" d="M113.964 17.366A14.359 14.359 0 0 0 99.21 2.612a18.942 18.942 0 0 0-9.39 2.836A4.884 4.884 0 0 0 85.581 2.1a4.578 4.578 0 0 0-4.324 4.46 4.3 4.3 0 0 0 .388 2.134c-6.136 2.069-11.575 7.848-11.575 14.673v15.15l-5.3 5.3v8.848h14.05a7.243 7.243 0 0 0 6.764 5.14c4.223 0 5.7-3.234 6.764-5.14h14.314v-8.846l-5.567-5.567v-6.858c7.585-.93 12.869-6.194 12.869-14.028zM72.143 37.373v-6.33h26.875v6.33zM99.21 4.685a12.406 12.406 0 0 1 12.681 12.681c0 6.318-6.554 11.737-12.873 11.737s-11.967-6.232-12.49-11.737S91.027 4.6 99.21 4.685zm-15.828 1.58a2.126 2.126 0 0 1 2.2-2.2 2.378 2.378 0 0 1 2.134 2.2 2.478 2.478 0 0 1-2.134 2.2 2.305 2.305 0 0 1-2.2-2.2zm2.125 4.292a22.513 22.513 0 0 0-1.052 6.809l.013.288c.119 4.285 4.451 9.839 6.272 11.15l-18.6.165v-5.606c0-6.169 7.283-12.45 13.364-12.806zm.074 45.178a4.887 4.887 0 0 1-4.53-3.067h9.061a4.887 4.887 0 0 1-4.531 3.067zm19-5.14H66.84v-5.157l5.38-5.992h26.373l5.992 5.992z" transform="translate(-64.517 -1.845)" style="fill:#161515;stroke:#000;stroke-width:.5px"/>
</svg>
