<svg xmlns="http://www.w3.org/2000/svg" width="15.117" height="22.314" viewBox="0 0 15.117 22.314">
    <path data-name="Path 11548" d="M48.056 191.959a2.76 2.76 0 0 0-4.731 0 5.493 5.493 0 0 0 0 6.045 2.76 2.76 0 0 0 4.731 0 5.493 5.493 0 0 0 0-6.045zm-3.926 5.465a4.508 4.508 0 0 1 0-4.888 1.978 1.978 0 0 1 1.528-.924 1.777 1.777 0 0 1-.347.521 2.266 2.266 0 0 0 0 3.165 1.287 1.287 0 0 1 0 1.892 2.609 2.609 0 0 0-.535.871 2.507 2.507 0 0 1-.646-.637zm3.122 0a1.975 1.975 0 0 1-1.528.925 1.771 1.771 0 0 1 .347-.522 2.266 2.266 0 0 0 0-3.165 1.289 1.289 0 0 1 0-1.892 2.6 2.6 0 0 0 .535-.87 2.5 2.5 0 0 1 .644.636 4.512 4.512 0 0 1 0 4.888zm0 0" transform="translate(-40.295 -181.029)" style="fill:#707070"/>
    <path data-name="Path 11549" d="M14.346 5.117 13.2 3.044V1.413A1.415 1.415 0 0 0 11.786 0h-8.04a1.415 1.415 0 0 0-1.414 1.413v1.63L1.186 5.117a7.869 7.869 0 0 0-.979 3.8v11.754a1.645 1.645 0 0 0 1.644 1.643h11.83a1.646 1.646 0 0 0 1.644-1.643V8.913a7.869 7.869 0 0 0-.979-3.796zm-5-4.127h2.444a.423.423 0 0 1 .423.423v1.263H9.342zM7.111 3.419a.489.489 0 0 0 .067-.248V.991h1.17v2.047L7.5 4.508H6.484zM3.323 1.413a.423.423 0 0 1 .423-.422H6.19v1.684H3.323zM1.2 20.671V8.913A6.876 6.876 0 0 1 2.054 5.6L3.12 3.667h2.706l-.631 1.09a.5.5 0 0 0 .429.743h2.16a.5.5 0 0 0 .429-.248l.919-1.586h2.733l-.8 1.45a7.869 7.869 0 0 0-.979 3.8v12.408H1.851a.653.653 0 0 1-.653-.653zm13.135 0a.653.653 0 0 1-.652.652H13.2v-6.8a.5.5 0 0 0-.991 0v6.8h-1.133V8.913a6.878 6.878 0 0 1 .855-3.313l.769-1.4.774 1.4a6.876 6.876 0 0 1 .855 3.316zm0 0" transform="translate(-.208)" style="fill:#707070"/>
</svg>
