<svg xmlns="http://www.w3.org/2000/svg" width="23.375" height="18.258" viewBox="0 0 23.375 18.258">
  <defs>
    <style>
      .cls-1 {
        fill: #242c43;
      }
    </style>
  </defs>
  <path id="Path_11558" data-name="Path 11558" class="cls-1" d="M104.393,83.8a.958.958,0,0,0-1.355,1.355l1.108,1.108h-3.2a2.309,2.309,0,0,1-1.749-.813l-3.177-3.67,3.153-3.67a2.309,2.309,0,0,1,1.749-.813h3.2l-1.108,1.108a.967.967,0,0,0,0,1.355.93.93,0,0,0,.665.271,1,1,0,0,0,.665-.271l2.734-2.734a.967.967,0,0,0,0-1.355l-2.685-2.734a.958.958,0,0,0-1.355,1.355l1.108,1.108h-3.2a4.236,4.236,0,0,0-3.2,1.478L94.763,80.3l-2.98-3.448a4.236,4.236,0,0,0-3.2-1.478H84.959a.962.962,0,0,0-.961.961.946.946,0,0,0,.961.961H88.58a2.309,2.309,0,0,1,1.749.813l3.177,3.67-3.177,3.67a2.309,2.309,0,0,1-1.749.813H84.959a.961.961,0,0,0,0,1.921H88.58a4.236,4.236,0,0,0,3.2-1.478l2.98-3.448,2.98,3.448a4.236,4.236,0,0,0,3.2,1.478h3.2l-1.108,1.108a.967.967,0,0,0,0,1.355.93.93,0,0,0,.665.271.951.951,0,0,0,.665-.271l2.734-2.734a.952.952,0,0,0,0-1.33Z" transform="translate(-83.999 -72.662)"/>
</svg>
