<svg xmlns="http://www.w3.org/2000/svg" width="11.324" height="13.163" viewBox="0 0 11.324 13.163">
    <path d="M3.18 9.685a1.409 1.409 0 0 1-1.228-.6 3.1 3.1 0 0 1-.425-1.786 6.288 6.288 0 0 1 .564-2.456l.485.146a5.361 5.361 0 0 0-.412 1.845q0 1.653.883 1.653a1.259 1.259 0 0 0 .621-.173 2.851 2.851 0 0 0 .637-.511 12.13 12.13 0 0 0 .933-1.162l.013-.013-.04-.279q-.279-1.626-.481-3.1a18.317 18.317 0 0 1-.2-1.955 1.05 1.05 0 0 1 .226-.723A1.193 1.193 0 0 1 5.42.226q.133.531.246.856l.239.763-.325.279q.027.179.076.591t.322 2.921a19.67 19.67 0 0 1 1.268-1.547L7.04.77a6.526 6.526 0 0 1 .916-.763q.04.836.093 3.319a2.942 2.942 0 0 1 .793-.451 2.492 2.492 0 0 1 .846-.14 1.108 1.108 0 0 1 .777.292.972.972 0 0 1 .319.75.947.947 0 0 1-.123.458q-.123.226-.256.226a.765.765 0 0 0-.342-.4 1.224 1.224 0 0 0-.554-.11 2.325 2.325 0 0 0-.714.11 2.631 2.631 0 0 0-.727.388q.06 3.306.093 4.334a1.957 1.957 0 0 0 1.155.345 1.859 1.859 0 0 0 1.168-.378q-.153-.557-.5-1.493a3.65 3.65 0 0 1-.259-.909.992.992 0 0 1 .232-.6 2.162 2.162 0 0 1 .664-.551l.146.783q.226 1.029.292 1.43a4.527 4.527 0 0 1 .066.733 3.406 3.406 0 0 1-.471 1.387 2.861 2.861 0 0 1-.773.508 1.97 1.97 0 0 1-.707.123 1.6 1.6 0 0 1-1.009-.359 1.218 1.218 0 0 1-.511-.823q-.146-1.228-.339-3.81A13.092 13.092 0 0 0 6.12 6.882a28.74 28.74 0 0 1 .232 2.961 2.749 2.749 0 0 1-.541 1.61 3.972 3.972 0 0 1-1.467 1.241 4.083 4.083 0 0 1-1.882.475 2.414 2.414 0 0 1-1.812-.667 2.593 2.593 0 0 1-.651-1.889 5.85 5.85 0 0 1 .076-.979q.076-.448.282-1.224l.491.119A6 6 0 0 0 .609 9.95a2.227 2.227 0 0 0 .5 1.543 1.769 1.769 0 0 0 1.387.554 4.532 4.532 0 0 0 2.011-.491 2.715 2.715 0 0 0 1.341-1.208l-.392-2.463a5.521 5.521 0 0 1-1.148 1.334 1.841 1.841 0 0 1-1.128.466zm8.145 2.024a4.821 4.821 0 0 1-.81.923 5.718 5.718 0 0 1-.9-.836q.372-.339.876-.9zm-2.051.2a4.99 4.99 0 0 1-.8.923 6.744 6.744 0 0 1-.9-.836q.339-.312.883-.916l.431.445zM5.158 1.035z"/>
</svg>
