<svg xmlns="http://www.w3.org/2000/svg" width="21.011" height="21.024" viewBox="0 0 21.011 21.024">
  <defs>
    <style>
      .cls-1 {
        fill: none;
        stroke: #242c43;
        stroke-linecap: round;
        stroke-linejoin: round;
        stroke-width: 2px;
      }
    </style>
  </defs>
  <path id="Path_10488" data-name="Path 10488" class="cls-1" d="M9,13.916a3.174,3.174,0,0,0,0-2.833m0,2.833a3.166,3.166,0,1,1,0-2.833m0,2.833,7,3.5M9,11.083l7-3.5m0,0a3.167,3.167,0,1,0,1.416-4.249A3.167,3.167,0,0,0,16,7.583Zm0,9.833A3.167,3.167,0,1,0,20.248,16,3.167,3.167,0,0,0,16,17.416Z" transform="translate(-2.001 -1.987)"/>
</svg>
