<svg xmlns="http://www.w3.org/2000/svg" width="18.049" height="17.376" viewBox="0 0 18.049 17.376">
    <path data-name="Path 11596" d="M9.016 9.687a4.485 4.485 0 0 1 4.443 4.446c0 .569.018 1.092.05 1.575a.553.553 0 0 0 .678.5l.759-.178a.425.425 0 0 1 .51.316.558.558 0 0 1-.356.654l-1.152.465a.619.619 0 0 0-.365.737c.924 3.416 3.505 3.061 3.505 3.506 0 .559-1.946.638-2.121.814s-.008 1.029-.4 1.194a.836.836 0 0 1-.307.042c-.3 0-.714-.058-1.155-.058a2.707 2.707 0 0 0-1.133.206c-.932.43-1.83 1.234-2.943 1.234s-2.012-.8-2.943-1.234a2.706 2.706 0 0 0-1.138-.206c-.441 0-.859.058-1.155.058a.837.837 0 0 1-.307-.042c-.393-.165-.225-1.018-.4-1.194S.963 22.264.963 21.7c0-.445 2.581-.09 3.505-3.506a.619.619 0 0 0-.365-.737L2.952 17a.558.558 0 0 1-.36-.648.425.425 0 0 1 .51-.316l.759.178a.552.552 0 0 0 .678-.5c.032-.482.05-1.006.05-1.575a4.471 4.471 0 0 1 4.427-4.452m0-.963a5.275 5.275 0 0 0-2.093.432 5.485 5.485 0 0 0-2.867 2.881 5.336 5.336 0 0 0-.429 2.1c0 .355-.008.7-.022 1.03l-.284-.067a1.387 1.387 0 0 0-1.67 1.04 1.523 1.523 0 0 0 .956 1.76l.845.341a3.079 3.079 0 0 1-2.287 2.269 3.474 3.474 0 0 0-.5.185A1.113 1.113 0 0 0 0 21.7a1.255 1.255 0 0 0 .522 1.007 2.223 2.223 0 0 0 .635.323 7.935 7.935 0 0 0 1.1.261 2.494 2.494 0 0 0 .08.39 1.357 1.357 0 0 0 .778.915 1.758 1.758 0 0 0 .681.117c.169 0 .347-.013.536-.027s.412-.031.619-.031a1.778 1.778 0 0 1 .729.117c.234.108.482.254.744.408a5.074 5.074 0 0 0 2.6.915 5.074 5.074 0 0 0 2.6-.915c.262-.154.51-.3.744-.408a1.778 1.778 0 0 1 .729-.117c.207 0 .416.016.619.031s.367.027.536.027a1.758 1.758 0 0 0 .681-.117 1.357 1.357 0 0 0 .778-.915 2.49 2.49 0 0 0 .08-.39 7.939 7.939 0 0 0 1.1-.261 2.222 2.222 0 0 0 .635-.323 1.255 1.255 0 0 0 .522-1.007 1.113 1.113 0 0 0-.67-1.013 3.474 3.474 0 0 0-.5-.185 3.079 3.079 0 0 1-2.278-2.264l.845-.341a1.523 1.523 0 0 0 .955-1.757 1.38 1.38 0 0 0-.5-.789 1.39 1.39 0 0 0-1.17-.256l-.282.066c-.014-.33-.022-.675-.022-1.03a5.311 5.311 0 0 0-.433-2.1 5.5 5.5 0 0 0-2.878-2.879 5.294 5.294 0 0 0-2.095-.431z" transform="translate(0 -8.724)" style="fill:#aeadad"/>
</svg>
