<svg xmlns="http://www.w3.org/2000/svg" width="22.177" height="20.802" viewBox="0 0 22.177 20.802">
    <path data-name="Path 150" d="M19.2 18.248c.843-.132 2.587-.437 2.92-1.205a.527.527 0 0 0-.379-.766c-2.965-.488-4.3-3.525-4.355-3.654-.819-1.474 1.414-1.223 2.288-2.123.856-.881-.517-1.834-1.375-1.43a1.668 1.668 0 0 1-1.231.2c.083-1.394.313-3.707-.251-4.969-1.9-4.254-7.5-4.407-10.1-1.938C4.664 4.3 4.915 6.3 5.108 9.265c-.638.278-1.268-.274-1.727-.274a1.151 1.151 0 0 0-1.134.786c-.115.62.559 1.019 1.142 1.249.993.39 1.938.505 1.414 1.57a.147.147 0 0 0-.011.025 6.167 6.167 0 0 1-4.357 3.653.531.531 0 0 0-.381.766c.33.769 2.09 1.077 2.921 1.206.257.481.06 1.43.856 1.43a16.638 16.638 0 0 1 1.673-.2 3.348 3.348 0 0 1 2.386.873 4.9 4.9 0 0 0 6.4 0 3.715 3.715 0 0 1 3.549-.748c1.451.281 1.028-.7 1.364-1.353z" transform="translate(-.001 -.745)" style="fill:#6c9ea0"/>
</svg>
