<svg xmlns="http://www.w3.org/2000/svg" width="12.747" height="12.191" viewBox="0 0 12.747 12.191">
    <path data-name="Path 11476" d="M8.387 2.708a.683.683 0 0 1 1.3 0L10.723 5.9a.683.683 0 0 0 .648.471h3.355a.683.683 0 0 1 .4 1.236l-2.712 1.969a.683.683 0 0 0-.248.763L13.2 13.53a.682.682 0 0 1-1.05.763l-2.712-1.971a.683.683 0 0 0-.8 0l-2.717 1.971a.682.682 0 0 1-1.05-.763l1.036-3.191a.683.683 0 0 0-.248-.763L2.946 7.6a.683.683 0 0 1 .4-1.236H6.7a.683.683 0 0 0 .651-.464l1.036-3.192z" transform="translate(-2.663 -2.236)" style="fill:#f0f80c"/>
</svg>
