<svg xmlns="http://www.w3.org/2000/svg" width="20.216" height="19.394" viewBox="0 0 20.216 19.394">
    <path d="M11.049 2.927a1 1 0 0 1 1.9 0L14.47 7.6a1 1 0 0 0 .95.69h4.915a1 1 0 0 1 .588 1.81l-3.976 2.888a1 1 0 0 0-.363 1.118l1.516 4.675a1 1 0 0 1-1.536 1.119l-3.976-2.888a1 1 0 0 0-1.176 0L7.436 19.9A1 1 0 0 1 5.9 18.781l1.518-4.674a1 1 0 0 0-.363-1.118L3.077 10.1a1 1 0 0 1 .588-1.81h4.914a1 1 0 0 0 .951-.69l1.519-4.674z" transform="translate(-1.892 -1.486)" style="fill:none;stroke:rgba(112,112,112,.7);stroke-linecap:round;stroke-linejoin:round;stroke-width:1.5px"/>
</svg>
