<svg xmlns="http://www.w3.org/2000/svg" width="22.469" height="18.256" viewBox="0 0 22.469 18.256">
    <path data-name="Path 145" d="M22.469 50.161a9.6 9.6 0 0 1-2.654.727 4.58 4.58 0 0 0 2.026-2.546 9.206 9.206 0 0 1-2.921 1.115 4.606 4.606 0 0 0-7.968 3.15 4.743 4.743 0 0 0 .107 1.05 13.038 13.038 0 0 1-9.495-4.817A4.608 4.608 0 0 0 2.98 55a4.549 4.549 0 0 1-2.08-.571v.051a4.627 4.627 0 0 0 3.69 4.526 4.6 4.6 0 0 1-1.208.152 4.073 4.073 0 0 1-.872-.079 4.65 4.65 0 0 0 4.3 3.209 9.255 9.255 0 0 1-5.71 1.964 8.626 8.626 0 0 1-1.1-.063 12.968 12.968 0 0 0 7.066 2.067 13.02 13.02 0 0 0 13.11-13.108c0-.2-.007-.4-.017-.6a9.189 9.189 0 0 0 2.31-2.387z" transform="translate(0 -48)" style="fill:#6c9ea0"/>
</svg>
