<svg xmlns="http://www.w3.org/2000/svg" width="16.399" height="13.345" viewBox="0 0 16.399 13.345">
    <path d="M26.3 19.078a6.9 6.9 0 0 1-1.927.533 3.28 3.28 0 0 0 1.476-1.865 7.08 7.08 0 0 1-2.132.82 3.365 3.365 0 0 0-5.822 2.3 3.074 3.074 0 0 0 .082.758 9.463 9.463 0 0 1-6.908-3.505 3.374 3.374 0 0 0 1.024 4.481 3.228 3.228 0 0 1-1.517-.41 3.4 3.4 0 0 0 2.685 3.341 3.69 3.69 0 0 1-1.517.062 3.376 3.376 0 0 0 3.136 2.337 6.773 6.773 0 0 1-4.98 1.398 9.553 9.553 0 0 0 14.718-8.036 3.027 3.027 0 0 0-.021-.43 6.673 6.673 0 0 0 1.703-1.784z" transform="translate(-9.9 -17.5)" style="fill:#e2eded"/>
</svg>
