<svg xmlns="http://www.w3.org/2000/svg" width="51.001" height="36.485" viewBox="0 0 51.001 36.485">
    <path data-name="Path 11689" d="M46.371 65.6a5.747 5.747 0 1 1 5.8-5.747 5.781 5.781 0 0 1-5.8 5.747zm0-9.881a4.134 4.134 0 1 0 4.187 4.134 4.166 4.166 0 0 0-4.187-4.135zm0 0" transform="translate(-35.981 -48.152)" style="fill:#c3c3c3;stroke:#c3c3c3"/>
    <path data-name="Path 11690" d="M12.224 196.394H2.108A2.1 2.1 0 0 1 0 194.3v-2.638a9.911 9.911 0 0 1 15.793-7.862.807.807 0 0 1-.958 1.3 8.3 8.3 0 0 0-13.223 6.56v2.64a.489.489 0 0 0 .495.482h10.117a.806.806 0 1 1 0 1.613zm0 0" transform="translate(.5 -163.034)" style="fill:#c3c3c3;stroke:#c3c3c3"/>
    <path data-name="Path 11691" d="M347.21 190.343h-10.116a.806.806 0 1 1 0-1.613h10.116a.489.489 0 0 0 .495-.481v-2.638a8.239 8.239 0 0 0-8.278-8.181 8.352 8.352 0 0 0-5.241 1.849.806.806 0 1 1-1.014-1.254 9.971 9.971 0 0 1 6.255-2.208 9.854 9.854 0 0 1 9.89 9.794v2.638a2.1 2.1 0 0 1-2.108 2.094zm0 0" transform="translate(-298.817 -157.593)" style="fill:#c3c3c3;stroke:#c3c3c3"/>
    <path data-name="Path 11692" d="M346.152 61.647a5.747 5.747 0 1 1 5.8-5.747 5.78 5.78 0 0 1-5.8 5.747zm0-9.881a4.135 4.135 0 1 0 4.188 4.134 4.166 4.166 0 0 0-4.188-4.135zm0 0" transform="translate(-305.541 -44.597)" style="fill:#c3c3c3;stroke:#c3c3c3"/>
    <path data-name="Path 11693" d="M137.79 175.607H115.9a2.63 2.63 0 0 1-2.637-2.618v-3.71a13.584 13.584 0 0 1 27.166 0v3.71a2.63 2.63 0 0 1-2.637 2.618zm-10.946-18.162a11.916 11.916 0 0 0-11.97 11.835v3.71a1.016 1.016 0 0 0 1.024 1h21.892a1.016 1.016 0 0 0 1.024-1v-3.71a11.916 11.916 0 0 0-11.969-11.835zm0 0" transform="translate(-101.344 -139.623)" style="fill:#c3c3c3;stroke:#c3c3c3"/>
    <path data-name="Path 11694" d="M178.735 14.767a7.427 7.427 0 0 1-7.454-7.384 7.454 7.454 0 0 1 14.908 0 7.427 7.427 0 0 1-7.454 7.383zm0-13.154a5.813 5.813 0 0 0-5.841 5.771 5.841 5.841 0 0 0 11.682 0 5.813 5.813 0 0 0-5.841-5.771zm0 0" transform="translate(-153.515 .5)" style="fill:#c3c3c3;stroke:#c3c3c3"/>
</svg>
