<svg xmlns="http://www.w3.org/2000/svg" width="18.789" height="18.791" viewBox="0 0 18.789 18.791">
    <path data-name="Path 11592" d="m127.494 124.684-1.442-1.1a1.242 1.242 0 0 0-1.628.108l-.563.563a2.911 2.911 0 0 1-1.17-.6l-.049-.041a3.087 3.087 0 0 1-.378-.379l-.04-.048a2.91 2.91 0 0 1-.6-1.171l.563-.563a1.242 1.242 0 0 0 .109-1.627l-1.1-1.44a1.294 1.294 0 0 0-1.551-.4l-.164.073a2.712 2.712 0 0 0-1.618 2.42 7.194 7.194 0 0 0 1.684 4.775l.073.086a7.518 7.518 0 0 0 .918.918l.086.073a7.205 7.205 0 0 0 4.627 1.686h.15a2.712 2.712 0 0 0 2.419-1.621l.073-.164a1.3 1.3 0 0 0-.399-1.548zm-.475 1.168-.073.164a1.754 1.754 0 0 1-1.565 1.047h-.131a6.25 6.25 0 0 1-4.013-1.461l-.086-.073a6.566 6.566 0 0 1-.8-.8l-.073-.086a6.239 6.239 0 0 1-1.461-4.144 1.755 1.755 0 0 1 1.047-1.566l.164-.073a.342.342 0 0 1 .41.109l1.1 1.44a.284.284 0 0 1-.025.373l-.744.745a.477.477 0 0 0-.134.414 3.866 3.866 0 0 0 .856 1.864l.04.047a4.037 4.037 0 0 0 .494.494l.049.041a3.867 3.867 0 0 0 1.863.854.477.477 0 0 0 .414-.134l.745-.745a.285.285 0 0 1 .373-.025l1.442 1.105a.342.342 0 0 1 .109.409z" transform="translate(-113.538 -113.551)" style="fill:#aeadad"/>
    <path data-name="Path 11593" d="M16.072 2.753A9.395 9.395 0 0 0 .1 8.289a9.453 9.453 0 0 0 1.15 5.731l-.794 2.73a1.306 1.306 0 0 0 1.619 1.619l2.73-.792A9.4 9.4 0 0 0 16.072 2.753zM15.4 15.365a8.353 8.353 0 0 1-4.974 2.414 8.488 8.488 0 0 1-5.313-1.127.477.477 0 0 0-.377-.048l-2.925.85a.352.352 0 0 1-.436-.436l.85-2.925a.477.477 0 0 0-.048-.377A8.443 8.443 0 1 1 15.4 15.365z" style="fill:#aeadad" transform="translate(-.035)"/>
</svg>
