<svg xmlns="http://www.w3.org/2000/svg" width="18.453" height="17.953" viewBox="0 0 18.453 17.953">
    <path d="m3 5.742 2.742.914m0 0L3 14.883a4.572 4.572 0 0 0 5.485 0M5.742 6.656l2.742 8.227M5.742 6.656l5.484-1.828m5.484 1.828 2.742-.914m-2.742.914-2.742 8.227a4.572 4.572 0 0 0 5.485 0m-2.742-8.227 2.742 8.227m-2.742-8.227-5.484-1.828m0-1.828v1.828m0 14.625V4.828m0 14.625H8.484m2.742 0h2.742" transform="translate(-2.051 -2.25)" style="fill:none;stroke:#242c43;stroke-linecap:round;stroke-linejoin:round;stroke-width:1.5px"/>
</svg>
