<svg xmlns="http://www.w3.org/2000/svg" width="20.267" height="15.351" viewBox="0 0 20.267 15.351">
    <path data-name="Path 11598" d="m196.641 109.075-4.478-2.45a.822.822 0 0 0-1.217.721v4.854a.821.821 0 0 0 1.212.724l4.478-2.408a.822.822 0 0 0 .005-1.446zm-4.507 2.518v-3.631l3.346 1.831zm0 0" transform="translate(-183.387 -102.307)" style="fill:#aeadad"/>
    <path data-name="Path 11599" d="M20.117 3.623v-.009a4.635 4.635 0 0 0-.893-2.352A3.3 3.3 0 0 0 17.039.237l-.1-.012h-.035C14.223.027 10.177 0 10.136 0h-.007c-.041 0-4.087.027-6.79.222L3.3.225l-.092.012a3.215 3.215 0 0 0-2.171 1.056A4.857 4.857 0 0 0 .151 3.6v.021C.142 3.691 0 5.307 0 6.929v1.517c0 1.622.143 3.238.149 3.306v.01a4.59 4.59 0 0 0 .89 2.323A3.365 3.365 0 0 0 3.3 15.1c.082.009.153.017.2.026l.047.006c1.547.147 6.4.22 6.6.223h.012c.041 0 4.087-.027 6.766-.222h.035l.114-.013a3.141 3.141 0 0 0 2.153-1.03 4.857 4.857 0 0 0 .886-2.31v-.021c.006-.068.149-1.684.149-3.306V6.929c0-1.622-.143-3.238-.149-3.306zm-1.038 4.823c0 1.5-.131 3.048-.143 3.19a3.771 3.771 0 0 1-.583 1.645 1.953 1.953 0 0 1-1.4.65l-.126.014c-2.592.187-6.485.216-6.665.217-.2 0-4.981-.076-6.481-.215-.077-.013-.16-.022-.247-.032a2.221 2.221 0 0 1-1.519-.634l-.015-.012a3.421 3.421 0 0 1-.571-1.629c-.009-.107-.144-1.672-.144-3.195V6.929c0-1.5.131-3.045.143-3.189a3.694 3.694 0 0 1 .583-1.646 2.049 2.049 0 0 1 1.431-.677l.1-.012c2.629-.188 6.551-.216 6.692-.217s4.061.029 6.667.217l.1.012a2.127 2.127 0 0 1 1.455.659v.005a3.476 3.476 0 0 1 .571 1.653c.009.1.144 1.669.144 3.2zm0 0" style="fill:#aeadad" transform="translate(.001)"/>
</svg>
