<svg xmlns="http://www.w3.org/2000/svg" width="22.904" height="16.119" viewBox="0 0 22.904 16.119">
    <path d="M22.011 47.3c-.827-.983-2.353-1.384-5.268-1.384H6.161c-2.982 0-4.534.427-5.358 1.473-.8 1.02-.8 2.523-.8 4.6v3.965c0 4.03.953 6.077 6.161 6.077h10.579c2.528 0 3.929-.354 4.835-1.221.929-.889 1.326-2.342 1.326-4.856v-3.96c-.004-2.194-.062-3.706-.893-4.694zM14.7 54.524l-4.8 2.511a.739.739 0 0 1-1.081-.655v-5.006a.739.739 0 0 1 1.081-.656l4.805 2.5a.739.739 0 0 1 0 1.311z" transform="translate(0 -45.917)" style="fill:#6c9ea0"/>
</svg>
